<?xml version="1.0" encoding="utf-8" ?>
<svg baseProfile="full" height="200mm" version="1.1" viewBox="0,0,200,200" width="200mm" xmlns="http://www.w3.org/2000/svg" xmlns:ev="http://www.w3.org/2001/xml-events" xmlns:xlink="http://www.w3.org/1999/xlink"><defs /><rect fill="#1a1a1a" height="200" width="200" x="0" y="0" /><text alignment-baseline="middle" fill="#e1ed5e" style="dominant-baseline: central; font-size:9.0px; font-family:Arial;" text-anchor="middle" x="100.0" y="100.0">2026</text><line stroke="#e1ed5e" stroke-width="0.3" x1="100.0" x2="100.0" y1="15.0" y2="10.0" /><path d="M 100.0 14.0 a86.0,86.0 0 0,1 42.46469731375804,11.215312516191453" fill="none" id="id49" stroke="none" /><text fill="#e1ed5e" style="font-size:6.75px; font-family:Arial;" text-anchor="middle"><textPath startOffset="22.20632615414155" xlink:href="#id49">January</textPath></text><path d="M 100.0 79.0 l 0.0 -28.42073549846232 a49.42073549846232,49.42073549846232 0 0,0 0.8506967216183341,0.0073222152575090765 l -0.48921624234580574 28.41652465981337" fill="#ffa30f" stroke="none" /><path d="M 100.72285384407766 79.0124445844662 l 0.931469088850594 -27.04455303139859 a48.060589116492174,48.060589116492174 0 0,0 0.8265486838186031,0.035592925016571186 l -1.3968586050585285 27.02451237985782" fill="#ff890c" stroke="none" /><path d="M 101.80526077348638 79.07773832637324 l 1.8116663342113366 -20.996499600702037 a42.074513763994545,42.074513763994545 0 0,0 0.7210266806455861,0.0684701713177692 l -2.172818141947167 20.96220388486909" fill="#ff1001" stroke="none" /><path d="M 102.16513564639614 79.11191278185805 l 2.871145242443074 -27.699295579899964 a48.84770099354468,48.84770099354468 0 0,0 0.8356057454229677,0.0938900417027436 l -3.347517691375767 27.64576958472662" fill="#ff980e" stroke="none" /><path d="M 102.52436894288641 79.15227682838746 l 2.4442320855038164 -20.1859058793094 a41.33334863361527,41.33334863361527 0 0,0 0.7055903193619724,0.09160587403094257 l -2.7913371333736348 20.14084168211432" fill="#ff0000" stroke="none" /><path d="M 103.2404852339499 79.25152402106235 l 5.763299586853327 -36.901783036822856 a58.34912600616741,58.34912600616741 0 0,0 0.9910204330344063,0.16352686284141357 l -6.3976492260266085 36.797109911041815" fill="#bcff1f" stroke="none" /><path d="M 103.95276090670814 79.375362276772 l 4.057141051690616 -21.169270380393883 a42.55454480965754,42.55454480965754 0 0,0 0.7182266719228109,0.1440695136619914 l -4.420934133080552 21.096296910654683" fill="#ff1a02" stroke="none" /><path d="M 105.01212808612495 79.60689891045804 l 7.078598000413782 -28.801052589674203 a50.658172228319145,50.658172228319145 0 0,0 0.8450051165258721,0.21541061902620795 l -7.57331200562468 28.674938974479126" fill="#ffba11" stroke="none" /><path d="M 105.71112130821622 79.79150937346287 l 5.627131543281722 -19.911297433501286 a41.691166590860725,41.691166590860725 0 0,0 0.688916316264329,0.20111356404680528 l -5.969038077269478 19.811485540535777" fill="#ff0801" stroke="none" /><path d="M 106.0581310904928 79.89281104454417 l 11.607286849034908 -38.52506762357591 a61.23567997930289,61.23567997930289 0 0,0 1.006640592421942,0.3127681321408173 l -12.268712814167568 38.31955935655257" fill="#8eff24" stroke="none" /><path d="M 106.74666289553966 80.11325718540242 l 8.626048925012888 -25.426498868244664 a47.84987085171106,47.84987085171106 0 0,0 0.7777153345208189,0.2713296093734196 l -9.062446263596982 25.274248405699037" fill="#ff850c" stroke="none" /><path d="M 107.4271985657038 80.35727306442388 l 10.605907855444778 -28.049465766321834 a50.987627635647435,50.987627635647435 0 0,0 0.8182708995210195,0.3174763964129948 l -11.087161919965466 27.862746666018293" fill="#ffc011" stroke="none" /><path d="M 108.09893153111575 80.62456947434976 l 18.530670675454342 -44.331739425942125 a69.04881763593954,69.04881763593954 0 0,0 1.0926687431332018,0.4678237317548882 l -19.29102317637786 44.00619616622444" fill="#32ff49" stroke="none" /><path d="M 109.08828744355905 81.06846463323043 l 13.872051708104099 -28.896449320355657 a53.05368312559723,53.05368312559723 0 0,0 0.819878312627624,0.40231072731395706 l -14.367401287742155 28.653383432906868" fill="#ffe615" stroke="none" /><path d="M 109.41281617654863 81.2277094730956 l 11.405354741293968 -22.746076068010726 a46.445355043042476,46.445355043042476 0 0,0 0.711585994538839,0.36450198455276894 l -11.79520122342156 22.54638155814546" fill="#ff6909" stroke="none" /><path d="M 110.36928655335952 81.73862282372117 l 14.424601662955576 -25.403203029379878 a50.21287143173084,50.21287143173084 0 0,0 0.7479404883877988,0.4332554070922657 l -14.859738883808703 25.151143464897565" fill="#ffb210" stroke="none" /><line stroke="#e1ed5e" stroke-width="0.3" x1="143.23703022742887" x2="145.7803849466894" y1="26.81831364943548" y2="22.513508569990506" /><path d="M 143.74570117128098 25.957352633546492 a86.0,86.0 0 0,1 28.547481713284135,27.462654790039103" fill="none" id="id50" stroke="none" /><text fill="#e1ed5e" style="font-size:6.75px; font-family:Arial;" text-anchor="middle"><textPath startOffset="19.985693538727396" xlink:href="#id50">February</textPath></text><path d="M 111.2981086023043 82.29822771554956 l 11.717021532588731 -18.35812119734676 a42.77864108459526,42.77864108459526 0 0,0 0.6173018495605566,0.4015102943222448 l -12.031290407933568 18.153711978864987" fill="#ff1e03" stroke="none" /><path d="M 111.60114157652 82.49532879139004 l 18.641417852891717 -28.127567293689133 a54.74407357488305,54.74407357488305 0 0,0 0.7810032120046593,0.5273368550687618 l -19.12282575930292 27.802518526321702" fill="#faff18" stroke="none" /><path d="M 112.19680574252982 82.90503203632743 l 17.487939445872176 -24.51098844145585 a51.11007440109829,51.11007440109829 0 0,0 0.7117800304813106,0.517138462729621 l -17.907264792707277 24.206330743909554" fill="#ffc312" stroke="none" /><path d="M 112.77801427241765 83.33499621200491 l 38.33404281725294 -49.995011363985284 a84.0,84.0 0 0,0 1.1398697793622787,0.8896864431071037 l -39.188945151774654 49.32774653165496" fill="#4dd2ff" stroke="none" /><path d="M 113.34407831869373 83.78471172551755 l 15.656060007888597 -19.024732934523204 a45.63843903741754,45.63843903741754 0 0,0 0.6023023525795745,0.5044108989970164 l -15.98121989742729 18.75242087813237" fill="#ff5908" stroke="none" /><path d="M 113.89432698308785 84.25364557470407 l 28.305839777521005 -32.0788323166 a63.781678886028196,63.781678886028196 0 0,0 0.8169795625248771,0.7334923177778182 l -28.85383032764187 31.58684099005288" fill="#66ff29" stroke="none" /><path d="M 114.42810811169701 84.74124197986012 l 39.14654920933534 -41.40028041684042 a77.97750023993623,77.97750023993623 0 0,0 0.9673545444628603,0.9305943053392705 l -39.853386997410624 40.72030302473885" fill="#42ffd8" stroke="none" /><path d="M 115.19652480421416 85.50635884689758 l 15.316268027950004 -14.607845903050356 a42.16547254920779,42.16547254920779 0 0,0 0.49641346184388446,0.5295392696673783 l -15.56544881176435 14.342037216504924" fill="#ff1202" stroke="none" /><line stroke="#e1ed5e" stroke-width="0.3" x1="172.23445277983987" x2="176.4835382374775" y1="55.19839476539836" y2="52.563006222186495" /><path d="M 173.08426987136738 54.67131705675599 a86.0,86.0 0 0,1 12.851231095245387,41.99856678651699" fill="none" id="id51" stroke="none" /><text fill="#e1ed5e" style="font-size:6.75px; font-family:Arial;" text-anchor="middle"><textPath startOffset="22.20632615414155" xlink:href="#id51">March</textPath></text><line stroke="#e1ed5e" stroke-width="0.3" x1="184.98032266829074" x2="189.97916517819016" y1="98.17113171792111" y2="98.06355123074" /><path d="M 185.9800911702706 98.14961562048488 a86.0,86.0 0 0,1 -9.607161424134198,41.387399972396054" fill="none" id="id52" stroke="none" /><text fill="#e1ed5e" style="font-size:6.75px; font-family:Arial;" text-anchor="middle"><textPath startOffset="21.466115282336823" xlink:href="#id52">April</textPath></text><line stroke="#e1ed5e" stroke-width="0.3" x1="174.80103733775053" x2="179.2010983576182" y1="140.37084112569926" y2="142.7455964860345" /><path d="M 175.68104954172406 140.8457921977663 a86.0,86.0 0 0,1 -30.038265399797805,32.042727171017184" fill="none" id="id53" stroke="none" /><text fill="#e1ed5e" style="font-size:6.75px; font-family:Arial;" text-anchor="middle"><textPath startOffset="22.206326154141568" xlink:href="#id53">May</textPath></text><line stroke="#e1ed5e" stroke-width="0.3" x1="143.8653032363475" x2="146.44561519142675" y1="172.8068346515853" y2="177.08958963109032" /><path d="M 144.38136562736335 173.6633856474863 a86.0,86.0 0 0,1 -40.68145358897372,12.25698825130547" fill="none" id="id54" stroke="none" /><text fill="#e1ed5e" style="font-size:6.75px; font-family:Arial;" text-anchor="middle"><textPath startOffset="21.466115282336833" xlink:href="#id54">June</textPath></text><line stroke="#e1ed5e" stroke-width="0.3" x1="102.19456741930631" x2="102.32365962044197" y1="184.97166512339345" y2="189.96999836594603" /><path d="M 102.22038585953345 185.97133177190398 a86.0,86.0 0 0,1 -42.740103519485714,-10.115201625700543" fill="none" id="id55" stroke="none" /><text fill="#e1ed5e" style="font-size:6.75px; font-family:Arial;" text-anchor="middle"><textPath startOffset="22.20632615414155" xlink:href="#id55">July</textPath></text><line stroke="#e1ed5e" stroke-width="0.3" x1="58.666819895761336" x2="56.23545636021788" y1="174.27360380694188" y2="178.64263932499728" /><path d="M 58.180547188652646 175.14741091055294 a86.0,86.0 0 0,1 -31.652253787137756,-30.449443065178592" fill="none" id="id56" stroke="none" /><text fill="#e1ed5e" style="font-size:6.75px; font-family:Arial;" text-anchor="middle"><textPath startOffset="22.20632615414155" xlink:href="#id56">August</textPath></text><line stroke="#e1ed5e" stroke-width="0.3" x1="26.63291911575756" x2="22.317208475507996" y1="142.92168965132927" y2="145.44649492493687" /><path d="M 25.769776987707644 143.4266507060508 a86.0,86.0 0 0,1 -11.730757126820373,-40.83630448921669" fill="none" id="id57" stroke="none" /><text fill="#e1ed5e" style="font-size:6.75px; font-family:Arial;" text-anchor="middle"><textPath startOffset="21.46611528233685" xlink:href="#id57">September</textPath></text><line stroke="#e1ed5e" stroke-width="0.3" x1="15.007084014347285" x2="10.007500721073583" y1="101.09737516637583" y2="101.16192664675087" /><path d="M 14.007167355692545 101.11028546245083 a86.0,86.0 0 0,1 10.666146001902534,-42.60595125391555" fill="none" id="id58" stroke="none" /><text fill="#e1ed5e" style="font-size:6.75px; font-family:Arial;" text-anchor="middle"><textPath startOffset="22.20632615414155" xlink:href="#id58">October</textPath></text><line stroke="#e1ed5e" stroke-width="0.3" x1="26.266209847984243" x2="21.928928074336255" y1="57.711370442889674" y2="55.22380399835377" /><path d="M 25.398753493254645 57.213857153982495 a86.0,86.0 0 0,1 29.58750427330803,-30.492523968695096" fill="none" id="id59" stroke="none" /><text fill="#e1ed5e" style="font-size:6.75px; font-family:Arial;" text-anchor="middle"><textPath startOffset="21.46611528233685" xlink:href="#id59">November</textPath></text><line stroke="#e1ed5e" stroke-width="0.3" x1="56.762969772571076" x2="54.21961505331055" y1="26.818313649435495" y2="22.513508569990535" /><path d="M 56.25429882871897 25.957352633546506 a86.0,86.0 0 0,1 42.265352541879196,-11.944610805530505" fill="none" id="id60" stroke="none" /><text fill="#e1ed5e" style="font-size:6.75px; font-family:Arial;" text-anchor="middle"><textPath startOffset="22.20632615414155" xlink:href="#id60">December</textPath></text></svg>