<?xml version="1.0" encoding="utf-8" ?>
<svg baseProfile="full" height="200mm" version="1.1" viewBox="0,0,200,200" width="200mm" xmlns="http://www.w3.org/2000/svg" xmlns:ev="http://www.w3.org/2001/xml-events" xmlns:xlink="http://www.w3.org/1999/xlink"><defs /><rect fill="#1a1a1a" height="200" width="200" x="0" y="0" /><text alignment-baseline="middle" fill="#e1ed5e" style="dominant-baseline: central; font-size:9.0px; font-family:Arial;" text-anchor="middle" x="100.0" y="100.0">2025</text><line stroke="#e1ed5e" stroke-width="0.3" x1="100.0" x2="100.0" y1="15.0" y2="10.0" /><path d="M 100.0 14.0 a86.0,86.0 0 0,1 42.46469731375804,11.215312516191453" fill="none" id="id37" stroke="none" /><text fill="#e1ed5e" style="font-size:6.75px; font-family:Arial;" text-anchor="middle"><textPath startOffset="22.20632615414155" xlink:href="#id37">January</textPath></text><path d="M 100.0 79.0 l 0.0 -24.652362699565465 a45.652362699565465,45.652362699565465 0 0,0 0.7858303785029629,0.0067638901632796865 l -0.42434989923043454 24.648710186010746" fill="#e5ff1a" stroke="none" /><path d="M 100.72285384407766 79.0124445844662 l 0.7834753894707885 -22.74765955517075 a43.76114779451725,43.76114779451725 0 0,0 0.7526066529121567,0.032408825624545876 l -1.1749228747722769 22.730803003022007" fill="#feff18" stroke="none" /><path d="M 102.16513564639614 79.11191278185805 l 2.9296305800506777 -28.263531282620733 a49.41495972017643,49.41495972017643 0 0,0 0.8453094702958629,0.0949803682568375 l -3.415706753856266 28.208914960893292" fill="#b7ff1f" stroke="none" /><path d="M 102.88285421437855 79.19881850522331 l 4.386005475345713 -31.64714173707089 a52.949626353934356,52.949626353934356 0 0,0 0.9017347075656791,0.13289225573657443 l -4.930109163340048 31.566954997173344" fill="#8dff24" stroke="none" /><path d="M 103.95276090670814 79.375362276772 l 9.07476134290934 -47.3501103506232 a69.21186828621097,69.21186828621097 0 0,0 1.1681433801985788,0.23431857274547274 l -9.888471132575045 47.18688782180051" fill="#39ff8e" stroke="none" /><path d="M 106.40334571778207 80.00007090966166 l 6.537531458996708 -20.419038947514196 a42.44006691028443,42.44006691028443 0 0,0 0.6938287616896103,0.2287444340839961 l -6.888043042928736 20.303480789170962" fill="#ffef16" stroke="none" /><path d="M 107.08798089147638 80.2323363322302 l 7.110584763846144 -19.830703587520706 a42.066969892700456,42.066969892700456 0 0,0 0.6795171280379475,0.25027189293731994 l -7.450884217656668 19.70536842677706" fill="#ffea16" stroke="none" /><path d="M 108.09893153111575 80.62456947434976 l 13.198910996853346 -31.57633597114034 a55.22391334820125,55.22391334820125 0 0,0 0.8738953982851185,0.37415640280590523 l -13.740490152928778 31.344460040371647" fill="#73ff27" stroke="none" /><path d="M 108.43124777332544 80.76684994638697 l 12.946571503545227 -29.533392814679967 a53.246472750404806,53.246472750404806 0 0,0 0.8362685162692775,0.37520930660787755 l -13.453022138281286 29.306163177555558" fill="#8aff24" stroke="none" /><path d="M 109.73455568895987 81.39251694778311 l 7.562343179196031 -14.45532564999622 a37.313965612547165,37.313965612547165 0 0,0 0.5665591794872821,0.30263629249518037 l -7.810047405211624 14.323010630999285" fill="#ffaa0f" stroke="none" /><line stroke="#e1ed5e" stroke-width="0.3" x1="143.23703022742887" x2="145.7803849466894" y1="26.81831364943548" y2="22.513508569990506" /><path d="M 143.74570117128098 25.957352633546492 a86.0,86.0 0 0,1 28.547481713284135,27.462654790039103" fill="none" id="id38" stroke="none" /><text fill="#e1ed5e" style="font-size:6.75px; font-family:Arial;" text-anchor="middle"><textPath startOffset="19.985693538727396" xlink:href="#id38">February</textPath></text><path d="M 110.68208982089419 81.91981866633111 l 13.712593499217324 -23.20951997012739 a47.95768976968389,47.95768976968389 0 0,0 0.7071199985362125,0.42603188709840206 l -14.110075563971174 22.970041473570372" fill="#c9ff1d" stroke="none" /><path d="M 110.99172775467656 82.1063720568725 l 24.227631128879253 -39.44058905380487 a67.28755961409233,67.28755961409233 0 0,0 0.9816961690174989,0.6147380509777782 l -24.902946450269013 39.01770666150415" fill="#37ff77" stroke="none" /><path d="M 111.60114157652 82.49532879139004 l 10.271157251155463 -15.497891257296336 a39.59250668148181,39.59250668148181 0 0,0 0.564844244688075,0.3813853554237658 l -10.53640619025008 15.3187939895739" fill="#ffc912" stroke="none" /><path d="M 113.06298171725822 83.55741782278167 l 22.58235286139284 -28.424765548575504 a57.30330504579359,57.30330504579359 0 0,0 0.7670363952092774,0.6202234211201199 l -23.068292655166612 28.031836030191258" fill="#5cff2a" stroke="none" /><path d="M 113.6212207817346 84.01681056812373 l 13.03129115492332 -15.290963887052515 a41.09049839500073,41.09049839500073 0 0,0 0.5343842823033277,0.46341278370328504 l -13.292569235873414 15.064386109929558" fill="#ffdd14" stroke="none" /><path d="M 113.89432698308785 84.25364557470407 l 22.898247221636403 -25.95044127785482 a55.60859905194908,55.60859905194908 0 0,0 0.712290578102588,0.6395015139045909 l -23.341548787334983 25.552440755180932" fill="#6fff27" stroke="none" /><path d="M 114.68862486808459 84.99185889309783 l 12.697976449026102 -12.974190847039809 a39.154014267798544,39.154014267798544 0 0,0 0.477612225483231,0.47556120680234054 l -12.919424474676656 12.75369378958735" fill="#ffc312" stroke="none" /><path d="M 114.94478906791727 85.2469230424477 l 44.8343672037518 -44.25923087265689 a84.0,84.0 0 0,0 1.0069429451875638,1.0377432177995427 l -45.58957441264248 43.480923459307235" fill="#4dd2ff" stroke="none" /><path d="M 115.4437574822437 85.77008943001954 l 20.433694827810708 -18.827649317099695 a48.78518063867469,48.78518063867469 0 0,0 0.5637159202699935,0.6224691987944974 l -20.75475438869674 18.47312733103565" fill="#bfff1e" stroke="none" /><path d="M 115.9244219780498 86.31012108654704 l 12.283208440577233 -10.559606901399066 a37.1982254431386,37.1982254431386 0 0,0 0.41323577109512905,0.48914081170483736 l -12.46315482515948 10.346607140065121" fill="#ffa90f" stroke="none" /><path d="M 116.60985879189232 87.15038557335679 l 21.25481921212154 -16.44301947449938 a47.872666953221014,47.872666953221014 0 0,0 0.4986144794432104,0.6561182080149497 l -21.53470963178886 16.074716490603397" fill="#caff1d" stroke="none" /><line stroke="#e1ed5e" stroke-width="0.3" x1="172.23445277983987" x2="176.4835382374775" y1="55.19839476539836" y2="52.563006222186495" /><path d="M 173.08426987136738 54.67131705675599 a86.0,86.0 0 0,1 12.851231095245387,41.99856678651699" fill="none" id="id39" stroke="none" /><text fill="#e1ed5e" style="font-size:6.75px; font-family:Arial;" text-anchor="middle"><textPath startOffset="22.20632615414155" xlink:href="#id39">March</textPath></text><path d="M 120.67395015179393 96.31383870115 l 4.6647956817055 -0.8317321645207366 a25.738364395607057,25.738364395607057 0 0,0 0.07401390063642287,0.4368342312428569 l -4.678421443862146 0.7513121449620418" fill="#ff0000" stroke="none" /><path d="M 120.94382443527127 98.46500227214037 l 10.221793161416038 -0.7491673417105558 a31.24921007398411,31.24921007398411 0 0,0 0.034700624309722594,0.5368032992115479 l -10.233174376730176 0.5731049782459726" fill="#ff5307" stroke="none" /><line stroke="#e1ed5e" stroke-width="0.3" x1="184.98032266829074" x2="189.97916517819016" y1="98.17113171792111" y2="98.06355123074" /><path d="M 185.9800911702706 98.14961562048488 a86.0,86.0 0 0,1 -9.607161424134198,41.387399972396054" fill="none" id="id40" stroke="none" /><text fill="#e1ed5e" style="font-size:6.75px; font-family:Arial;" text-anchor="middle"><textPath startOffset="21.466115282336823" xlink:href="#id40">April</textPath></text><path d="M 120.81339534386255 102.79330883721812 l 20.143288984780796 2.703375696383835 a41.32388573280686,41.32388573280686 0 0,0 -0.10068456329526625,0.7041876011832903 l -20.093770370468928 -3.0497087695475344" fill="#ffe115" stroke="none" /><path d="M 120.32669344350535 105.2749913415812 l 20.561363317139516 5.335890648937352 a42.242443138133325,42.242443138133325 0 0,0 -0.18870689765768475,0.702248566873271 l -20.466468343140054 -5.689030148986172" fill="#ffed16" stroke="none" /><path d="M 118.97047184881838 109.00673069616215 l 16.11073032948483 7.64899315908159 a38.83431322190623,38.83431322190623 0 0,0 -0.29189856541343046,0.6013975022508397 l -15.976678507456684 -7.9251796172977045" fill="#ffbf11" stroke="none" /><line stroke="#e1ed5e" stroke-width="0.3" x1="174.80103733775053" x2="179.2010983576182" y1="140.37084112569926" y2="142.7455964860345" /><path d="M 175.68104954172406 140.8457921977663 a86.0,86.0 0 0,1 -30.038265399797805,32.042727171017184" fill="none" id="id41" stroke="none" /><text fill="#e1ed5e" style="font-size:6.75px; font-family:Arial;" text-anchor="middle"><textPath startOffset="22.206326154141568" xlink:href="#id41">May</textPath></text><path d="M 117.94076556474637 110.91462005526583 l 18.739812986314586 11.400736379626826 a42.93529987850158,42.93529987850158 0 0,0 -0.3895568015863985,0.6280896017432291 l -18.540791545060227 -11.72162231273533" fill="#fff617" stroke="none" /><path d="M 117.75023020441432 111.22182372390056 l 9.15300064962154 5.786593111860387 a31.828761735960505,31.828761735960505 0 0,0 -0.2967579406015095,0.46057491394309313 l -9.052037845642978 -5.943289625724932" fill="#ff5c08" stroke="none" /><path d="M 117.14729908036423 112.12312394758627 l 20.372242095926566 14.40315555596563 a45.949531818941736,45.949531818941736 0 0,0 -0.46216522147812944,0.6419070705205459 l -20.121297082072836 -14.751696231937308" fill="#e2ff1b" stroke="none" /><path d="M 116.27256486870786 113.27417163493432 l 21.502671382695407 17.540575370043328 a48.749534426803606,48.749534426803606 0 0,0 -0.5360220239274462,0.6456730581790535 l -21.197553358874416 -17.908109685336154" fill="#bfff1e" stroke="none" /><path d="M 115.32070863581623 114.36230785411682 l 15.927657136434853 14.93128814247636 a42.831940533298436,42.831940533298436 0 0,0 -0.5088708835611305,0.5335490869748631 l -15.668279701494757 -15.20324434603373" fill="#fff417" stroke="none" /><path d="M 115.07121518719521 114.62390073753431 l 13.167536009282088 12.776722856512151 a39.34744264217388,39.34744264217388 0 0,0 -0.4758405685271259,0.48202398367856114 l -12.945654815699427 -13.001487334171378" fill="#ffc612" stroke="none" /><path d="M 114.29624159901734 115.38237550388516 l 12.885493764435987 13.8644483771979 a39.927727765299885,39.927727765299885 0 0,0 -0.5074632633010926,0.46355565918770675 l -12.64493095166803 -14.08419680297219" fill="#ffce13" stroke="none" /><path d="M 112.63410532772338 116.77436683061366 l 11.469099296603899 15.227582312125177 a40.06356477020779,40.06356477020779 0 0,0 -0.554432098134843,0.41015561160069314 l -11.205282228050491 -15.42274787246564" fill="#ffd013" stroke="none" /><path d="M 112.34349029814194 116.9893568818739 l 11.245876265679831 15.47862077193759 a40.132627472055134,40.132627472055134 0 0,0 -0.5623778822212823,0.40124168690601425 l -10.977771055609665 -15.669906720687825" fill="#ffd113" stroke="none" /><path d="M 111.7513745106137 117.40417183066458 l 16.24173023225933 24.05453621908087 a50.02437792016497,50.02437792016497 0 0,0 -0.7177909879590284,0.4757127268729858 l -15.825264545560337 -24.330546967045173" fill="#b0ff20" stroke="none" /><path d="M 111.45004920935366 117.60387380957326 l 6.4398258607978835 9.900907824614642 a32.81098356907318,32.81098356907318 0 0,0 -0.4761001802969406,0.3038696609658962 l -6.268443878454012 -10.010291914404347" fill="#ff6a09" stroke="none" /><path d="M 111.1453310114006 117.79835938074945 l 18.708995127623158 29.877032686917183 a56.251433741913885,56.251433741913885 0 0,0 -0.825076744101859,0.5068295248290204 l -18.191939183588993 -30.19465067857458" fill="#68ff28" stroke="none" /><line stroke="#e1ed5e" stroke-width="0.3" x1="143.8653032363475" x2="146.44561519142675" y1="172.8068346515853" y2="177.08958963109032" /><path d="M 144.38136562736335 173.6633856474863 a86.0,86.0 0 0,1 -40.68145358897372,12.25698825130547" fill="none" id="id42" stroke="none" /><text fill="#e1ed5e" style="font-size:6.75px; font-family:Arial;" text-anchor="middle"><textPath startOffset="21.466115282336833" xlink:href="#id42">June</textPath></text><path d="M 110.5260780823613 118.17145234162733 l 10.841347736649688 18.715710844446427 a42.62897716397816,42.62897716397816 0 0,0 -0.6381176922087896,0.3623398794849133 l -10.517581277519698 -18.89955388972597" fill="#fff216" stroke="none" /><path d="M 110.21172684928248 118.3499491758327 l 10.98264017351804 19.735240863270317 a43.58535182617855,43.58535182617855 0 0,0 -0.6587141145861051,0.35918345618378844 l -10.641303247063288 -19.921364971213876" fill="#fffe18" stroke="none" /><path d="M 109.57404056367764 118.69057910512821 l 11.244206388837096 21.951100748649807 a45.663393955255614,45.663393955255614 0 0,0 -0.702664158027786,0.35233039590377097 l -10.86468832312655 -22.14139898546288" fill="#e5ff1a" stroke="none" /><path d="M 108.59647513512805 119.15986991738527 l 2.845041575899379 6.341043933348496 a27.95004314614318,27.95004314614318 0 0,0 -0.44065149657675035,0.19316866654546475 l -2.7354694046648746 -6.389077153188415" fill="#ff2203" stroke="none" /><path d="M 108.2653958097858 119.30500536409082 l 10.570296180819849 24.688427410718774 a47.85609073123981,47.85609073123981 0 0,0 -0.7600653378927378,0.3177073728822885 l -10.14375938342965 -24.866719826621036" fill="#caff1d" stroke="none" /><path d="M 107.2578585660854 119.70592522655815 l 5.871237219631978 15.941087937162136 a37.98792839370145,37.98792839370145 0 0,0 -0.615549950694043,0.2207143121006396 l -5.5959677083082 -16.039789790302734" fill="#ffb410" stroke="none" /><path d="M 106.57524785965236 119.94407469862006 l 6.347861907711634 19.254366491762816 a41.27377566706545,41.27377566706545 0 0,0 -0.676651427127408,0.21664241901840453 l -6.015489135493286 -19.36078175744093" fill="#ffe015" stroke="none" /><path d="M 105.88484417918355 120.15858648285463 l 4.0058348441074045 13.722023163606508 a35.29477640611488,35.29477640611488 0 0,0 -0.584664411447824,0.16523200273011057 l -3.769039264554975 -13.788943959675137" fill="#ff8e0d" stroke="none" /><path d="M 105.53697534728816 120.25689768951611 l 7.801868035983585 28.54295579795736 a50.59002315874474,50.59002315874474 0 0,0 -0.8419855520175697,0.22237603697543648 l -7.309392041154518 -28.67302318423638" fill="#a9ff21" stroke="none" /><path d="M 104.83641907484287 120.43548508189849 l 4.3830213266853 18.51972824295225 a40.0313218180709,40.0313218180709 0 0,0 -0.6719159206685663,0.1529258759737408 l -4.063585256623872 -18.592430852503675" fill="#ffcf13" stroke="none" /><path d="M 104.13013068566511 120.58985236759428 l 6.073727253504522 30.279222859640104 a51.88238170435881,51.88238170435881 0 0,0 -0.8771393208666605,0.16810583845327393 l -5.551620318066157 -30.379285896441846" fill="#9aff23" stroke="none" /><path d="M 103.41894727170886 120.7198165907248 l 3.2092666738063746 19.4490910761422 a40.71209111869358,40.71209111869358 0 0,0 -0.692423755480931,0.10814235019236143 l -2.8740070547169263 -19.501451733681666" fill="#ffd814" stroke="none" /><path d="M 102.70371172650421 120.8252237178851 l 4.294247706761123 33.07625895048476 a54.35385239408704,54.35385239408704 0 0,0 -0.9288622417024247,0.11247228178692244 l -3.724258042007318 -33.14527676099703" fill="#7dff26" stroke="none" /><path d="M 101.98527174616119 120.90594882070398 l 2.5767383219712015 27.134400913950635 a48.25647250358931,48.25647250358931 0 0,0 -0.8276115608531781,0.07140980787824558 l -2.1092824433764816 -27.174734974107544" fill="#c5ff1e" stroke="none" /><path d="M 101.26447882468166 120.96189622390904 l 2.8625473484277606 47.45387529037904 a68.54013522695152,68.54013522695152 0 0,0 -1.17827650521348,0.06090343656570136 l -2.045282774800801 -47.49611853370694" fill="#39ff86" stroke="none" /><line stroke="#e1ed5e" stroke-width="0.3" x1="102.19456741930631" x2="102.32365962044197" y1="184.97166512339345" y2="189.96999836594603" /><path d="M 102.22038585953345 185.97133177190398 a86.0,86.0 0 0,1 -42.740103519485714,-10.115201625700543" fill="none" id="id43" stroke="none" /><text fill="#e1ed5e" style="font-size:6.75px; font-family:Arial;" text-anchor="middle"><textPath startOffset="22.20632615414155" xlink:href="#id43">July</textPath></text><path d="M 100.54218724476979 120.99299961872073 l 0.5315035942996836 20.579338337661248 a41.58620077835363,41.58620077835363 0 0,0 -0.7157585383578052,0.012322432343653985 l -0.17718536604921054 -20.585438247284063" fill="#ffe415" stroke="none" /><path d="M 100.18074693466247 120.99922214144158 l 0.2886367996100129 33.53389248080118 a54.53513465182483,54.53513465182483 0 0,0 -0.9387674685449136,0.0 l 0.2886367996099898 -33.53389248080118" fill="#7bff26" stroke="none" /><path d="M 99.45781275523022 120.99299961872073 l -0.6058692551051141 23.45870944790842 a44.46653205132086,44.46653205132086 0 0,0 -0.7649930029404484,-0.026347905790816518 l 1.0095826097202054 -23.444804743691506" fill="#f4ff19" stroke="none" /><path d="M 98.73552117531835 120.96189622390904 l -1.2046782783524137 19.97055273770864 a41.00685448549912,41.00685448549912 0 0,0 -0.7042189900376453,-0.04856706463019812 l 1.548260029168989 -19.946857328562157" fill="#ffdc14" stroke="none" /><path d="M 97.2962882734958 120.8252237178851 l -2.518533511859396 19.398896454570437 a40.5617022445774,40.5617022445774 0 0,0 -0.6916183745988622,-0.09585200467841601 l 2.852080477645089 -19.35266988439942" fill="#ffd614" stroke="none" /><path d="M 96.58105272829116 120.7198165907248 l -2.608348940096242 15.807354530037323 a37.02110924473061,37.02110924473061 0 0,0 -0.6278621968931622,-0.10916189091251613 l 2.8800601084614543 -15.7601140606038" fill="#ffa60f" stroke="none" /><path d="M 96.22490169976321 120.6578951692458 l -3.9951097408242235 21.86183024966603 a43.22387283320442,43.22387283320442 0 0,0 -0.7307559371153463,-0.1400511145619412 l 4.370833292511265 -21.789821936755622" fill="#fff917" stroke="none" /><path d="M 95.86986931433489 120.58985236759428 l -2.8365063596466276 14.14077462187163 a35.42245732303911,35.42245732303911 0 0,0 -0.5967984694306849,-0.12506492183203258 l 3.0794962905066994 -14.089853719313057" fill="#ff900d" stroke="none" /><path d="M 95.51606077576429 120.51570834832081 l -3.965128124348943 18.141952442884172 a39.57020946253364,39.57020946253364 0 0,0 -0.6641762628498566,-0.1511643550523608 l 4.276824536591662 -18.071011354254125" fill="#ffc912" stroke="none" /><path d="M 94.81253420990036 120.34920634021253 l -3.5256769076578816 13.83040000375108 a35.27271389473459,35.27271389473459 0 0,0 -0.5870547911517008,-0.15504650600113135 l 3.7632221416210716 -13.767662148446368" fill="#ff8e0d" stroke="none" /><path d="M 94.11515582081647 120.15858648285463 l -3.9874432758433507 13.659022681670638 a35.22914630244771,35.22914630244771 0 0,0 -0.5806518649706206,-0.17494564375576913 l 4.221970115254217 -13.588361668809144" fill="#ff8d0d" stroke="none" /><path d="M 93.08242187328487 119.8279376855182 l -6.1866614033126295 17.73290225845757 a39.7811235507157,39.7811235507157 0 0,0 -0.6446065809752698,-0.23113298593409845 l 6.490987544917626 -17.623781731483515" fill="#ffcc13" stroke="none" /><path d="M 92.7421414339146 119.70592522655815 l -10.033179903266449 27.241243564906387 a50.0301575940239,50.0301575940239 0 0,0 -0.8055564829807407,-0.30459253313508894 l 10.500606607007473 -27.064502781664665" fill="#b0ff20" stroke="none" /><path d="M 92.06813273071674 119.44442032107085 l -8.303842826920329 20.356292500257414 a42.9848231753233,42.9848231753233 0 0,0 -0.6826983494012019,-0.28536796541817894 l 8.653012635818992 -20.210339491819262" fill="#fff617" stroke="none" /><path d="M 91.40352486487194 119.15986991738527 l -14.406064476982127 32.1083138218524 a56.19202338879542,56.19202338879542 0 0,0 -0.8790894317050001,-0.40354684148192627 l 14.956621904454547 -31.855579910036393" fill="#69ff28" stroke="none" /><path d="M 91.07499286063937 119.00905698771935 l -10.27488063184855 21.884104788157607 a45.17617038279221,45.17617038279221 0 0,0 -0.7010638874292684,-0.33655326954833187 l 10.65005718727806 -21.703997242109715" fill="#ebff1a" stroke="none" /><path d="M 90.42595943632237 118.69057910512821 l -15.866236490636028 30.974294108797103 a55.80149933429669,55.80149933429669 0 0,0 -0.8511298994969967,-0.4452709365335284 l 16.39705729265952 -30.696593753318858" fill="#6dff28" stroke="none" /><line stroke="#e1ed5e" stroke-width="0.3" x1="58.666819895761336" x2="56.23545636021788" y1="174.27360380694188" y2="178.64263932499728" /><path d="M 58.180547188652646 175.14741091055294 a86.0,86.0 0 0,1 -31.652253787137756,-30.449443065178592" fill="none" id="id44" stroke="none" /><text fill="#e1ed5e" style="font-size:6.75px; font-family:Arial;" text-anchor="middle"><textPath startOffset="22.20632615414155" xlink:href="#id44">August</textPath></text><path d="M 89.7882731507175 118.34994917583269 l -13.378168561878374 24.03988246056931 a48.51165830676186,48.51165830676186 0 0,0 -0.726176171782269,-0.41234178237188 l 13.789993500581849 -23.806037512402796" fill="#c2ff1e" stroke="none" /><path d="M 89.1626897886671 117.98757091392108 l -20.28230797855797 33.66420688786646 a60.30204628675398,60.30204628675398 0 0,0 -0.8844897401411863,-0.5433258395858489 l 20.858776918631463 -33.31009258145224" fill="#3cff2e" stroke="none" /><path d="M 88.8546689885994 117.79835938074946 l -14.328432270795208 22.881562392133322 a47.99759005622271,47.99759005622271 0 0,0 -0.6964637689534614,-0.4445161293888272 l 14.720177841795593 -22.63153183392069" fill="#c8ff1d" stroke="none" /><path d="M 88.24862548938628 117.40417183066458 l -22.421417216419268 33.20685572305896 a61.06763303471763,61.06763303471763 0 0,0 -0.8661225748460191,-0.5957270047063775 l 22.98969667588818 -32.815987928987475" fill="#34ff2f" stroke="none" /><path d="M 87.65650970185807 116.9893568818739 l -18.11321824150601 24.930706109157548 a51.816047477988015,51.816047477988015 0 0,0 -0.7170724843146935,-0.5304730811140631 l 18.53967569623927 -24.615223079303718" fill="#9aff22" stroke="none" /><path d="M 87.07902340077011 116.55440617244103 l -26.71258277129627 34.22426638690342 a64.41500302931098,64.41500302931098 0 0,0 -0.8681992363826264,-0.6897499814547053 l 27.297739500396254 -33.75938249144358" fill="#33ff54" stroke="none" /><path d="M 86.79598089348748 116.32954008644616 l -12.21870741270738 15.110995439407635 a40.43293580515174,40.43293580515174 0 0,0 -0.5374304844691836,-0.44226870063702967 l 12.477008025721252 -14.898431619913424" fill="#ffd513" stroke="none" /><path d="M 86.24171649860922 115.8653595955263 l -16.76023572750713 19.327059708851632 a46.582039375920026,46.582039375920026 0 0,0 -0.6012579995261698,-0.5305402775129564 l 17.090436079939888 -19.03569628956639" fill="#daff1c" stroke="none" /><path d="M 85.70375840098266 115.38237550388516 l -13.441597378757574 14.462801066981099 a40.744598116844315,40.744598116844315 0 0,0 -0.5096259936877334,-0.4818831862824335 l 13.688559206836125 -14.229283243952734" fill="#ffd914" stroke="none" /><path d="M 85.18274418774928 114.88116024355367 l -20.70463906996089 20.793934834430612 a50.34399095071933,50.34399095071933 0 0,0 -0.60882516543117,-0.6167366782392354 l 21.059504860447593 -20.434457662210715" fill="#acff21" stroke="none" /><path d="M 84.67929136418377 114.36230785411682 l -17.22825495087906 16.15052588463737 a44.61466186509624,44.61466186509624 0 0,0 -0.5204057942814901,-0.5647977082999123 l 17.503707153156277 -15.851576921536115" fill="#f3ff19" stroke="none" /><path d="M 84.19399662182784 113.82643327865904 l -21.327707215488626 18.656589761897763 a49.33618599270823,49.33618599270823 0 0,0 -0.5536400846852818,-0.644008496220355 l 21.645689809744688 -18.28670416651588" fill="#b8ff1f" stroke="none" /><path d="M 83.28015986056508 112.70617746262583 l -22.358615575806223 16.99134291689618 a49.08226174271301,49.08226174271301 0 0,0 -0.5054041003325975,-0.6770713843531898 l 22.647780942833904 -16.603958653033683" fill="#bbff1f" stroke="none" /><path d="M 82.24976979558568 111.22182372390057 l -39.936288278938804 25.248009861960817 a68.24795364339259,68.24795364339259 0 0,0 -0.6192213542556404,-0.9983819874315994 l 40.3649742728624 -24.556831543163952" fill="#38ff82" stroke="none" /><line stroke="#e1ed5e" stroke-width="0.3" x1="26.63291911575756" x2="22.317208475507996" y1="142.92168965132927" y2="145.44649492493687" /><path d="M 25.769776987707644 143.4266507060508 a86.0,86.0 0 0,1 -11.730757126820373,-40.83630448921669" fill="none" id="id45" stroke="none" /><text fill="#e1ed5e" style="font-size:6.75px; font-family:Arial;" text-anchor="middle"><textPath startOffset="21.46611528233685" xlink:href="#id45">September</textPath></text><path d="M 81.87401531095188 110.60418214915194 l -16.548084621426067 9.681068728432052 a40.171911651228285,40.171911651228285 0 0,0 -0.3440399105341175,-0.5998625832266019 l 16.71227652811256 -9.394786299347142" fill="#ffd113" stroke="none" /><path d="M 81.51974371655577 109.97397251340807 l -20.204515530718997 10.904571855459126 a43.95935833558805,43.95935833558805 0 0,0 -0.3536582538495737,-0.6689881366905943 l 20.389226292793456 -10.555168703682407" fill="#fbff18" stroke="none" /><path d="M 81.35079622478065 109.6543875284942 l -23.858919117150016 12.351371883985731 a47.86641786422633,47.86641786422633 0 0,0 -0.37249493713991777,-0.7349678495809114 l 24.0679927240762 -11.938849822702133" fill="#caff1d" stroke="none" /><path d="M 80.73074385275274 108.34839909993369 l -20.794830642142774 9.009353764854001 a43.66259995445556,43.66259995445556 0 0,0 -0.29284925534180495,-0.6922091333564699 l 20.946830878676884 -8.650070105831373" fill="#ffff18" stroke="none" /><path d="M 79.4281124754447 104.21870165774334 l -19.569271065701127 4.01309389754146 a40.97651853235122,40.97651853235122 0 0,0 -0.13574948289140573,-0.692183688661769 l 19.6354504815682 -3.6756464818117367" fill="#ffdc14" stroke="none" /><path d="M 79.23777060512086 103.15116336523772 l -18.84217908180845 2.8597499485526208 a40.057961127024754,40.057961127024754 0 0,0 -0.09760017120973374,-0.6826153701209002 l 18.88861330403478 -2.5349891064513197" fill="#ffd013" stroke="none" /><path d="M 79.18660465613746 102.79330883721812 l -30.726629119988587 4.12373681664088 a52.00211190242126,52.00211190242126 0 0,0 -0.1114293595993082,-0.8882016323313303 l 30.793059988834745 -3.5942174300221414" fill="#98ff23" stroke="none" /><path d="M 79.1416061653843 102.43462659150553 l -27.160857494244652 3.170260683918987 a48.345250641138186,48.345250641138186 0 0,0 -0.0893643506306562,-0.8274028999917695 l 27.21140414637636 -2.7022614620424354" fill="#c4ff1e" stroke="none" /><path d="M 79.04373962182676 101.35467743843564 l -36.383241601953195 2.351925183495712 a57.45918020930886,57.45918020930886 0 0,0 -0.055307605097193145,-0.9875544425580304 l 36.418335557937915 -1.725299024602244" fill="#5bff2a" stroke="none" /><path d="M 79.0095281055655 100.63252640178507 l -24.75598534832791 0.7459962984049798 a45.7672227155945,45.7672227155945 0 0,0 -0.016951170922056995,-0.7876543044008194 l 24.765158581934976 -0.3197521782140315" fill="#e4ff1a" stroke="none" /><line stroke="#e1ed5e" stroke-width="0.3" x1="15.007084014347285" x2="10.007500721073583" y1="101.09737516637583" y2="101.16192664675087" /><path d="M 14.007167355692545 101.11028546245083 a86.0,86.0 0 0,1 10.666146001902534,-42.60595125391555" fill="none" id="id46" stroke="none" /><text fill="#e1ed5e" style="font-size:6.75px; font-family:Arial;" text-anchor="middle"><textPath startOffset="22.20632615414155" xlink:href="#id46">October</textPath></text><path d="M 79.00019446554 99.90962569577889 l -38.60369783460206 -0.16613403045278444 a59.60405531833844,59.60405531833844 0 0,0 0.013246271520284477,-1.0259383271493923 l 38.59511855596406 0.8306086156626487" fill="#44ff2d" stroke="none" /><path d="M 79.01574976396665 99.18683210126434 l -25.678975562584192 -0.9950948146841191 a46.698248960464355,46.698248960464355 0 0,0 0.03803993054891954,-0.8029628114179662 l 25.658042023801773 1.4369687327250944" fill="#d8ff1c" stroke="none" /><path d="M 79.08570108090925 98.10471618934814 l -56.87642146181243 -5.154223013709856 a78.10948549213846,78.10948549213846 0 0,0 0.1328712063457831,-1.3379949150290242 l 56.779273129784414 6.132493459443311" fill="#45fff1" stroke="none" /><path d="M 79.16333360222342 97.38593545837743 l -29.98403119054796 -3.761647436966217 a51.21906877909687,51.21906877909687 0 0,0 0.11727703578242696,-0.8738501371466223 l 29.9148381557077 4.277215916177498" fill="#a1ff22" stroke="none" /><path d="M 79.21141760316559 97.0276538004421 l -19.374900746411708 -2.7702183583801165 a40.57194136222596,40.57194136222596 0 0,0 0.10479946241080794,-0.690497516896931 l 19.3243453905616 3.10331498766914" fill="#ffd714" stroke="none" /><path d="M 79.32604984820605 96.31383870115002 l -34.99224965047861 -6.239111320005699 a56.544114079054545,56.544114079054545 0 0,0 0.17909480072031023,-0.9567315867973939 l 34.87966912584844 6.840520984265665" fill="#65ff29" stroke="none" /><path d="M 79.46518482838121 95.60439243477599 l -19.96146492206524 -4.272878304044979 a41.413661377519205,41.413661377519205 0 0,0 0.15521369548608047,-0.6957925625168802 l 19.88495683957712 4.615849036111818" fill="#ffe215" stroke="none" /><path d="M 79.62865764111835 94.90015583598534 l -10.268798586727703 -2.5707325330543496 a31.58569271097952,31.58569271097952 0 0,0 0.13657603612258268,-0.5262831800517587 l 10.223026218734814 2.747112138654972" fill="#ff5808" stroke="none" /><line stroke="#e1ed5e" stroke-width="0.3" x1="26.266209847984243" x2="21.928928074336255" y1="57.711370442889674" y2="55.22380399835377" /><path d="M 25.398753493254645 57.213857153982495 a86.0,86.0 0 0,1 29.58750427330803,-30.492523968695096" fill="none" id="id47" stroke="none" /><text fill="#e1ed5e" style="font-size:6.75px; font-family:Arial;" text-anchor="middle"><textPath startOffset="21.46611528233685" xlink:href="#id47">November</textPath></text><line stroke="#e1ed5e" stroke-width="0.3" x1="56.762969772571076" x2="54.21961505331055" y1="26.818313649435495" y2="22.513508569990535" /><path d="M 56.25429882871897 25.957352633546506 a86.0,86.0 0 0,1 42.265352541879196,-11.944610805530505" fill="none" id="id48" stroke="none" /><text fill="#e1ed5e" style="font-size:6.75px; font-family:Arial;" text-anchor="middle"><textPath startOffset="22.20632615414155" xlink:href="#id48">December</textPath></text></svg>