<?xml version="1.0" encoding="utf-8" ?>
<svg baseProfile="full" height="200mm" version="1.1" viewBox="0,0,200,200" width="200mm" xmlns="http://www.w3.org/2000/svg" xmlns:ev="http://www.w3.org/2001/xml-events" xmlns:xlink="http://www.w3.org/1999/xlink"><defs /><rect fill="#1a1a1a" height="200" width="200" x="0" y="0" /><text alignment-baseline="middle" fill="#e1ed5e" style="dominant-baseline: central; font-size:9.0px; font-family:Arial;" text-anchor="middle" x="100.0" y="100.0">2026</text><line stroke="#e1ed5e" stroke-width="0.3" x1="100.0" x2="100.0" y1="15.0" y2="10.0" /><path d="M 100.0 14.0 a86.0,86.0 0 0,1 42.46469731375804,11.215312516191453" fill="none" id="id49" stroke="none" /><text fill="#e1ed5e" style="font-size:6.75px; font-family:Arial;" text-anchor="middle"><textPath startOffset="22.20632615414155" xlink:href="#id49">January</textPath></text><path d="M 100.0 79.0 l 0.0 -17.917234376329027 a38.91723437632903,38.91723437632903 0 0,0 0.6698962159198445,0.0057660082242053925 l -0.3084157366473161 17.914579744713382" fill="#ff8d0d" stroke="none" /><path d="M 100.72285384407766 79.0124445844662 l 0.5872244221176015 -17.049650080056693 a38.05975968102448,38.05975968102448 0 0,0 0.6545538631362325,0.02818646623727231 l -0.8806191176431655 17.037015887295226" fill="#ff800b" stroke="none" /><path d="M 101.80526077348638 79.07773832637324 l 1.1421256259721209 -13.23678637551907 a34.285968707498505,34.285968707498505 0 0,0 0.5875551729142328,0.055795443397542874 l -1.3698059259765978 13.21516538760635" fill="#ff4406" stroke="none" /><path d="M 102.16513564639614 79.11191278185805 l 1.810051053749747 -17.462418275246034 a38.55597723958502,38.55597723958502 0 0,0 0.6595519430085776,0.0741083456802412 l -2.1103697002680497 17.42867397609519" fill="#ff870c" stroke="none" /><path d="M 102.52436894288641 79.15227682838746 l 1.5409129418373009 -12.725765199062945 a33.81871727576528,33.81871727576528 0 0,0 0.5773100973390053,0.07495141954533785 l -1.7597377676841521 12.69735545635347" fill="#ff3d05" stroke="none" /><path d="M 103.2404852339499 79.25152402106235 l 3.633346838762783 -23.263926284067143 a44.54594392674156,44.54594392674156 0 0,0 0.7565827230306696,0.12484263195098434 l -4.033258767932328 23.197937389176534" fill="#ffe015" stroke="none" /><path d="M 103.95276090670814 79.375362276772 l 2.557736309283754 -13.345705954792 a34.58859383672936,34.58859383672936 0 0,0 0.5837790240492974,0.11710058031636723 l -2.7870817428001766 13.299701418398424" fill="#ff4906" stroke="none" /><path d="M 105.01212808612495 79.60689891045804 l 4.462548108091352 -18.15699701234299 a39.69734944111764,39.69734944111764 0 0,0 0.6621727929518094,0.1688025888156797 l -4.7744297897281855 18.077491427358446" fill="#ff990e" stroke="none" /><path d="M 105.71112130821622 79.79150937346287 l 3.547502658151392 -12.552644278757079 a34.044295822259016,34.044295822259016 0 0,0 0.5625573181448258,0.16422590750384952 l -3.763050194019645 12.489720042334525" fill="#ff4006" stroke="none" /><path d="M 106.0581310904928 79.89281104454417 l 7.317561467003277 -24.287290735768632 a46.36570907952553,46.36570907952553 0 0,0 0.7621962370900797,0.2368180810450571 l -7.7345430768040755 24.157732519841055" fill="#fffa17" stroke="none" /><path d="M 106.74666289553966 80.11325718540242 l 5.438104877317445 -16.029583035120705 a37.926916935358705,37.926916935358705 0 0,0 0.6164352038302533,0.21506213859386047 l -5.713222085210972 15.933600043354637" fill="#ff7e0b" stroke="none" /><path d="M 107.4271985657038 80.35727306442388 l 6.686263866395526 -17.683175451008186 a39.905047435068894,39.905047435068894 0 0,0 0.6404129898621463,0.24847029065376566 l -6.98966002125734 17.565462456463873" fill="#ff9c0e" stroke="none" /><path d="M 108.09893153111575 80.62456947434976 l 11.682258175923922 -27.94798064419993 a51.29133173331135,51.29133173331135 0 0,0 0.8116639342640184,0.34751213763964883 l -12.161605867978256 27.742748978597493" fill="#c1ff1e" stroke="none" /><path d="M 109.08828744355905 81.06846463323043 l 8.745333200405883 -18.217137805759393 a41.20754716981132,41.20754716981132 0 0,0 0.6368110986965112,0.312480440490141 l -9.057615566112826 18.06390220513442" fill="#ffb010" stroke="none" /><path d="M 109.41281617654863 81.2277094730956 l 7.190257762892726 -14.33976879572335 a37.04147050028894,37.04147050028894 0 0,0 0.5675097456075456,0.29070053389829176 l -7.436027996089027 14.213875736512557" fill="#ff700a" stroke="none" /><path d="M 110.36928655335952 81.73862282372117 l 9.09367629822049 -16.014896680330338 a39.416619241828094,39.416619241828094 0 0,0 0.5871260616197067,0.3401013112551728 l -9.367999092305524 15.855991211685117" fill="#ff950d" stroke="none" /><line stroke="#e1ed5e" stroke-width="0.3" x1="143.23703022742887" x2="145.7803849466894" y1="26.81831364943548" y2="22.513508569990506" /><path d="M 143.74570117128098 25.957352633546492 a86.0,86.0 0 0,1 28.547481713284135,27.462654790039103" fill="none" id="id50" stroke="none" /><text fill="#e1ed5e" style="font-size:6.75px; font-family:Arial;" text-anchor="middle"><textPath startOffset="19.985693538727396" xlink:href="#id50">February</textPath></text><path d="M 111.2981086023043 82.29822771554956 l 7.386741310872997 -11.573478111420176 a34.729870457847724,34.729870457847724 0 0,0 0.501156949474679,0.3259664205258101 l -7.584865286131957 11.444612766734839" fill="#ff4b07" stroke="none" /><path d="M 111.60114157652 82.49532879139004 l 11.752076324534812 -17.732412859767887 a42.27321705259816,42.27321705259816 0 0,0 0.6030884467281777,0.40720801135968243 l -12.055569465669532 17.527492936109535" fill="#ffbf11" stroke="none" /><path d="M 112.19680574252982 82.90503203632743 l 11.024890957790099 -15.452419404304896 a39.98224133440781,39.98224133440781 0 0,0 0.556809225758129,0.40454558249901634 l -11.289245499902016 15.260354586989205" fill="#ff9d0e" stroke="none" /><path d="M 112.77801427241765 83.33499621200491 l 24.166863302538886 -31.51826722796187 a60.716979378306405,60.716979378306405 0 0,0 0.8239220224701684,0.6430842073725331 l -24.705817880168485 31.097604631366117" fill="#4cff2c" stroke="none" /><path d="M 113.34407831869373 83.78471172551755 l 9.870022420299028 -11.993728978384834 a36.53276785972653,36.53276785972653 0 0,0 0.48213244125454313,0.403772054163943 l -10.075012398512689 11.822055766827072" fill="#ff6809" stroke="none" /><path d="M 113.89432698308785 84.25364557470407 l 17.84480086872138 -20.223401930135733 a47.97077869977315,47.97077869977315 0 0,0 0.614457732700157,0.5516662193382804 l -18.190269589017525 19.913236702028154" fill="#edff19" stroke="none" /><path d="M 114.42810811169701 84.74124197986012 l 24.679090280619505 -26.099906088440534 a56.920225429476126,56.920225429476126 0 0,0 0.7061272619874794,0.6792938665680588 l -25.124700786219403 25.671229135110174" fill="#79ff26" stroke="none" /><path d="M 115.19652480421416 85.50635884689758 l 9.655807959027047 -9.2091986427449 a34.34331169474597,34.34331169474597 0 0,0 0.40432328203310314,0.4313038866473369 l -9.812898563030613 9.04162533921951" fill="#ff4506" stroke="none" /><path d="M 115.68641384162765 86.03803664274999 l 15.632672377985278 -13.914129840060209 a41.92805425459992,41.92805425459992 0 0,0 0.47520085985448574,0.5432367295883547 l -15.869865101417611 13.642977554268906" fill="#ffba11" stroke="none" /><path d="M 115.9244219780498 86.31012108654704 l 11.031841713618945 -9.483834167418745 a35.54801162047385,35.54801162047385 0 0,0 0.39490351536634155,0.4674412032130654 l -11.193455842472403 9.292534014576574" fill="#ff5808" stroke="none" /><path d="M 116.15771136456269 86.58626213691792 l 24.327053834938564 -20.195726718985306 a52.61760468466794,52.61760468466794 0 0,0 0.5725334292273351,0.701858287118021 l -24.671085756242306 19.773984262259184" fill="#afff20" stroke="none" /><path d="M 116.60985879189232 87.15038557335679 l 10.955607978712994 -8.475408496828031 a34.85127775229941,34.85127775229941 0 0,0 0.36299109325523615,0.4776537293862097 l -11.099875012192342 8.285569991560786" fill="#ff4d07" stroke="none" /><path d="M 116.82858285166822 87.43820079747576 l 22.055724397756617 -16.46363116804983 a48.5228292504128,48.5228292504128 0 0,0 0.4938639408300297,0.6736298602767007 l -22.335850951100273 16.081538864101635" fill="#e6ff1a" stroke="none" /><line stroke="#e1ed5e" stroke-width="0.3" x1="172.23445277983987" x2="176.4835382374775" y1="55.19839476539836" y2="52.563006222186495" /><path d="M 173.08426987136738 54.67131705675599 a86.0,86.0 0 0,1 12.851231095245387,41.99856678651699" fill="none" id="id51" stroke="none" /><text fill="#e1ed5e" style="font-size:6.75px; font-family:Arial;" text-anchor="middle"><textPath startOffset="22.20632615414155" xlink:href="#id51">March</textPath></text><path d="M 118.03404312379186 89.2402003453031 l 13.380049580001614 -7.98304916221461 a36.58059051158321,36.58059051158321 0 0,0 0.3179729952405741,0.5435189213269388 l -13.515482249712516 7.751550828533776" fill="#ff6909" stroke="none" /><path d="M 118.3937258080291 89.86733742301442 l 16.736404823610098 -9.219684179235147 a40.107847152010564,40.107847152010564 0 0,0 0.3279139292278084,0.6075747093642688 l -16.89262685205637 8.93022848653842" fill="#ff9f0e" stroke="none" /><path d="M 118.73160827565052 90.50648371742162 l 16.2873687806983 -8.254731705067563 a39.259763890070246,39.259763890070246 0 0,0 0.3003184744168162,0.6054237187425913 l -16.427047268068527 7.973148397826022" fill="#ff920d" stroke="none" /><path d="M 118.89224826269711 90.83032412892265 l 25.176632178275366 -12.219909107163222 a48.98551386749047,48.98551386749047 0 0,0 0.3616572640764486,0.7617424322464047 l -25.38324763619357 11.784724259276278" fill="#e0ff1b" stroke="none" /><path d="M 119.196687751892 91.48605970444005 l 12.868519660190698 -5.70732875874926 a35.077371906899415,35.077371906899415 0 0,0 0.24004496272975273,0.5540568698653526 l -12.96485533276313 5.484972744297305" fill="#ff5107" stroke="none" /><path d="M 119.47837535516314 92.15188598940014 l 16.754394246748834 -6.750583343295565 a39.06322512870473,39.06322512870473 0 0,0 0.24592430116371466,0.6258505222158433 l -16.868112097794253 6.4611838161839374" fill="#ff8f0d" stroke="none" /><path d="M 119.85752413597 93.16781622104841 l 15.364911248267155 -5.286454478244235 a37.24891069018705,37.24891069018705 0 0,0 0.20338385256145197,0.6080918319733655 l -15.453632394600378 5.021189543348556" fill="#ff730a" stroke="none" /><path d="M 119.97218684219823 93.5106431181261 l 23.726285667903472 -7.709137531950356 a45.947293101286306,45.947293101286306 0 0,0 0.23792934097427698,0.7543010309440473 l -23.855470492645953 7.299586334579889" fill="#fff417" stroke="none" /><path d="M 120.6074358757038 95.95851677861258 l 38.418685129359275 -7.534584713721423 a60.15054704441684,60.15054704441684 0 0,0 0.19051762348025425,1.017752762738131 l -38.54268847674939 6.872153873520729" fill="#53ff2b" stroke="none" /><path d="M 120.78858239683441 97.02765380044208 l 10.938332151855802 -1.5639599362976075 a32.04957379027202,32.04957379027202 0 0,0 0.0733843683965423,0.5467987825571209 l -10.963632519310181 1.3754428116758224" fill="#ff2003" stroke="none" /><path d="M 120.83666639777658 97.38593545837742 l 16.3049329578356 -2.0455358014062868 a37.43274339464803,37.43274339464803 0 0,0 0.07470443151318751,0.6400219479774945 l -16.337727742352374 1.7645701151039397" fill="#ff760a" stroke="none" /><path d="M 120.94382443527127 98.46500227214037 l 29.38880266796669 -2.1539401965130973 a50.467629368967586,50.467629368967586 0 0,0 0.056041680490120316,0.8669399925472556 l -29.421524939461225 1.6477411397128063" fill="#ccff1d" stroke="none" /><path d="M 120.98425023603335 99.18683210126433 l 11.041783554764516 -0.42788395251329137 a32.05007098380307,32.05007098380307 0 0,0 0.016617665028091057,0.5514594011236132 l -11.047512914248252 0.2377544039646791" fill="#ff2003" stroke="none" /><line stroke="#e1ed5e" stroke-width="0.3" x1="184.98032266829074" x2="189.97916517819016" y1="98.17113171792111" y2="98.06355123074" /><path d="M 185.9800911702706 98.14961562048488 a86.0,86.0 0 0,1 -9.607161424134198,41.387399972396054" fill="none" id="id52" stroke="none" /><text fill="#e1ed5e" style="font-size:6.75px; font-family:Arial;" text-anchor="middle"><textPath startOffset="21.466115282336823" xlink:href="#id52">April</textPath></text><path d="M 120.99513854157772 99.54816195383933 l 18.413515680610537 -0.39627873527004903 a39.4177793600672,39.4177793600672 0 0,0 0.008760118843280594,0.6784808584017595 l -18.417608806571533 0.07926161880782683" fill="#ff950d" stroke="none" /><path d="M 120.95626037817324 101.35467743843564 l 29.40588551290126 1.9008873216253326 a50.46726107746311,50.46726107746311 0 0,0 -0.06350089106913814,0.8664192069455429 l -29.368808063167783 -2.4067796650676456" fill="#ccff1d" stroke="none" /><path d="M 120.8583938346157 102.4346265915055 l 21.023501302203925 2.453898211086271 a42.166228370546854,42.166228370546854 0 0,0 -0.09035317321082585,0.7202036897703955 l -20.97814661974625 -2.815419655144061" fill="#ffbe11" stroke="none" /><path d="M 120.81339534386255 102.79330883721812 l 15.76971033300487 2.1164096729917574 a36.911095307703164,36.911095307703164 0 0,0 -0.08993291521120503,0.628990599524964 l -15.730943366777064 -2.387545744497131" fill="#ff6e0a" stroke="none" /><path d="M 120.70491114924044 103.5080841355445 l 28.04643337004624 4.751976342949653 a49.44615446671828,49.44615446671828 0 0,0 -0.14940640064568048,0.8379504391930457 l -27.960480527061375 -5.234045532875917" fill="#d9ff1c" stroke="none" /><path d="M 120.49622156327973 104.57218783832717 l 12.452414213468488 2.77781817730909 a33.75848320020765,33.75848320020765 0 0,0 -0.13139996722990063,0.5660676197697636 l -12.402753680308034 -2.9917544544274186" fill="#ff3c05" stroke="none" /><path d="M 120.23288151984713 105.62410040840565 l 37.25384026969752 10.355387989098848 a59.66629895975188,59.66629895975188 0 0,0 -0.2835779031399288,0.9871718827559298 l -37.07006972967149 -10.99511734735936" fill="#58ff2a" stroke="none" /><path d="M 119.54520255179757 107.68017299344265 l 11.312075988224874 4.44501407822686 a33.15406159763101,33.15406159763101 0 0,0 -0.2132870023137775,0.5293608482030465 l -11.233886371653705 -4.63907429427272" fill="#ff3204" stroke="none" /><path d="M 119.41010516605496 108.01547362559984 l 9.972911459028808 4.1183501112649985 a31.789799377587357,31.789799377587357 0 0,0 -0.21321724049650131,0.5039825731790843 l -9.900543237339997 -4.289407210110246" fill="#ff1b02" stroke="none" /><path d="M 119.26925614724726 108.34839909993367 l 10.003327157332794 4.33393831077124 a31.901815238674818,31.901815238674818 0 0,0 -0.22264263983254903,0.5020003768820486 l -9.927243432768973 -4.5054870241459755" fill="#ff1d03" stroke="none" /><path d="M 118.97047184881838 109.00673069616215 l 8.504183590607317 4.037584937355805 a30.413991218878273,30.413991218878273 0 0,0 -0.22860711748802912,0.4709983732168737 l -8.433423216504574 -4.183372266537954" fill="#ff0400" stroke="none" /><path d="M 118.64920377521936 109.65438752849418 l 15.265416321538929 7.902656152418146 a38.18967450922965,38.18967450922965 0 0,0 -0.30724046285914697,0.5811831691379808 l -15.127123350454887 -8.164254336642262" fill="#ff820b" stroke="none" /><line stroke="#e1ed5e" stroke-width="0.3" x1="174.80103733775053" x2="179.2010983576182" y1="140.37084112569926" y2="142.7455964860345" /><path d="M 175.68104954172406 140.8457921977663 a86.0,86.0 0 0,1 -30.038265399797805,32.042727171017184" fill="none" id="id53" stroke="none" /><text fill="#e1ed5e" style="font-size:6.75px; font-family:Arial;" text-anchor="middle"><textPath startOffset="22.206326154141568" xlink:href="#id53">May</textPath></text><path d="M 117.94076556474637 110.91462005526583 l 11.101601960047505 6.7538794240091775 a33.994631712879944,33.994631712879944 0 0,0 -0.30843711441754645,0.49729883695633975 l -10.983700205961995 -6.9439745923307905" fill="#ff3f05" stroke="none" /><path d="M 117.75023020441432 111.22182372390056 l 7.783042641101625 4.920495765306927 a30.20798736584763,30.20798736584763 0 0,0 -0.2816465244476416,0.43712166049174955 l -7.697191253276933 -5.053739025720129" fill="#ff0100" stroke="none" /><path d="M 117.35343817320211 111.8261652097733 l 13.008250018404196 8.864970288438117 a36.74173645936824,36.74173645936824 0 0,0 -0.3606622963343826,0.519560937334817 l -12.853726814907677 -9.087572487959955" fill="#ff6b09" stroke="none" /><path d="M 117.14729908036423 112.12312394758627 l 10.343929190565749 7.313147982931232 a33.66803080670746,33.66803080670746 0 0,0 -0.3386365932046358,0.47033660996781007 l -10.21651280498551 -7.490118198350174" fill="#ff3a05" stroke="none" /><path d="M 116.71984013943494 112.70617746262583 l 7.486974814651904 5.6896973810655265 a30.40358698387673,30.40358698387673 0 0,0 -0.32024124633100004,0.4139549798372493 l -7.387926751102836 -5.817730355016028" fill="#ff0400" stroke="none" /><path d="M 116.27256486870786 113.27417163493432 l 11.835726381446664 9.654867851445145 a36.274190394431436,36.274190394431436 0 0,0 -0.3988502696522583,0.48044084359632866 l -11.667780111900862 -9.857169952155244" fill="#ff6409" stroke="none" /><path d="M 116.0416608686014 113.55231037782055 l 7.005335392998878 5.918245019907941 a30.170624192718176,30.170624192718176 0 0,0 -0.33856826580662447,0.39383138208644236 l -6.902424617621475 -6.037953501155911" fill="#ff0000" stroke="none" /><path d="M 115.56566222782051 114.09645910891815 l 6.783914761406246 6.143598366257193 a30.152338519520768,30.152338519520768 0 0,0 -0.35171064893740794,0.3817124457247607 l -6.677157704473116 -6.259462066783288" fill="#ff0000" stroke="none" /><path d="M 115.32070863581623 114.36230785411682 l 13.714252330933132 12.856344875943595 a39.798040338442355,39.798040338442355 0 0,0 -0.4728262063046222,0.4957563869761347 l -13.490919573249545 -13.090508379502237" fill="#ff9a0e" stroke="none" /><path d="M 115.07121518719521 114.62390073753431 l 12.596413868725161 12.222551650755056 a38.551649814407384,38.551649814407384 0 0,0 -0.4662168042830846,0.4722751613088021 l -12.384156439386542 -12.437567306044523" fill="#ff870c" stroke="none" /><path d="M 114.55890576462653 115.13401014063108 l 9.318342609258725 9.686434806456335 a34.44092735800828,34.44092735800828 0 0,0 -0.4307808308237167,0.40733016352757423 l -9.1502259440442 -9.84539960672983" fill="#ff4706" stroke="none" /><path d="M 114.29624159901734 115.38237550388516 l 12.04583913693216 12.961002343190861 a38.694344357818,38.694344357818 0 0,0 -0.49178752105647305,0.449236240315508 l -11.820952066408823 -13.166431350092953" fill="#ff890c" stroke="none" /><path d="M 113.75828350139079 115.86535959552629 l 10.360772231266804 11.94752071504956 a36.814197812874596,36.814197812874596 0 0,0 -0.48232651287826483,0.41104911812508704 l -10.153580241811492 -12.124094223397595" fill="#ff6c0a" stroke="none" /><path d="M 113.20401910651253 116.32954008644616 l 14.481081907571992 17.9088961926884 a44.03107240347913,44.03107240347913 0 0,0 -0.5934602443535516,0.47148071016796483 l -14.170664170501091 -18.15551081686149" fill="#ffd914" stroke="none" /><path d="M 112.34349029814194 116.9893568818739 l 12.080071094383015 16.6267914523152 a41.551844482774044,41.551844482774044 0 0,0 -0.5822653480358809,0.4154308657197633 l -11.79207841849825 -16.832266579879185" fill="#ffb510" stroke="none" /><path d="M 111.7513745106137 117.40417183066458 l 9.587965259827968 14.200091635048558 a38.133933590026665,38.133933590026665 0 0,0 -0.5471770965354755,0.3626391429285985 l -9.34211346455253 -14.363028799068475" fill="#ff810b" stroke="none" /><path d="M 111.45004920935366 117.60387380957326 l 8.50333082493838 13.073442748262174 a36.5955615612403,36.5955615612403 0 0,0 -0.5310158843819888,0.338919461559585 l -8.277033138509463 -13.217876638645567" fill="#ff6909" stroke="none" /><path d="M 111.1453310114006 117.79835938074945 l 9.29339378579985 14.840937635436205 a38.51058531165792,38.51058531165792 0 0,0 -0.5648600618462835,0.3469831852454922 l -9.036554524021259 -14.998709287510076" fill="#ff870c" stroke="none" /><line stroke="#e1ed5e" stroke-width="0.3" x1="143.8653032363475" x2="146.44561519142675" y1="172.8068346515853" y2="177.08958963109032" /><path d="M 144.38136562736335 173.6633856474863 a86.0,86.0 0 0,1 -40.68145358897372,12.25698825130547" fill="none" id="id54" stroke="none" /><text fill="#e1ed5e" style="font-size:6.75px; font-family:Arial;" text-anchor="middle"><textPath startOffset="21.466115282336833" xlink:href="#id54">June</textPath></text><path d="M 110.5260780823613 118.17145234162733 l 7.61593017793693 13.147585566313504 a36.19412382135757,36.19412382135757 0 0,0 -0.5417936882595502,0.3076445961404548 l -7.388487722756181 -13.276733328248588" fill="#ff6309" stroke="none" /><path d="M 109.89434966115114 118.52300852407294 l 9.407753537159666 17.612061927161747 a40.967236963138404,40.967236963138404 0 0,0 -0.6248656522688596,0.32690017629250373 l -9.10319698236431 -17.771391522398968" fill="#ffac0f" stroke="none" /><path d="M 109.57404056367764 118.69057910512821 l 8.33780331456682 16.277179042371824 a39.288398554543534,39.288398554543534 0 0,0 -0.6045663079191916,0.3031420973813592 l -8.056383098964869 -16.418288980662485" fill="#ff930d" stroke="none" /><path d="M 108.92500713936063 119.00905698771935 l 12.807694888614408 27.27865627639535 a51.13572857266874,51.13572857266874 0 0,0 -0.7999868283748618,0.3672347160307502 l -12.336240064472127 -27.49507806276017" fill="#c3ff1e" stroke="none" /><path d="M 108.2653958097858 119.30500536409082 l 7.288740566445734 17.023888386096267 a39.518599159418486,39.518599159418486 0 0,0 -0.6276467000164623,0.2623563715105358 l -6.994622406931811 -17.146829800626776" fill="#ff960d" stroke="none" /><path d="M 107.93186726928326 119.44442032107085 l 4.809479745485369 11.790104715827496 a33.733328890451695,33.733328890451695 0 0,0 -0.5395387718690828,0.21469361213794244 l -4.6058198975744205 -11.871145172371508" fill="#ff3b05" stroke="none" /><path d="M 107.2578585660854 119.70592522655815 l 6.30512863206709 17.11915329239593 a39.243356503545684,39.243356503545684 0 0,0 -0.6358926949233562,0.22800849642109913 l -6.009516376513999 -17.22514932985699" fill="#ff920d" stroke="none" /><path d="M 106.57524785965236 119.94407469862006 l 19.725743578957097 59.83222409586019 a84.0,84.0 0 0,0 -1.3771146196362385,0.4409086133611737 l -18.692907614229917 -60.16290555588107" fill="#4dd2ff" stroke="none" /><path d="M 105.88484417918355 120.15858648285463 l 10.350035449179012 35.454139200646225 a57.933984624706575,57.933984624706575 0 0,0 -0.9596870265924956,0.27121713976964706 l -9.738217254481912 -35.62704513375439" fill="#6dff28" stroke="none" /><path d="M 105.53697534728816 120.25689768951611 l 10.657590323153151 38.99055048143326 a61.42087651624298,61.42087651624298 0 0,0 -1.0222468263486562,0.26998467789550357 l -9.984853053992998 -39.168226508632344" fill="#44ff2d" stroke="none" /><path d="M 104.83641907484287 120.43548508189849 l 8.589038468475007 36.29155471728346 a58.29408164321147,58.29408164321147 0 0,0 -0.9784518661371181,0.22269245916702715 l -7.963066452945026 -36.434023910028166" fill="#69ff28" stroke="none" /><path d="M 104.13013068566511 120.58985236759428 l 10.977714037681096 54.72696352055547 a76.81711871525894,76.81711871525894 0 0,0 -1.2986935666289026,0.2488977129611686 l -10.03405285648049 -54.90781843186511" fill="#43ffdd" stroke="none" /><path d="M 103.06178313531738 120.77559828337769 l 2.8418928506143404 19.283542177668462 a40.49182787458096,40.49182787458096 0 0,0 -0.6904269453557892,0.09568688344165843 l -2.509537314071721 -19.329603626602722" fill="#ffa50f" stroke="none" /><path d="M 102.34483914955558 120.86867818915974 l 1.7123026887694834 15.239208958591373 a36.335105809272356,36.335105809272356 0 0,0 -0.6221390308524164,0.06448725432087725 l -1.4497310613114645 -15.266425581368008" fill="#ff6509" stroke="none" /><path d="M 101.98527174616119 120.90594882070398 l 1.048098613990874 11.037026052233415 a32.086679159348336,32.086679159348336 0 0,0 -0.5502952297163503,0.04748178794149415 l -0.857959066532982 -11.053432092453573" fill="#ff2003" stroke="none" /><line stroke="#e1ed5e" stroke-width="0.3" x1="102.19456741930631" x2="102.32365962044197" y1="184.97166512339345" y2="189.96999836594603" /><path d="M 102.22038585953345 185.97133177190398 a86.0,86.0 0 0,1 -42.740103519485714,-10.115201625700543" fill="none" id="id55" stroke="none" /><text fill="#e1ed5e" style="font-size:6.75px; font-family:Arial;" text-anchor="middle"><textPath startOffset="22.20632615414155" xlink:href="#id55">July</textPath></text><line stroke="#e1ed5e" stroke-width="0.3" x1="58.666819895761336" x2="56.23545636021788" y1="174.27360380694188" y2="178.64263932499728" /><path d="M 58.180547188652646 175.14741091055294 a86.0,86.0 0 0,1 -31.652253787137756,-30.449443065178592" fill="none" id="id56" stroke="none" /><text fill="#e1ed5e" style="font-size:6.75px; font-family:Arial;" text-anchor="middle"><textPath startOffset="22.20632615414155" xlink:href="#id56">August</textPath></text><line stroke="#e1ed5e" stroke-width="0.3" x1="26.63291911575756" x2="22.317208475507996" y1="142.92168965132927" y2="145.44649492493687" /><path d="M 25.769776987707644 143.4266507060508 a86.0,86.0 0 0,1 -11.730757126820373,-40.83630448921669" fill="none" id="id57" stroke="none" /><text fill="#e1ed5e" style="font-size:6.75px; font-family:Arial;" text-anchor="middle"><textPath startOffset="21.46611528233685" xlink:href="#id57">September</textPath></text><line stroke="#e1ed5e" stroke-width="0.3" x1="15.007084014347285" x2="10.007500721073583" y1="101.09737516637583" y2="101.16192664675087" /><path d="M 14.007167355692545 101.11028546245083 a86.0,86.0 0 0,1 10.666146001902534,-42.60595125391555" fill="none" id="id58" stroke="none" /><text fill="#e1ed5e" style="font-size:6.75px; font-family:Arial;" text-anchor="middle"><textPath startOffset="22.20632615414155" xlink:href="#id58">October</textPath></text><line stroke="#e1ed5e" stroke-width="0.3" x1="26.266209847984243" x2="21.928928074336255" y1="57.711370442889674" y2="55.22380399835377" /><path d="M 25.398753493254645 57.213857153982495 a86.0,86.0 0 0,1 29.58750427330803,-30.492523968695096" fill="none" id="id59" stroke="none" /><text fill="#e1ed5e" style="font-size:6.75px; font-family:Arial;" text-anchor="middle"><textPath startOffset="21.46611528233685" xlink:href="#id59">November</textPath></text><line stroke="#e1ed5e" stroke-width="0.3" x1="56.762969772571076" x2="54.21961505331055" y1="26.818313649435495" y2="22.513508569990535" /><path d="M 56.25429882871897 25.957352633546506 a86.0,86.0 0 0,1 42.265352541879196,-11.944610805530505" fill="none" id="id60" stroke="none" /><text fill="#e1ed5e" style="font-size:6.75px; font-family:Arial;" text-anchor="middle"><textPath startOffset="22.20632615414155" xlink:href="#id60">December</textPath></text></svg>