<?xml version="1.0" encoding="utf-8" ?>
<svg baseProfile="full" height="200mm" version="1.1" viewBox="0,0,200,200" width="200mm" xmlns="http://www.w3.org/2000/svg" xmlns:ev="http://www.w3.org/2001/xml-events" xmlns:xlink="http://www.w3.org/1999/xlink"><defs /><rect fill="#1a1a1a" height="200" width="200" x="0" y="0" /><text alignment-baseline="middle" fill="#e1ed5e" style="dominant-baseline: central; font-size:9.0px; font-family:Arial;" text-anchor="middle" x="100.0" y="100.0">2022</text><line stroke="#e1ed5e" stroke-width="0.3" x1="100.0" x2="100.0" y1="15.0" y2="10.0" /><path d="M 100.0 14.0 a86.0,86.0 0 0,1 42.46469731375804,11.215312516191453" fill="none" id="id1" stroke="none" /><text fill="#e1ed5e" style="font-size:6.75px; font-family:Arial;" text-anchor="middle"><textPath startOffset="22.20632615414155" xlink:href="#id1">January</textPath></text><line stroke="#e1ed5e" stroke-width="0.3" x1="143.23703022742887" x2="145.7803849466894" y1="26.81831364943548" y2="22.513508569990506" /><path d="M 143.74570117128098 25.957352633546492 a86.0,86.0 0 0,1 28.547481713284135,27.462654790039103" fill="none" id="id2" stroke="none" /><text fill="#e1ed5e" style="font-size:6.75px; font-family:Arial;" text-anchor="middle"><textPath startOffset="19.985693538727396" xlink:href="#id2">February</textPath></text><line stroke="#e1ed5e" stroke-width="0.3" x1="172.23445277983987" x2="176.4835382374775" y1="55.19839476539836" y2="52.563006222186495" /><path d="M 173.08426987136738 54.67131705675599 a86.0,86.0 0 0,1 12.851231095245387,41.99856678651699" fill="none" id="id3" stroke="none" /><text fill="#e1ed5e" style="font-size:6.75px; font-family:Arial;" text-anchor="middle"><textPath startOffset="22.20632615414155" xlink:href="#id3">March</textPath></text><line stroke="#e1ed5e" stroke-width="0.3" x1="184.98032266829074" x2="189.97916517819016" y1="98.17113171792111" y2="98.06355123074" /><path d="M 185.9800911702706 98.14961562048488 a86.0,86.0 0 0,1 -9.607161424134198,41.387399972396054" fill="none" id="id4" stroke="none" /><text fill="#e1ed5e" style="font-size:6.75px; font-family:Arial;" text-anchor="middle"><textPath startOffset="21.466115282336823" xlink:href="#id4">April</textPath></text><line stroke="#e1ed5e" stroke-width="0.3" x1="174.80103733775053" x2="179.2010983576182" y1="140.37084112569926" y2="142.7455964860345" /><path d="M 175.68104954172406 140.8457921977663 a86.0,86.0 0 0,1 -30.038265399797805,32.042727171017184" fill="none" id="id5" stroke="none" /><text fill="#e1ed5e" style="font-size:6.75px; font-family:Arial;" text-anchor="middle"><textPath startOffset="22.206326154141568" xlink:href="#id5">May</textPath></text><line stroke="#e1ed5e" stroke-width="0.3" x1="143.8653032363475" x2="146.44561519142675" y1="172.8068346515853" y2="177.08958963109032" /><path d="M 144.38136562736335 173.6633856474863 a86.0,86.0 0 0,1 -40.68145358897372,12.25698825130547" fill="none" id="id6" stroke="none" /><text fill="#e1ed5e" style="font-size:6.75px; font-family:Arial;" text-anchor="middle"><textPath startOffset="21.466115282336833" xlink:href="#id6">June</textPath></text><line stroke="#e1ed5e" stroke-width="0.3" x1="102.19456741930631" x2="102.32365962044197" y1="184.97166512339345" y2="189.96999836594603" /><path d="M 102.22038585953345 185.97133177190398 a86.0,86.0 0 0,1 -42.740103519485714,-10.115201625700543" fill="none" id="id7" stroke="none" /><text fill="#e1ed5e" style="font-size:6.75px; font-family:Arial;" text-anchor="middle"><textPath startOffset="22.20632615414155" xlink:href="#id7">July</textPath></text><line stroke="#e1ed5e" stroke-width="0.3" x1="58.666819895761336" x2="56.23545636021788" y1="174.27360380694188" y2="178.64263932499728" /><path d="M 58.180547188652646 175.14741091055294 a86.0,86.0 0 0,1 -31.652253787137756,-30.449443065178592" fill="none" id="id8" stroke="none" /><text fill="#e1ed5e" style="font-size:6.75px; font-family:Arial;" text-anchor="middle"><textPath startOffset="22.20632615414155" xlink:href="#id8">August</textPath></text><line stroke="#e1ed5e" stroke-width="0.3" x1="26.63291911575756" x2="22.317208475507996" y1="142.92168965132927" y2="145.44649492493687" /><path d="M 25.769776987707644 143.4266507060508 a86.0,86.0 0 0,1 -11.730757126820373,-40.83630448921669" fill="none" id="id9" stroke="none" /><text fill="#e1ed5e" style="font-size:6.75px; font-family:Arial;" text-anchor="middle"><textPath startOffset="21.46611528233685" xlink:href="#id9">September</textPath></text><path d="M 79.67330655649465 105.27499134158121 l -32.463802405080415 8.424699131590335 a54.53914164157938,54.53914164157938 0 0,0 -0.22799616972332845,-0.9107313636602056 l 32.6040098890988 -7.864639928532738" fill="red" stroke="none" /><line stroke="#e1ed5e" stroke-width="0.3" x1="15.007084014347285" x2="10.007500721073583" y1="101.09737516637583" y2="101.16192664675087" /><path d="M 14.007167355692545 101.11028546245083 a86.0,86.0 0 0,1 10.666146001902534,-42.60595125391555" fill="none" id="id10" stroke="none" /><text fill="#e1ed5e" style="font-size:6.75px; font-family:Arial;" text-anchor="middle"><textPath startOffset="22.20632615414155" xlink:href="#id10">October</textPath></text><path d="M 79.12142395522702 97.74499172005258 l -17.215794459326233 -1.8594064541759197 a38.31591670191327,38.31591670191327 0 0,0 0.07646697825338461,-0.6551223720783319 l 17.18123712806926 2.1554725645791133" fill="red" stroke="none" /><path d="M 79.32604984820605 96.31383870115002 l -30.917691077353435 -5.512618317368361 a52.405295449456375,52.405295449456375 0 0,0 0.1659857281004959,-0.8867023966782253 l 30.818219625343076 6.043998791509159" fill="red" stroke="none" /><path d="M 79.81627453868168 94.20196356495316 l -30.278450561920742 -8.697876905392398 a52.50297813052025,52.50297813052025 0 0,0 0.2569998350424047,-0.8664756823013068 l 30.12424482976663 9.217781974440244" fill="red" stroke="none" /><path d="M 80.52162464483688 92.15188598940014 l -29.159960970327994 -11.74896232704103 a52.43789814146743,52.43789814146743 0 0,0 0.34453774899014084,-0.8343254876687293 l 28.95340153445165 12.249162385163071" fill="red" stroke="none" /><path d="M 80.95270993114464 91.15688171328213 l -28.48571917761983 -13.225114084959063 a52.40604781927202,52.40604781927202 0 0,0 0.38691087178645106,-0.8149329705565822 l 28.25385011199163 13.713489471156178" fill="red" stroke="none" /><path d="M 81.43458229118936 90.18545643968196 l -22.181057404135554 -11.725938921562237 a46.089777822008806,46.089777822008806 0 0,0 0.3768210267075721,-0.6981921332934404 l 21.975928278209512 12.106012038188151" fill="red" stroke="none" /><line stroke="#e1ed5e" stroke-width="0.3" x1="26.266209847984243" x2="21.928928074336255" y1="57.711370442889674" y2="55.22380399835377" /><path d="M 25.398753493254645 57.213857153982495 a86.0,86.0 0 0,1 29.58750427330803,-30.492523968695096" fill="none" id="id11" stroke="none" /><text fill="#e1ed5e" style="font-size:6.75px; font-family:Arial;" text-anchor="middle"><textPath startOffset="21.46611528233685" xlink:href="#id11">November</textPath></text><path d="M 81.78341655067845 89.55222093294921 l -31.640700282072984 -18.146928977847487 a57.47526484711268,57.47526484711268 0 0,0 0.49959778833791607,-0.8539745672719906 l 31.323642819264744 18.68888295747337" fill="red" stroke="none" /><path d="M 82.15384107792192 88.93136811851018 l -28.033685785777173 -17.387189568296705 a53.98790535665414,53.98790535665414 0 0,0 0.4966177833995404,-0.7855300703194275 l 27.730240406131667 17.867167286330346" fill="red" stroke="none" /><path d="M 82.54541684631803 88.32363383020206 l -27.942515098165234 -18.692342012330446 a54.6182658671908,54.6182658671908 0 0,0 0.5294734599123889,-0.7769369688280579 l 27.616617172584107 19.170557004428918" fill="red" stroke="none" /><path d="M 83.17141714833178 87.43820079747576 l -34.68924732773277 -25.89400208315715 a64.28791083024407,64.28791083024407 0 0,0 0.6695863262524507,-0.8810971173212989 l 34.23838506125622 26.487283976359475" fill="red" stroke="none" /><path d="M 83.6137871275137 86.86637796730984 l -26.552000328461723 -21.281545604196037 a55.028119324260445,55.028119324260445 0 0,0 0.5987622973235103,-0.7340117780676548 l 26.18173953906182 21.735441551871773" fill="red" stroke="none" /><path d="M 84.07557802195018 86.31012108654704 l -27.43832621884665 -23.58813174139672 a57.18372154355236,57.18372154355236 0 0,0 0.6481043332506865,-0.7408952890677725 l 27.02823002201812 24.056942586667436" fill="red" stroke="none" /><path d="M 84.80347519578584 85.50635884689758 l -22.212522828718523 -21.185128779921058 a51.69537183091583,51.69537183091583 0 0,0 0.6196939281426985,-0.6386490655851965 l 21.844564636872708 21.56434204105638" fill="red" stroke="none" /><path d="M 85.31137513191541 84.99185889309783 l -29.1555078899532 -29.789716898997703 a62.682980618515664,62.682980618515664 0 0,0 0.7776174662590842,-0.74806738643572 l 28.638407180081686 30.287167372195736" fill="red" stroke="none" /><path d="M 85.83668400450813 84.49514656593479 l -42.48994798647562 -46.514560302195655 a84.0,84.0 0 0,0 1.0759560496161145,-0.9660039649228849 l 41.68298094926353 47.23906327588782" fill="red" stroke="none" /><path d="M 86.10567301691215 84.25364557470407 l -29.073280303806435 -32.948567895871676 a64.94159480506556,64.94159480506556 0 0,0 0.8445691555729469,-0.7324020491901971 l 28.501817349586712 33.444134938481554" fill="red" stroke="none" /><path d="M 86.93701828274178 83.55741782278169 l -28.11565253642612 -35.3896175698953 a66.19861667454532,66.19861667454532 0 0,0 0.8983071736059913,-0.7011429977117553 l 27.5023128076607 35.86833895683028" fill="red" stroke="none" /><path d="M 88.09926311788651 82.69761687909137 l -22.830405849215534 -33.1929386156471 a61.2864568457194,61.2864568457194 0 0,0 0.8743397508301777,-0.5903581027290924 l 22.255661403978817 33.58100863067486" fill="red" stroke="none" /><line stroke="#e1ed5e" stroke-width="0.3" x1="56.762969772571076" x2="54.21961505331055" y1="26.818313649435495" y2="22.513508569990535" /><path d="M 56.25429882871897 25.957352633546506 a86.0,86.0 0 0,1 42.265352541879196,-11.944610805530505" fill="none" id="id12" stroke="none" /><text fill="#e1ed5e" style="font-size:6.75px; font-family:Arial;" text-anchor="middle"><textPath startOffset="22.20632615414155" xlink:href="#id12">December</textPath></text><path d="M 89.94658935756843 81.56283822128135 l -22.20930053488237 -40.73010459013447 a67.39174980718036,67.39174980718036 0 0,0 1.0232472975783136,-0.5465832690683067 l 21.50490819077575 41.10636658570452" fill="red" stroke="none" /><path d="M 90.58718382345135 81.22770947309562 l -22.071080879586948 -44.017086357924555 a70.24059811409947,70.24059811409947 0 0,0 1.0854805862094554,-0.5326406094625503 l 21.31012902636707 44.390482127521935" fill="red" stroke="none" /><path d="M 91.56875222667455 80.76684994638697 l -20.492129568043932 -46.74612981333572 a72.04045480556316,72.04045480556316 0 0,0 1.1400101537172322,-0.488092853119576 l 19.68443565653639 47.09194219441808" fill="red" stroke="none" /><path d="M 92.23578459929587 80.48803036053334 l -20.90915010299704 -52.546030853256575 a77.55331923469261,77.55331923469261 0 0,0 1.2446082948688488,-0.48288868225910914 l 20.001558643128515 52.89816223940623" fill="red" stroke="none" /><path d="M 92.57280143429618 80.3572730644239 l -16.575538093883512 -43.83735882488019 a67.86643246336428,67.86643246336428 0 0,0 1.0962615894445438,-0.40376239512455486 l 15.8184941786664 44.11618448781107" fill="red" stroke="none" /><path d="M 93.25333710446033 80.11325718540243 l -15.14817092717266 -44.65137565112476 a68.15095364864528,68.15095364864528 0 0,0 1.1141615746733942,-0.3673215538891303 l 14.377326530256857 44.90551092927313" fill="red" stroke="none" /><path d="M 94.63758080256005 79.69619591428918 l -16.06271424806684 -60.81848344366724 a83.90388475605204,83.90388475605204 0 0,0 1.3995611921353908,-0.3567793104051638 l 15.013444167246451 61.08596575024127" fill="red" stroke="none" /><path d="M 94.98787191387505 79.60689891045804 l -10.767791463372276 -43.811462127542995 a66.11529171746324,66.11529171746324 0 0,0 1.1075139788459871,-0.2621127764513157 l 10.012053797563755 43.99032081613518" fill="red" stroke="none" /><path d="M 98.91598698831166 79.02799685794201 l -1.2008327892453086 -23.232072638976252 a44.26308660712064,44.26308660712064 0 0,0 0.7612390245193784,-0.03278055370463311 l 0.8007529323366062 23.24930091920508" fill="red" stroke="none" /></svg>