<?xml version="1.0" encoding="utf-8" ?>
<svg baseProfile="full" height="200mm" version="1.1" viewBox="0,0,200,200" width="200mm" xmlns="http://www.w3.org/2000/svg" xmlns:ev="http://www.w3.org/2001/xml-events" xmlns:xlink="http://www.w3.org/1999/xlink"><defs /><rect fill="#1a1a1a" height="200" width="200" x="0" y="0" /><text alignment-baseline="middle" fill="#e1ed5e" style="dominant-baseline: central; font-size:9.0px; font-family:Arial;" text-anchor="middle" x="100.0" y="100.0">2023</text><line stroke="#e1ed5e" stroke-width="0.3" x1="100.0" x2="100.0" y1="15.0" y2="10.0" /><path d="M 100.0 14.0 a86.0,86.0 0 0,1 42.46469731375804,11.215312516191453" fill="none" id="id13" stroke="none" /><text fill="#e1ed5e" style="font-size:6.75px; font-family:Arial;" text-anchor="middle"><textPath startOffset="22.20632615414155" xlink:href="#id13">January</textPath></text><path d="M 100.0 79.0 l 0.0 -31.537211560091393 a52.53721156009139,52.53721156009139 0 0,0 0.9043417340182883,0.007783954815570332 l -0.54286125474576 31.532538981884382" fill="red" stroke="none" /><path d="M 101.80526077348638 79.07773832637324 l 2.676621888339972 -31.020993959257783 a52.13625492819341,52.13625492819341 0 0,0 0.8934537198225825,0.08484419634232696 l -3.210200735252799 30.970324218400275" fill="red" stroke="none" /><path d="M 102.52436894288641 79.15227682838746 l 5.306475786476532 -43.82399748858968 a65.14409859938672,65.14409859938672 0 0,0 1.1120571367863235,0.1443769326083939 l -6.0600476517707005 43.72616223281715" fill="red" stroke="none" /><path d="M 103.59715602781102 79.31037775812273 l 4.489577632356999 -25.822528831359264 a47.20990848063649,47.20990848063649 0 0,0 0.7994320851428511,0.14609110371856426 l -4.933404838602751 25.74142224628996" fill="red" stroke="none" /><path d="M 104.66035177308747 79.52364482259891 l 7.681306746606204 -33.74963368180997 a55.612717994861654,55.612717994861654 0 0,0 0.9315827092488264,0.22047552904901463 l -8.261113142817553 33.61241224062009" fill="red" stroke="none" /><path d="M 106.40334571778207 80.00007090966166 l 13.073942905195437 -40.83457969619186 a63.87646069876751,63.87646069876751 0 0,0 1.0442802958211428,0.34428279495213143 l -13.774906023258998 40.6034831769805" fill="red" stroke="none" /><path d="M 107.4271985657038 80.35727306442388 l 15.278651033668547 -40.407479016938076 a64.19955483466134,64.19955483466134 0 0,0 1.0303014656575187,0.39974096198147097 l -15.971935664325732 40.13849535106606" fill="red" stroke="none" /><path d="M 108.76106565485865 80.91482961587045 l 20.110561186782544 -43.808995605158486 a69.20438535216604,69.20438535216604 0 0,0 1.0783420362308416,0.5062960449984741 l -20.861681434312985 43.45633457752001" fill="red" stroke="none" /><path d="M 109.73455568895987 81.39251694778311 l 11.448703265554354 -21.8840549882791 a45.69786770538579,45.69786770538579 0 0,0 0.6938567371883895,0.37063423922550814 l -11.823705049271053 21.683742022551836" fill="red" stroke="none" /><path d="M 110.36928655335952 81.73862282372117 l 12.749967758482736 -22.45400095994193 a46.8213833276109,46.8213833276109 0 0,0 0.6974229378747662,0.4039923811528545 l -13.134587428822831 22.231204421399024" fill="red" stroke="none" /><line stroke="#e1ed5e" stroke-width="0.3" x1="143.23703022742887" x2="145.7803849466894" y1="26.81831364943548" y2="22.513508569990506" /><path d="M 143.74570117128098 25.957352633546492 a86.0,86.0 0 0,1 28.547481713284135,27.462654790039103" fill="none" id="id14" stroke="none" /><text fill="#e1ed5e" style="font-size:6.75px; font-family:Arial;" text-anchor="middle"><textPath startOffset="19.985693538727396" xlink:href="#id14">February</textPath></text><path d="M 110.99172775467656 82.1063720568725 l 12.853028184046662 -20.923671819474595 a45.55606596971455,45.55606596971455 0 0,0 0.6646431479231542,0.4161994782549996 l -13.21129048434208 20.69932799989665" fill="red" stroke="none" /><path d="M 111.60114157652 82.49532879139004 l 28.754819557444385 -43.38742516811516 a73.05101642139161,73.05101642139161 0 0,0 1.0421781708895024,0.7036833531677027 l -29.49740242274043 42.88602990264879" fill="red" stroke="none" /><path d="M 112.48926042617603 83.11751280151076 l 16.9098077080716 -22.858007793808326 a49.432905532600074,49.432905532600074 0 0,0 0.6797115049255611,0.5119446136126253 l -17.300765366755545 22.563546590689853" fill="red" stroke="none" /><path d="M 113.6212207817346 84.01681056812373 l 37.65923049769035 -44.18947644622389 a79.05968885784307,79.05968885784307 0 0,0 1.028175776387346,0.8916239014707622 l -38.41430007272446 43.534687551333455" fill="red" stroke="none" /><path d="M 114.16331599549186 84.49514656593476 l 20.873380416807745 -22.8504895420751 a51.949036856374974,51.949036856374974 0 0,0 0.6550331144770966,0.6087818918187312 l -21.263621415079687 22.48780306418173" fill="red" stroke="none" /><path d="M 114.68862486808459 84.99185889309783 l 29.054016398240382 -29.686017700301065 a62.53788049204977,62.53788049204977 0 0,0 0.7628555293084542,0.7595795852309148 l -29.56070772771616 29.18150226442003" fill="red" stroke="none" /><path d="M 115.68641384162765 86.03803664274999 l 47.05924152488298 -41.88589007175005 a84.0,84.0 0 0,0 0.9520325456886072,1.0883377751882088 l -47.773265934149435 41.069636740358895" fill="red" stroke="none" /><path d="M 116.38621287248628 86.86637796730983 l 24.603634555405698 -19.719921826702365 a52.531161573706825,52.531161573706825 0 0,0 0.5594466632199376,0.7104404495911723 l -24.9394352992196 19.293488983158156" fill="red" stroke="none" /><path d="M 117.2510076193507 88.02491185347247 l 47.9915067840594 -33.31414237966792 a79.42103051040101,79.42103051040101 0 0,0 0.7699132725378436,1.12975272514135 l -48.55784452226598 32.483111631256165" fill="red" stroke="none" /><path d="M 117.65298651832404 88.62581576622439 l 22.65058699779227 -14.594241560691513 a47.94514757941347,47.94514757941347 0 0,0 0.4410323526789381,0.6976072677894914 l -22.898446946717165 14.202186645187815" fill="red" stroke="none" /><line stroke="#e1ed5e" stroke-width="0.3" x1="172.23445277983987" x2="176.4835382374775" y1="55.19839476539836" y2="52.563006222186495" /><path d="M 173.08426987136738 54.67131705675599 a86.0,86.0 0 0,1 12.851231095245387,41.99856678651699" fill="none" id="id15" stroke="none" /><text fill="#e1ed5e" style="font-size:6.75px; font-family:Arial;" text-anchor="middle"><textPath startOffset="22.20632615414155" xlink:href="#id15">March</textPath></text><path d="M 118.73160827565052 90.50648371742162 l 27.55063121693272 -13.963155870244142 a51.88700377680168,51.88700377680168 0 0,0 0.39691083879008976,0.8001480311731427 l -27.78690206867622 13.48684825057205" fill="red" stroke="none" /><path d="M 119.04729006885535 91.15688171328212 l 31.724886825986065 -14.728968048513162 a55.97729183192641,55.97729183192641 0 0,0 0.3982322715407794,0.8774520226521496 l -31.973721414490193 14.18069401701895" fill="red" stroke="none" /><path d="M 119.196687751892 91.48605970444005 l 29.256900954759896 -12.975754525016237 a53.005256739637474,53.005256739637474 0 0,0 0.3627308486028459,0.8372328096164042 l -29.475922513205422 12.47022257081323" fill="red" stroke="none" /><path d="M 119.7369772167798 92.82701384747503 l 39.13325480434842 -14.222152244071978 a62.637498076080654,62.637498076080654 0 0,0 0.3595598770882383,1.0165241913822214 l -39.372267762246466 13.546430426263141" fill="red" stroke="none" /><path d="M 119.97218684219823 93.5106431181261 l 30.52476147138008 -9.91809622486274 a53.095633591039864,53.095633591039864 0 0,0 0.2749456661370577,0.8716528973330868 l -30.690962621285344 9.391193161103233" fill="red" stroke="none" /><path d="M 120.37134235888165 94.90015583598534 l 36.209703483802855 -9.06488348874377 a58.32713140665143,58.32713140665143 0 0,0 0.23543940943624067,0.9760483510114186 l -36.36037569349991 8.440249906072946" fill="red" stroke="none" /><path d="M 120.73433829027371 96.67025291283417 l 15.145970605820354 -2.4323058108243036 a36.34003054591952,36.34003054591952 0 0,0 0.09386821377866454,0.6184742463243087 l -15.185594713038318 2.1712324521079127" fill="red" stroke="none" /><path d="M 120.87857604477298 97.74499172005257 l 11.008076763954076 -1.1889366495004783 a32.07209665770811,32.07209665770811 0 0,0 0.054557498952891456,0.5493865690185769 l -11.026911388589197 0.9992745497774665" fill="red" stroke="none" /><line stroke="#e1ed5e" stroke-width="0.3" x1="184.98032266829074" x2="189.97916517819016" y1="98.17113171792111" y2="98.06355123074" /><path d="M 185.9800911702706 98.14961562048488 a86.0,86.0 0 0,1 -9.607161424134198,41.387399972396054" fill="none" id="id16" stroke="none" /><text fill="#e1ed5e" style="font-size:6.75px; font-family:Arial;" text-anchor="middle"><textPath startOffset="21.466115282336823" xlink:href="#id16">April</textPath></text><path d="M 120.8583938346157 102.4346265915055 l 4.311470645852156 0.5032420600605888 a25.340740916140795,25.340740916140795 0 0,0 -0.05429976646633233,0.43282256475346087 l -4.302169370138976 -0.5773823791014445" fill="red" stroke="none" /><path d="M 119.79798401119884 107.00284435728193 l 14.702203933064492 5.200390392982966 a36.59483442454092,36.59483442454092 0 0,0 -0.21517020114102658,0.592055981615888 l -14.610509470918238 -5.452694171604985" fill="red" stroke="none" /><line stroke="#e1ed5e" stroke-width="0.3" x1="174.80103733775053" x2="179.2010983576182" y1="140.37084112569926" y2="142.7455964860345" /><path d="M 175.68104954172406 140.8457921977663 a86.0,86.0 0 0,1 -30.038265399797805,32.042727171017184" fill="none" id="id17" stroke="none" /><text fill="#e1ed5e" style="font-size:6.75px; font-family:Arial;" text-anchor="middle"><textPath startOffset="22.206326154141568" xlink:href="#id17">May</textPath></text><path d="M 117.94076556474637 110.91462005526583 l 9.046991902504901 5.503916703138944 a31.589672400932955,31.589672400932955 0 0,0 -0.286616648270608,0.46211729773979865 l -8.95091061456633 -5.658830332244016" fill="red" stroke="none" /><path d="M 115.80600337817218 113.82643327865902 l 3.4232336699265624 2.9945022028694583 a25.54813942199543,25.54813942199543 0 0,0 -0.2923937722870009,0.3285075028095436 l -3.3711810479912234 -3.0529838754198684" fill="red" stroke="none" /><path d="M 115.32070863581623 114.36230785411682 l 7.412515679694895 6.9488190589543315 a31.160289120680062,31.160289120680062 0 0,0 -0.37020419013080963,0.38815761329530624 l -7.291804938185121 -7.075383788832145" fill="red" stroke="none" /><path d="M 114.0293411484842 115.62618273729858 l 6.320149283394487 7.0395185763944 a30.46039686016362,30.46039686016362 0 0,0 -0.393167785830834,0.34692485816110347 l -6.1980391446570655 -7.147266576327792" fill="red" stroke="none" /><path d="M 113.48314897796784 116.09983520530334 l 8.185914433825525 9.77456183304506 a33.74955897848762,33.74955897848762 0 0,0 -0.4485957171113626,0.3691637349417213 l -8.016448588169471 -9.91402068684396" fill="red" stroke="none" /><path d="M 111.1453310114006 117.79835938074945 l 8.54579182288302 13.64706655200794 a37.10195588600926,37.10195588600926 0 0,0 -0.5441987683849885,0.33429133127893773 l -8.309613854565722 -13.792146350115257" fill="red" stroke="none" /><line stroke="#e1ed5e" stroke-width="0.3" x1="143.8653032363475" x2="146.44561519142675" y1="172.8068346515853" y2="177.08958963109032" /><path d="M 144.38136562736335 173.6633856474863 a86.0,86.0 0 0,1 -40.68145358897372,12.25698825130547" fill="none" id="id18" stroke="none" /><text fill="#e1ed5e" style="font-size:6.75px; font-family:Arial;" text-anchor="middle"><textPath startOffset="21.466115282336833" xlink:href="#id18">June</textPath></text><path d="M 109.89434966115114 118.52300852407294 l 5.270004692264778 9.86586740713263 a32.18518167718409,32.18518167718409 0 0,0 -0.490914595001886,0.25682331404836156 l -5.099399194736396 -9.955120140125707" fill="red" stroke="none" /><line stroke="#e1ed5e" stroke-width="0.3" x1="102.19456741930631" x2="102.32365962044197" y1="184.97166512339345" y2="189.96999836594603" /><path d="M 102.22038585953345 185.97133177190398 a86.0,86.0 0 0,1 -42.740103519485714,-10.115201625700543" fill="none" id="id19" stroke="none" /><text fill="#e1ed5e" style="font-size:6.75px; font-family:Arial;" text-anchor="middle"><textPath startOffset="22.20632615414155" xlink:href="#id19">July</textPath></text><path d="M 100.18074693466247 120.99922214144158 l 0.03780086076573127 4.3917130536109035 a25.39187573256929,25.39187573256929 0 0,0 -0.4370955908563704,0.0 l 0.03780086076572824 -4.3917130536109035" fill="red" stroke="none" /><path d="M 96.93821686468263 120.77559828337769 l -0.7585854727066148 5.147349223649449 a26.202946852467946,26.202946852467946 0 0,0 -0.44565489921303036,-0.06960212990116615 l 0.8470762355281624 -5.133528786401177" fill="red" stroke="none" /><path d="M 95.51606077576429 120.51570834832081 l -1.787380365025871 8.17793739892544 a29.370984928311806,29.370984928311806 0 0,0 -0.492984779986468,-0.11220173090427167 l 1.9278852944052018 -8.145958934443481" fill="red" stroke="none" /><path d="M 94.81253420990036 120.34920634021253 l -2.619251667006611 10.274707301315889 a31.60330558942969,31.60330558942969 0 0,0 -0.5259836829645123,-0.13891707126223007 l 2.7957257927826125 -10.228098880750077" fill="red" stroke="none" /><path d="M 94.11515582081647 120.15858648285463 l -4.405347778034678 15.09055829969052 a36.720433799415126,36.720433799415126 0 0,0 -0.605231480351801,-0.1823512802404593 l 4.664454232826725 -15.012491650344334" fill="red" stroke="none" /><path d="M 92.7421414339146 119.70592522655815 l -3.5089144939559676 9.52710858370684 a31.1527473568308,31.1527473568308 0 0,0 -0.5016034088798037,-0.1896634887407988 l 3.6723881235960545 -9.465296844859408" fill="red" stroke="none" /><path d="M 92.40401165467489 119.57807347666478 l -3.3757599957886444 8.700760747982285 a30.33268413388111,30.33268413388111 0 0,0 -0.48514806226905666,-0.19305042629177369 l 3.525029134099559 -8.641363477284445" fill="red" stroke="none" /><path d="M 90.7491055286396 118.85261126421891 l -3.814900078519041 7.774472880953895 a29.660016812095236,29.660016812095236 0 0,0 -0.45640564432820013,-0.2288512648919138 l 3.9481596305300015 -7.707653775152679" fill="red" stroke="none" /><path d="M 90.10565033884886 118.52300852407294 l -8.029824172100165 15.032468699849224 a38.0426873305471,38.0426873305471 0 0,0 -0.5749467206633111,-0.3135067940348331 l 8.287393704632116 -14.892021254054626" fill="red" stroke="none" /><line stroke="#e1ed5e" stroke-width="0.3" x1="58.666819895761336" x2="56.23545636021788" y1="174.27360380694188" y2="178.64263932499728" /><path d="M 58.180547188652646 175.14741091055294 a86.0,86.0 0 0,1 -31.652253787137756,-30.449443065178592" fill="none" id="id20" stroke="none" /><text fill="#e1ed5e" style="font-size:6.75px; font-family:Arial;" text-anchor="middle"><textPath startOffset="22.20632615414155" xlink:href="#id20">August</textPath></text><path d="M 89.1626897886671 117.98757091392108 l -8.516532492716658 14.135586152480593 a37.50291251790725,37.50291251790725 0 0,0 -0.5500798627921155,-0.33790397980544956 l 8.758591555441082 -13.986893705846766" fill="red" stroke="none" /><path d="M 87.95078237400918 117.19931262002967 l -3.5915978305383165 5.126724058797072 a27.259622556622425,27.259622556622425 0 0,0 -0.3819886653127637,-0.2725387702725539 l 3.679313823699967 -5.064141026680299" fill="red" stroke="none" /><path d="M 87.07902340077011 116.55440617244103 l -5.368888640356985 6.878641298086677 a29.72586221185608,29.72586221185608 0 0,0 -0.40065155102771827,-0.31830182325727935 l 5.486497684102062 -6.785205560824267" fill="red" stroke="none" /><path d="M 86.24171649860922 115.8653595955263 l -4.40202738993506 5.0761962772184415 a27.719048577483633,27.719048577483633 0 0,0 -0.35778381367051004,-0.3157026167535163 l 4.488753556512157 -4.9996705186926365" fill="red" stroke="none" /><path d="M 85.70375840098266 115.38237550388516 l -7.1370906631072915 7.679319618712605 a31.48379763920296,31.48379763920296 0 0,0 -0.3937935922433149,-0.3723564208227738 l 7.2682200897414235 -7.5553285611439005" fill="red" stroke="none" /><path d="M 84.67929136418377 114.36230785411682 l -9.651377112990426 9.047626490911384 a34.22908255685922,34.22908255685922 0 0,0 -0.3992636534911144,-0.43332184033534393 l 9.805687174477269 -8.880153395774695" fill="red" stroke="none" /><path d="M 84.19399662182784 113.82643327865904 l -11.7864944702047 10.310334338319906 a36.659643867729066,36.659643867729066 0 0,0 -0.41138665113800105,-0.47853561527271943 l 11.96222363091348 -10.105921623885656" fill="red" stroke="none" /><path d="M 83.95833913139862 113.55231037782056 l -13.392076274665955 11.313889239047585 a38.531451641547186,38.531451641547186 0 0,0 -0.423669824473429,-0.5103375962458019 l 13.58484209903292 -11.081690385688022" fill="red" stroke="none" /><path d="M 83.06392112726016 112.41649034213515 l -14.165800253392176 10.385492613521643 a38.56497519623977,38.56497519623977 0 0,0 -0.38789057466568155,-0.5387460823422451 l 14.342470620433465 -10.14011292572826" fill="red" stroke="none" /><path d="M 82.6465618267979 111.8261652097733 l -12.439715956491858 8.477520972835546 a36.05373358748801,36.05373358748801 0 0,0 -0.3450804042587589,-0.5158483832427566 l 12.583799466161347 -8.262135675386968" fill="red" stroke="none" /><path d="M 82.05923443525364 110.91462005526583 l -18.321687067804255 11.146361195952009 a42.445875708890284,42.445875708890284 0 0,0 -0.374370853762969,-0.6274670846780133 l 18.510838797265457 -10.829332017387884" fill="red" stroke="none" /><line stroke="#e1ed5e" stroke-width="0.3" x1="26.63291911575756" x2="22.317208475507996" y1="142.92168965132927" y2="145.44649492493687" /><path d="M 25.769776987707644 143.4266507060508 a86.0,86.0 0 0,1 -11.730757126820373,-40.83630448921669" fill="none" id="id21" stroke="none" /><text fill="#e1ed5e" style="font-size:6.75px; font-family:Arial;" text-anchor="middle"><textPath startOffset="21.46611528233685" xlink:href="#id21">September</textPath></text><path d="M 81.87401531095188 110.60418214915194 l -15.245158546645161 8.918822391977606 a38.662396552336524,38.662396552336524 0 0,0 -0.3311121354239494,-0.5773219176366167 l 15.396422678221487 -8.655080628482683" fill="red" stroke="none" /><path d="M 81.51974371655577 109.97397251340807 l -5.089948995503251 2.747094553081425 a26.783952736701277,26.783952736701277 0 0,0 -0.21548007784232756,-0.4076071014901232 l 5.1364815815704645 -2.6590724365051757" fill="red" stroke="none" /><path d="M 81.18737489456691 109.33194174019688 l -17.666631100898897 8.76347512668639 a40.72075938576654,40.72075938576654 0 0,0 -0.30607805986756503,-0.6306114606538841 l 17.81486241738118 -8.458074710067221" fill="red" stroke="none" /><path d="M 80.87730276802145 108.67885076344099 l -19.845225452615438 9.006770748954114 a42.79345985816275,42.79345985816275 0 0,0 -0.29865538368608807,-0.6733890474934726 l 19.997321921032807 -8.663833364967946" fill="red" stroke="none" /><path d="M 80.0844068197444 106.66101706037122 l -11.93179735779613 3.990737561358053 a33.5814853841327,33.5814853841327 0 0,0 -0.17863391141867563,-0.5497786483544828 l 11.998723520231055 -3.784760013025767" fill="red" stroke="none" /><path d="M 79.76711848015287 105.62410040840567 l -12.26953159552383 3.4105412810153832 a33.73472408036655,33.73472408036655 0 0,0 -0.15070092190755402,-0.560814192537021 l 12.32642059377316 -3.198836155302823" fill="red" stroke="none" /><path d="M 79.58551787078972 104.9243191809786 l -15.763298869311463 3.8023749261109248 a37.215413849851416,37.215413849851416 0 0,0 -0.1448555650831921,-0.6240339831560308 l 15.826415000325209 -3.5304722856063195" fill="red" stroke="none" /><path d="M 79.29508885075956 103.50808413554451 l -20.648652466636804 3.498552088268099 a41.94293951197566,41.94293951197566 0 0,0 -0.11448074808366401,-0.712871727597395 l 20.705814969081757 -3.14260113097749" fill="red" stroke="none" /><path d="M 79.18660465613746 102.79330883721812 l -5.395536112271247 0.7241201377737269 a26.443910351278074,26.443910351278074 0 0,0 -0.056663621686626836,-0.45166481667708863 l 5.407201243204722 -0.6311375668092296" fill="red" stroke="none" /><path d="M 79.10278846688536 102.07522291339032 l -20.78472126506367 2.0640519310119774 a41.88695641878692,41.88695641878692 0 0,0 -0.06507518399464161,-0.7180992327532567 l 20.81717104533539 -1.7059713097101545" fill="red" stroke="none" /><path d="M 79.04373962182676 101.35467743843564 l -20.77509746913461 1.3429665080918092 a41.81845897019997,41.81845897019997 0 0,0 -0.04025255504989417,-0.7187364105529143 l 20.795136375072037 -0.9851583812034573" fill="red" stroke="none" /><line stroke="#e1ed5e" stroke-width="0.3" x1="15.007084014347285" x2="10.007500721073583" y1="101.09737516637583" y2="101.16192664675087" /><path d="M 14.007167355692545 101.11028546245083 a86.0,86.0 0 0,1 10.666146001902534,-42.60595125391555" fill="none" id="id22" stroke="none" /><text fill="#e1ed5e" style="font-size:6.75px; font-family:Arial;" text-anchor="middle"><textPath startOffset="22.20632615414155" xlink:href="#id22">October</textPath></text><path d="M 79.00175016825051 100.2711162175752 l -17.364831396564632 0.2242038000685847 a38.36627872559582,38.36627872559582 0 0,0 -0.002842215419290109,-0.6604307674237553 l 17.366117909273424 0.07473644555884595" fill="red" stroke="none" /><path d="M 79.08570108090925 98.10471618934814 l -20.191139547612078 -1.8297500696172158 a41.27387731906279,41.27387731906279 0 0,0 0.07021054914647584,-0.7070106483033483 l 20.156651872783375 2.1770362486249946" fill="red" stroke="none" /><path d="M 79.26566170972629 96.67025291283419 l -16.54596742418379 -2.657132630119207 a37.757965026106106,37.757965026106106 0 0,0 0.10857777241481292,-0.6408321590275308 l 16.497777790248755 2.9415505774625657" fill="red" stroke="none" /><path d="M 79.46518482838121 95.60439243477599 l -12.66138959598823 -2.7102508315387515 a33.94821401086866,33.94821401086866 0 0,0 0.12723404732911592,-0.5703652860868763 l 12.612861161657076 2.927794287175587" fill="red" stroke="none" /><path d="M 79.71946130924805 94.55025226153421 l -14.05856908271443 -3.777791913363978 a35.55730319784995,35.55730319784995 0 0,0 0.16392463583499625,-0.5897241326055535 l 13.991457676313072 4.019227349388474" fill="red" stroke="none" /><path d="M 79.81627453868168 94.20196356495316 l -11.177243087091057 -3.2108077761228415 a32.62927554076933,32.62927554076933 0 0,0 0.15971890986230028,-0.5384927635324083 l 11.12031828011705 3.402729926401789" fill="red" stroke="none" /><path d="M 80.52162464483688 92.15188598940014 l -9.659664180883142 -3.8920158592992498 a31.41426423404331,31.41426423404331 0 0,0 0.206404151748785,-0.49982402529013814 l 9.591238342248158 4.057714455042699" fill="red" stroke="none" /><path d="M 80.95270993114464 91.15688171328213 l -11.32348160887897 -5.257172381100232 a33.4843540958763,33.4843540958763 0 0,0 0.2472130827174765,-0.5206937993993531 l 11.23131033231974 5.451308596140117" fill="red" stroke="none" /><path d="M 81.43458229118936 90.18545643968196 l -13.866492601883534 -7.33047313044983 a36.68487976984005,36.68487976984005 0 0,0 0.2999284160774128,-0.5557218037594277 l 13.738256086587649 7.56807591754173" fill="red" stroke="none" /><line stroke="#e1ed5e" stroke-width="0.3" x1="26.266209847984243" x2="21.928928074336255" y1="57.711370442889674" y2="55.22380399835377" /><path d="M 25.398753493254645 57.213857153982495 a86.0,86.0 0 0,1 29.58750427330803,-30.492523968695096" fill="none" id="id23" stroke="none" /><text fill="#e1ed5e" style="font-size:6.75px; font-family:Arial;" text-anchor="middle"><textPath startOffset="21.46611528233685" xlink:href="#id23">November</textPath></text><path d="M 81.78341655067845 89.55222093294921 l -17.450109354372895 -10.00818225533693 a41.11641192001231,41.11641192001231 0 0,0 0.3574001531662504,-0.6109127147229375 l 17.27524952673632 10.30707438241376" fill="red" stroke="none" /><path d="M 88.39885842347998 82.49532879139004 l -3.090551917564817 -4.663256181581672 a26.59441412216,26.59441412216 0 0,0 0.38376116233154767,-0.2496089349916472 l 3.0098237294489825 4.7157640407328545" fill="red" stroke="none" /><line stroke="#e1ed5e" stroke-width="0.3" x1="56.762969772571076" x2="54.21961505331055" y1="26.818313649435495" y2="22.513508569990535" /><path d="M 56.25429882871897 25.957352633546506 a86.0,86.0 0 0,1 42.265352541879196,-11.944610805530505" fill="none" id="id24" stroke="none" /><text fill="#e1ed5e" style="font-size:6.75px; font-family:Arial;" text-anchor="middle"><textPath startOffset="22.20632615414155" xlink:href="#id24">December</textPath></text><path d="M 90.91171255644093 81.06846463323043 l -8.787848041016046 -18.305699178143588 a41.305784781501956,41.305784781501956 0 0,0 0.643626322851261,-0.30219118866543637 l 8.471443506865178 18.454255349449035" fill="red" stroke="none" /><path d="M 92.23578459929587 80.48803036053334 l -6.931670915565349 -17.419732126831423 a39.74820335531534,39.74820335531534 0 0,0 0.6378958900836962,-0.24749369504521634 l 6.630791860481977 17.53646852576719" fill="red" stroke="none" /><path d="M 93.59665428221793 80.00007090966166 l -6.347623577879755 -19.825889003183036 a41.81725726057564,41.81725726057564 0 0,0 0.6874251847366282,-0.21358635111200405 l 6.005413020432399 19.932215489177565" fill="red" stroke="none" /><path d="M 96.75951476605007 79.25152402106235 l -2.6724613165985875 -17.11148035829711 a38.318914791091956,38.318914791091956 0 0,0 0.6525729793145689,-0.0961722938312561 l 2.37751935685537 17.154947136289337" fill="red" stroke="none" /><path d="M 97.83486435360386 79.11191278185805 l -2.1427655943328534 -20.672272749727384 a41.78302925541361,41.78302925541361 0 0,0 0.7160315401465195,-0.06799582253857339 l 1.7866089270960976 20.706094116781138" fill="red" stroke="none" /><path d="M 98.55514903715128 79.0497635885617 l -1.3338366591666222 -19.340536887408867 a40.38647691888755,40.38647691888755 0 0,0 0.6939511231427258,-0.041861026846280854 l 1.0007234871842734 19.360631183635455" fill="red" stroke="none" /></svg>