<?xml version="1.0" encoding="utf-8" ?>
<svg baseProfile="full" height="200mm" version="1.1" viewBox="0,0,200,200" width="200mm" xmlns="http://www.w3.org/2000/svg" xmlns:ev="http://www.w3.org/2001/xml-events" xmlns:xlink="http://www.w3.org/1999/xlink"><defs /><rect fill="#1a1a1a" height="200" width="200" x="0" y="0" /><text alignment-baseline="middle" fill="#e1ed5e" style="dominant-baseline: central; font-size:9.0px; font-family:Arial;" text-anchor="middle" x="100.0" y="100.0">2024</text><line stroke="#e1ed5e" stroke-width="0.3" x1="100.0" x2="100.0" y1="15.0" y2="10.0" /><path d="M 100.0 14.0 a86.0,86.0 0 0,1 42.35913384403234,11.155469271406648" fill="none" id="id25" stroke="none" /><text fill="#e1ed5e" style="font-size:6.75px; font-family:Arial;" text-anchor="middle"><textPath startOffset="22.145653131862478" xlink:href="#id25">January</textPath></text><path d="M 100.72087961077811 79.0123766808444 l 0.5551176442447784 -16.16164452570776 a37.17117526261748,37.17117526261748 0 0,0 0.6375285608469649,0.027378219519332486 l -0.8324719656925795 16.1497337377626" fill="#ff4106" stroke="none" /><path d="M 101.44090949804482 79.04949213459386 l 1.1270564138682224 -16.38715290276214 a37.42586486059553,37.42586486059553 0 0,0 0.6405722013452437,0.04958433964586299 l -1.4081976099886995 16.365390796121222" fill="#ff4606" stroke="none" /><path d="M 102.87502721639298 79.19773525538626 l 2.264059197690492 -16.38160451466062 a37.53731932706737,37.53731932706737 0 0,0 0.6375533050834511,0.09369838049342805 l -2.5449376083816255 16.34032506086831" fill="#ff4806" stroke="none" /><path d="M 103.58742460773223 79.30868818359171 l 2.5547806679386573 -14.735295986127191 a35.95512795197852,35.95512795197852 0 0,0 0.6072397635854485,0.11065931314608371 l -2.8073551650751596 14.68926849904974" fill="#ff2c04" stroke="none" /><path d="M 104.64783097203109 79.52079915486377 l 3.3139663617445163 -14.601947257676107 a35.97328410078193,35.97328410078193 0 0,0 0.6010413673973617,0.14184412615498077 l -3.5641398828817628 14.542906987874899" fill="#ff2d04" stroke="none" /><path d="M 105.3480935250658 79.69241777938227 l 4.249760203695296 -16.137031701103155 a37.687248242634865,37.687248242634865 0 0,0 0.6242059945895104,0.17013011954613505 l -4.5261475992195 16.061701087412875" fill="#ff4a06" stroke="none" /><path d="M 107.06938296918511 80.22567764915836 l 5.668619834679153 -15.856138560313585 a37.83895426901508,37.83895426901508 0 0,0 0.6097672673665797,0.2239149867337287 l -5.939976253699858 15.756492724571135" fill="#ff4d07" stroke="none" /><path d="M 107.74402155503746 80.48000691201159 l 6.631725546030747 -16.716280539760202 a38.98370981754995,38.98370981754995 0 0,0 0.6199255228484412,0.25211831328753254 l -6.917705530069628 16.599974969893378" fill="#ff6008" stroke="none" /><path d="M 108.4095320186766 80.7573450057729 l 7.1461855026073975 -16.351870930037993 a38.84521364821104,38.84521364821104 0 0,0 0.6087351988017023,0.27227951162486025 l -7.425834104264731 16.22678766750328" fill="#ff5e08" stroke="none" /><path d="M 109.3889696526874 81.21577127319529 l 9.79081907933002 -19.588196768349064 a42.89880341205276,42.89880341205276 0 0,0 0.6558875236509897,0.3349008429598262 l -10.125633824694589 19.417237973716404" fill="#ffa10e" stroke="none" /><path d="M 110.02825361518725 81.54914285379988 l 8.517345308197337 -15.670956038487905 a38.83603190901193,38.83603190901193 0 0,0 0.5830135603938643,0.3233877940987728 l -8.785103056747301 15.522435328955988" fill="#ff5e08" stroke="none" /><line stroke="#e1ed5e" stroke-width="0.3" x1="143.13028292997686" x2="145.6673583964461" y1="26.7553504044142" y2="22.446841604673864" /><path d="M 143.63769802327073 25.89364864446614 a86.0,86.0 0 0,1 29.32050498858742,28.57503671076993" fill="none" id="id26" stroke="none" /><text fill="#e1ed5e" style="font-size:6.75px; font-family:Arial;" text-anchor="middle"><textPath startOffset="20.669276256404974" xlink:href="#id26">February</textPath></text><path d="M 112.7482090630111 83.31218511350987 l 10.116509473825884 -13.24283564555494 a37.66482702788089,37.66482702788089 0 0,0 0.5104302480556789,0.39691364819785024 l -10.342349666516789 13.067220945736299" fill="#ff4a06" stroke="none" /><path d="M 115.16444852881244 85.47280134310134 l 10.699528208286768 -10.249905990418846 a35.81689834926151,35.81689834926151 0 0,0 0.42152083241339816,0.4476405166696956 l -10.873904874436427 10.064724013804655" fill="#ff2a04" stroke="none" /><path d="M 115.6541949942343 86.00192230759917 l 11.531560376533987 -10.311592395826628 a36.469512676723795,36.469512676723795 0 0,0 0.41330192951820016,0.47026172700295404 l -11.706873370010777 10.112118391012375" fill="#ff3505" stroke="none" /><path d="M 117.01052211995028 87.68569379921539 l 12.169806246043505 -8.810001213439463 a36.023990995971886,36.023990995971886 0 0,0 0.35832703855957965,0.5040318542584913 l -12.319248383133045 8.599792132471467" fill="#ff2e04" stroke="none" /><path d="M 117.42321728460499 88.27688183743584 l 12.610733466775113 -8.485064275599354 a36.199569544269806,36.199569544269806 0 0,0 0.34247475190647914,0.5185504244943309 l -12.754532657602315 8.267333972765964" fill="#ff3104" stroke="none" /><line stroke="#e1ed5e" stroke-width="0.3" x1="172.87174338648825" x2="177.1583165268699" y1="56.24261187166439" y2="53.66864786411523" /><path d="M 173.72905801456457 55.72781907015455 a86.0,86.0 0 0,1 12.242430191666344,42.057860355516425" fill="none" id="id27" stroke="none" /><text fill="#e1ed5e" style="font-size:6.75px; font-family:Arial;" text-anchor="middle"><textPath startOffset="22.145653131862474" xlink:href="#id27">March</textPath></text><path d="M 118.18653347947321 89.5 l 14.401203540938988 -8.314538741015719 a37.629077482031434,37.629077482031434 0 0,0 0.31817469837305884,0.5621842051144328 l -14.541811604333423 8.066097765802168" fill="#ff4906" stroke="none" /><path d="M 119.0197475246899 91.09779779509293 l 13.74369741699697 -6.432744351119398 a36.17463075586446,36.17463075586446 0 0,0 0.25841698054818685,0.5646877393375199 l -13.852098862400206 6.195867629567194" fill="#ff3004" stroke="none" /><path d="M 119.71291397450082 92.76114493625339 l 14.532232420735278 -5.336437037287179 a36.48106389700656,36.48106389700656 0 0,0 0.21082551005508368,0.5897164736698997 l -14.621698100834305 5.086185607236362" fill="#ff3605" stroke="none" /><path d="M 119.83427380445688 93.10060997987247 l 15.270871261815472 -5.312001731000957 a37.168391122344204,37.168391122344204 0 0,0 0.2044519538729068,0.6044258728938087 l -15.359808637260745 5.049074183632987" fill="#ff4106" stroke="none" /><path d="M 120.26092885502905 94.47779374421319 l 22.998750105526398 -6.268411612160185 a44.83769054577048,44.83769054577048 0 0,0 0.19602722135828687,0.7443472887216687 l -23.102966807689416 5.872683819065718" fill="#ffc011" stroke="none" /><path d="M 120.43855184770803 95.1765574152323 l 17.243348969488565 -4.069383405594285 a38.71702472158597,38.71702472158597 0 0,0 0.14710466883742265,0.6481703135306456 l -17.310664499883654 3.772778758124613" fill="#ff5c08" stroke="none" /><path d="M 120.592083275326 95.88100663000786 l 17.16042759539396 -3.4325661248831953 a38.50036529500039,38.50036529500039 0 0,0 0.12406964133352602,0.6491847902971446 l -17.21682352900964 3.137478769552736" fill="#ff5808" stroke="none" /><path d="M 120.77682067341334 96.94652285012252 l 26.980832729630734 -3.9652532752528806 a48.27065397677908,48.27065397677908 0 0,0 0.11344864110571352,0.8208578526636116 l -27.04492588729166 3.501507114389183" fill="#fff417" stroke="none" /><path d="M 120.86939407059847 97.66154086499901 l 18.670945737792152 -2.092118413785632 a39.7877932232841,39.7877932232841 0 0,0 0.0702303953914915,0.6794153675338812 l -18.704108525665312 1.7712985239688195" fill="#ff6e0a" stroke="none" /><path d="M 120.9064616781168 98.02013634271609 l 19.106099160654885 -1.8093674550504195 a40.19158241845036,40.19158241845036 0 0,0 0.059151248123784486,0.6874271655892266 l -19.13434403147641 1.481119242085531" fill="#ff740a" stroke="none" /><path d="M 120.96210409425399 98.7389718711861 l 19.1943792955195 -1.1546861945699558 a40.22907945659901,40.22907945659901 0 0,0 0.035551798682843944,0.6896953967078261 l -19.211372683658915 0.8250190044853989" fill="#ff750a" stroke="none" /><path d="M 120.99303781780057 99.45929381324524 l 31.08211148793227 -0.8005649360892265 a52.092419635099915,52.092419635099915 0 0,0 0.015351309623943269,0.894136824385968 l -31.091274229154877 0.2668811957341922" fill="#d2ff1c" stroke="none" /><line stroke="#e1ed5e" stroke-width="0.3" x1="184.99686870605535" x2="189.99668451229388" y1="99.2704041080226" y2="99.22748670261217" /><path d="M 185.99683186730306 99.26182062694052 a86.0,86.0 0 0,1 -10.086455211305974,41.156179273409016" fill="none" id="id28" stroke="none" /><text fill="#e1ed5e" style="font-size:6.75px; font-family:Arial;" text-anchor="middle"><textPath startOffset="21.40746469413373" xlink:href="#id28">April</textPath></text><path d="M 120.99303781780057 100.54070618675476 l 22.54379316846587 0.5806481436799583 a43.55126964694732,43.55126964694732 0 0,0 -0.02566479016979723,0.7472023630511577 l -22.530503691299227 -0.9675567712952269" fill="#ffab0f" stroke="none" /><path d="M 120.96210409425399 101.26102812881392 l 30.368111249481142 1.8268701620961398 a51.42301161045731,51.42301161045731 0 0,0 -0.06057150534312046,0.8806963940708816 l -30.332275782972953 -2.347909980321365" fill="#dbff1b" stroke="none" /><path d="M 120.9064616781168 101.97986365728391 l 21.855399007775304 2.0697290090089946 a42.95318300292236,42.95318300292236 0 0,0 -0.0758177013912142,0.7334674846857911 l -21.816648913902426 -2.444601015977717" fill="#ffa20e" stroke="none" /><path d="M 120.86939407059847 102.33845913500097 l 16.707530340284528 1.872113623202286 a37.81209027722929,37.81209027722929 0 0,0 -0.07781712647348124,0.6444374380458698 l -16.672931127551383 -2.1586447381715645" fill="#ff4c07" stroke="none" /><path d="M 120.77682067341334 103.0534771498775 l 16.840742287519543 2.4750091734544677 a38.02164126056394,38.02164126056394 0 0,0 -0.10044685350429373,0.6449408552083645 l -16.79577394187698 -2.7637382105942825" fill="#ff5007" stroke="none" /><path d="M 120.592083275326 104.11899336999214 l 17.966695470598932 3.5938422807729786 a39.32260484953795,39.32260484953795 0 0,0 -0.13808280466447026,0.6607762068574541 l -17.9023549551101 -3.9017349389158418" fill="#ff6609" stroke="none" /><path d="M 120.51834098615036 104.47187691870673 l 37.07586335078663 8.080511853829677 a58.946202906563464,58.946202906563464 0 0,0 -0.2239650830648484,0.9868314803148495 l -36.93168740616412 -8.715777668083543" fill="#74ff27" stroke="none" /><path d="M 120.43855184770803 104.8234425847677 l 18.871996704224884 4.453739836414192 a40.39041149988152,40.39041149988152 0 0,0 -0.16504767218235628,0.6734508251602641 l -18.792761505526233 -4.777046486182556" fill="#ff780b" stroke="none" /><path d="M 120.26092885502905 105.52220625578681 l 15.972252800280069 4.353308526169662 a37.55488310559987,37.55488310559987 0 0,0 -0.17486538571564028,0.620535564590092 l -15.89516892248985 -4.626852014662762" fill="#ff4806" stroke="none" /><path d="M 119.94978838288452 106.5578916946017 l 14.2423924632259 4.681757292522328 a35.99215109391044,35.99215109391044 0 0,0 -0.19798181715794316,0.5852980633639727 l -14.159925224495591 -4.925557030360461" fill="#ff2d04" stroke="none" /><path d="M 119.83427380445688 106.89939002012753 l 28.61254625108313 9.952928854435863 a51.29420069504778,51.29420069504778 0 0,0 -0.29643121305156417,0.8291708607785792 l -28.43747486798762 -10.442634671595362" fill="#ddff1b" stroke="none" /><path d="M 119.58574465831526 107.57618678355244 l 18.957606156806936 7.3332093172171335 a41.32650462048811,41.32650462048811 0 0,0 -0.2616190611079176,0.6594509362116432 l -18.828928420732893 -7.657561270642341" fill="#ff870c" stroke="none" /><path d="M 119.31412917781788 108.2440532568976 l 16.469595349235593 7.02989091191278 a38.9071755785483,38.9071755785483 0 0,0 -0.2674703761885398,0.6120245643564498 l -16.34649109103009 -7.311577546045075" fill="#ff5f08" stroke="none" /><path d="M 119.0197475246899 108.90220220490707 l 34.4101852709575 16.105704178918803 a58.992822446884134,58.992822446884134 0 0,0 -0.4371669906772986,0.9135108727438024 l -34.128639022320286 -16.69402755372771" fill="#74ff27" stroke="none" /><path d="M 118.8641267826498 109.22738970284198 l 14.809122806975253 7.243884059499026 a37.48587196903878,37.48587196903878 0 0,0 -0.2877131474906458,0.5756190263780671 l -14.682589746272876 -7.497034942040838" fill="#ff4706" stroke="none" /><path d="M 118.5362547648365 109.86951160357373 l 16.602750029198635 8.840029236933896 a39.809503593712975,39.809503593712975 0 0,0 -0.3263519606267888,0.6004508497659045 l -16.448552718956506 -9.123734920174403" fill="#ff6e0a" stroke="none" /><line stroke="#e1ed5e" stroke-width="0.3" x1="174.33088141563837" x2="178.70328620479359" y1="141.23008692659167" y2="143.65538615756765" /><path d="M 175.20536237346943 141.71514677278685 a86.0,86.0 0 0,1 -30.301960400862466,31.631185727798858" fill="none" id="id29" stroke="none" /><text fill="#e1ed5e" style="font-size:6.75px; font-family:Arial;" text-anchor="middle"><textPath startOffset="22.145653131862474" xlink:href="#id29">May</textPath></text><path d="M 118.36410011445183 110.18625677009912 l 23.35617353431714 12.955275744784267 a47.708613063739044,47.708613063739044 0 0,0 -0.40340275624882155,0.7127740169861274 l -23.13033741304694 -13.354306531869517" fill="#ffec16" stroke="none" /><path d="M 118.00360718960297 110.81064883170644 l 22.640078930115433 13.594716895230789 a47.408133243819606,47.408133243819606 0 0,0 -0.4249394962787411,0.6941067317283826 l -22.403371469381288 -13.981360743083728" fill="#ffe715" stroke="none" /><path d="M 117.62189284568427 111.42229804090321 l 19.907368460505012 12.903715722097006 a44.72360003159308,44.72360003159308 0 0,0 -0.4231183966553219,0.6406551810770954 l -19.682925624928963 -13.243550781513163" fill="#ffbe11" stroke="none" /><path d="M 117.21940702142032 112.02048342749411 l 16.558089853411026 11.558832683744088 a41.19348787615512,41.19348787615512 0 0,0 -0.40974750743894867,0.5763611832990628 l -16.357227247442115 -11.841371093752656" fill="#ff850c" stroke="none" /><path d="M 116.57777611688842 112.89097897827486 l 22.67035715015435 17.628606840389377 a49.71781454861385,49.71781454861385 0 0,0 -0.5296925766505844,0.6692492669067409 l -22.364398142862203 -18.0151760512108" fill="#f4ff19" stroke="none" /><path d="M 116.1254893667686 113.45245675266167 l 32.20092033979678 26.863153012876626 a62.93480965168628,62.93480965168628 0 0,0 -0.6991920588753967,0.8236464872617921 l -31.73503371741427 -27.411966282587976" fill="#42ff2d" stroke="none" /><path d="M 115.6541949942343 113.99807769240083 l 24.37422383303037 21.79558125041842 a53.69786154332201,53.69786154332201 0 0,0 -0.620344031918301,0.6818667593576528 l -23.99648210027019 -22.210785585333742" fill="#bbff1f" stroke="none" /><path d="M 115.16444852881244 114.52719865689866 l 16.502290580227005 15.808821078942264 a43.85266764078667,43.85266764078667 0 0,0 -0.525424284912801,0.5391316036736453 l -16.2284794941634 -16.089775374683647" fill="#ffb010" stroke="none" /><path d="M 114.91283532996324 114.78537596483092 l 22.747891645708748 22.55346638967206 a53.033192480846694,53.033192480846694 0 0,0 -0.6465202750666451,0.6409944939538057 l -22.357379450512138 -22.94064089385453" fill="#c4ff1e" stroke="none" /><path d="M 113.59037401385872 116.0094264158162 l 14.697245703361197 17.31331848286083 a43.710350683200375,43.710350683200375 0 0,0 -0.5761974729473338,0.4806844251059327 l -14.39787389625197 -17.563065091878634" fill="#ffae10" stroke="none" /><path d="M 113.03279911837588 116.46651593811092 l 16.469152690063815 20.808236419124164 a47.53706263328331,47.53706263328331 0 0,0 -0.644217870794505,0.500947712846766 l -16.10952487463408 -21.087885183591723" fill="#ffe915" stroke="none" /><path d="M 112.45986205192187 116.90419585922612 l 23.4446257128677 31.807137450244486 a60.513851591501464,60.513851591501464 0 0,0 -0.8414854190538054,0.6091705498898811 l -22.895159283439927 -32.20490877150745" fill="#60ff29" stroke="none" /><path d="M 111.8722381534696 117.32195027204791 l 14.652154592256192 21.377931435046847 a46.91720638180239,46.91720638180239 0 0,0 -0.6682433609960028,0.4496239560317641 l -14.283014943163186 -21.626305065135732" fill="#ffe015" stroke="none" /><line stroke="#e1ed5e" stroke-width="0.3" x1="143.1302829299769" x2="145.66735839644613" y1="173.24464959558577" y2="177.55315839532614" /><path d="M 143.63769802327073 174.10635135553383 a86.0,86.0 0 0,1 -40.68552437913181,11.842963189579606" fill="none" id="id30" stroke="none" /><text fill="#e1ed5e" style="font-size:6.75px; font-family:Arial;" text-anchor="middle"><textPath startOffset="21.407464694133747" xlink:href="#id30">June</textPath></text><path d="M 110.34350942703117 118.27599006163325 l 15.219218865400983 26.89090145777771 a51.898951504620484,51.898951504620484 0 0,0 -0.7791164804969817,0.4321627781756973 l -14.755358196747908 -27.14819715138655" fill="#d5ff1c" stroke="none" /><path d="M 109.71004243097381 118.62028667847754 l 12.028786583536007 23.066784328892194 a47.01476976542138,47.01476976542138 0 0,0 -0.7188172737657196,0.367033221760628 l -11.631042088056704 -23.269875502325657" fill="#ffe115" stroke="none" /><path d="M 109.06512990194946 118.94263497670748 l 13.108227241422714 27.391153410014102 a51.36611444593634,51.36611444593634 0 0,0 -0.7986483852936228,0.37380777043844027 l -12.636090142257585 -27.612137412023074" fill="#dcff1b" stroke="none" /><path d="M 108.4095320186766 119.2426549942271 l 17.84597638090682 40.83508639603905 a65.5643709027723,65.5643709027723 0 0,0 -1.0351831290416984,0.4418581219940778 l -17.14235817669469 -41.13541916769254" fill="#31ff3f" stroke="none" /><path d="M 107.74402155503746 119.51999308798841 l 8.741492371653445 22.034271142024615 a44.704910749545846,44.704910749545846 0 0,0 -0.7157633807975475,0.2768726520411831 l -8.361956728362369 -22.18108368220384" fill="#ffbd11" stroke="none" /><path d="M 107.407793817531 119.65005319985036 l 9.436668576124186 25.031884541840594 a47.75155990838007,47.75155990838007 0 0,0 -0.7695069475444607,0.2825736099201688 l -9.005572476925598 -25.190189000769482" fill="#ffec16" stroke="none" /><path d="M 106.72888874123015 119.89276391827305 l 10.402589276052689 30.753406775669767 a53.46514888239476,53.46514888239476 0 0,0 -0.8719332295475647,0.28662177134685063 l -9.87313330885739 -30.927449468418637" fill="#beff1e" stroke="none" /><path d="M 106.0420521117495 120.11202640906438 l 7.652422923778464 25.472427097587232 a47.59706974172656,47.59706974172656 0 0,0 -0.7845356729082394,0.22836690043817898 l -7.214027238488618 -25.600037692327927" fill="#ffea16" stroke="none" /><path d="M 105.69591212413111 120.21278271476187 l 6.07315937586742 21.55150012523286 a43.390855777584704,43.390855777584704 0 0,0 -0.7186736508954382,0.19587769935132518 l -5.702304324037287 -21.652578318728327" fill="#ffa90f" stroke="none" /><path d="M 104.9986988182912 120.39639698878246 l 5.906009156876437 24.098532790622443 a45.811695363715344,45.811695363715344 0 0,0 -0.7654214707519794,0.18063738296285614 l -5.491455532384578 -24.196366317231526" fill="#ffcf13" stroke="none" /><path d="M 104.29559338865022 120.5559693870025 l 6.726286996006389 32.18771821919273 a53.88300687149514,53.88300687149514 0 0,0 -0.9070396332968113,0.1814333297858382 l -6.172750877178619 -32.29844094564143" fill="#b8ff1f" stroke="none" /><path d="M 103.58742460773223 120.69131181640829 l 3.6598191253276506 21.108864155804255 a42.423781691809495,42.423781691809495 0 0,0 -0.7186235025400872,0.11824922387465309 l -3.2969181197344914 -21.16857937817458" fill="#ff990e" stroke="none" /><path d="M 103.2317021107853 120.74984581791261 l 4.7365519454665 30.4120612629984 a51.77870033962562,51.77870033962562 0 0,0 -0.879436308352727,0.1292468522753318 l -4.2137905315060875 -30.488889188572614" fill="#d6ff1c" stroke="none" /><path d="M 102.51750503828377 120.84855314841334 l 2.2794659280711 18.877247842087915 a40.014374851907434,40.014374851907434 0 0,0 -0.6826530442536318,0.07649269748661022 l -1.955076982216669 -18.913596300081494" fill="#ff720a" stroke="none" /><line stroke="#e1ed5e" stroke-width="0.3" x1="101.45913802915013" x2="101.54496967792366" y1="184.9874750549273" y2="189.98673829345242" /><path d="M 101.47630435890484 185.9873277026323 a86.0,86.0 0 0,1 -42.54439059252881,-10.42667462771756" fill="none" id="id31" stroke="none" /><text fill="#e1ed5e" style="font-size:6.75px; font-family:Arial;" text-anchor="middle"><textPath startOffset="22.145653131862474" xlink:href="#id31">July</textPath></text><path d="M 100.36049292484886 120.99690560180557 l 0.3739406853638888 21.780170233721 a42.783380064765815,42.783380064765815 0 0,0 -0.7344336102127383,0.006304229239249233 l -2.667694667092572e-15 -21.783380064765815" fill="#ff9f0e" stroke="none" /><path d="M 100.0 121.0 l 2.685141603858721e-15 21.925845114919838 a42.92584511491984,42.92584511491984 0 0,0 -0.7368792122422031,-0.006325221791342885 l 0.3763862873933483 -21.92261429132293" fill="#ffa10e" stroke="none" /><path d="M 99.27912038922189 120.98762331915562 l -0.7581428569319549 22.072502073157008 a43.0855185214438,43.0855185214438 0 0,0 -0.7389663744085474,-0.03173439569372033 l 1.1369349919413412 -22.056235109037456" fill="#ffa40f" stroke="none" /><path d="M 98.55909050195518 120.95050786540614 l -2.125344354789276 30.902040469667444 a51.97504146591896,51.97504146591896 0 0,0 -0.8895924476520971,-0.06886008162412123 l 2.6555057972166094 -30.86100262104827" fill="#d3ff1c" stroke="none" /><path d="M 98.19965949673042 120.92268563240118 l -1.3386384917931085 15.557008403884659 a36.614495300529185,36.614495300529185 0 0,0 -0.6257599214189158,-0.05926011515850897 l 1.6054979765970394 -15.531736533220966" fill="#ff3805" stroke="none" /><path d="M 97.48249496171623 120.84855314841334 l -3.0433570094095974 25.20336181870247 a46.38644261906642,46.38644261906642 0 0,0 -0.7897229523764918,-0.10224544698945046 l 3.475557783676883 -25.147404775512623" fill="#ffd814" stroke="none" /><path d="M 96.76829788921471 120.74984581791261 l -4.074259399454211 26.159668020983897 a47.47504146591896,47.47504146591896 0 0,0 -0.8041876329960019,-0.1323287689802051 l 4.522724535503276 -26.085873253508023" fill="#ffe815" stroke="none" /><path d="M 96.05791012581884 120.62667999033965 l -7.619726530415844 39.86962899709006 a61.59122502172024,61.59122502172024 0 0,0 -1.0367959288396047,-0.20738822293139528 l 8.303018944786407 -39.7329513774958" fill="#53ff2b" stroke="none" /><path d="M 95.70440661134978 120.55596938700252 l -5.63457051758019 26.96345966410947 a48.54589882315773,48.54589882315773 0 0,0 -0.8142709564057612,-0.1774665650591351 l 6.096603890605088 -26.862761640916617" fill="#fff817" stroke="none" /><path d="M 95.00130118170881 120.39639698878247 l -7.077835643141633 28.87998474135348 a50.734647737145565,50.734647737145565 0 0,0 -0.8441151128301752,-0.214570760794961 l 7.572556049197186 -28.754228748723254" fill="#e5ff1a" stroke="none" /><path d="M 94.30408787586889 120.21278271476187 l -5.304798973280749 18.824860119971092 a40.558022668035704,40.558022668035704 0 0,0 -0.668512069720971,-0.19459412049648064 l 5.627171055383327 -18.731022305172093" fill="#ff7b0b" stroke="none" /><path d="M 93.27111125876986 119.89276391827306 l -6.2144013565296055 18.371773383823196 a40.39435076218308,40.39435076218308 0 0,0 -0.654954441738672,-0.22782715331652936 l 6.5288615703133 -18.26238779793808" fill="#ff780b" stroke="none" /><path d="M 92.59220618246901 119.65005319985036 l -6.852838250361875 18.177967625246612 a40.42678303451544,40.42678303451544 0 0,0 -0.6472669425885783,-0.25037675827086864 l 7.1638774554439815 -18.057650978837703" fill="#ff780b" stroke="none" /><path d="M 92.25597844496254 119.51999308798841 l -9.729297032532163 24.52418416920267 a47.3836091146039,47.3836091146039 0 0,0 -0.7535021369770446,-0.30644275938232635 l 10.148853630699648 -24.353554153241053" fill="#ffe715" stroke="none" /><path d="M 91.59046798132341 119.24265499422711 l -12.13817981024023 27.77453083329872 a51.3110536292552,51.3110536292552 0 0,0 -0.8040847635592194,-0.35965688719474476 l 12.613177976655084 -27.562070195194117" fill="#ddff1b" stroke="none" /><path d="M 90.93487009805054 118.94263497670748 l -10.50810236058794 21.957892437006272 a45.34274543874891,45.34274543874891 0 0,0 -0.699227780031328,-0.34202734596421647 l 10.883490389881336 -21.774271340944836" fill="#ffc712" stroke="none" /><path d="M 90.28995756902619 118.62028667847754 l -8.978546249836004 17.217546299758975 a40.41798633599242,40.41798633599242 0 0,0 -0.6124502521666052,-0.3260952628810774 l 9.272785317789172 -17.060880569155326" fill="#ff780b" stroke="none" /><path d="M 89.97174638481275 118.45085714620012 l -13.355366378032295 24.572369889314643 a48.96725179685649,48.96725179685649 0 0,0 -0.7351052723325017,-0.407750502903201 l 13.7752158385209 -24.339486470978294" fill="#ffff18" stroke="none" /><line stroke="#e1ed5e" stroke-width="0.3" x1="58.13341422392154" x2="55.67067388415222" y1="173.97424548756322" y2="178.32567169271397" /><path d="M 57.64086615596768 174.84453072859336 a86.0,86.0 0 0,1 -31.369924170532247,-30.572349798747897" fill="none" id="id32" stroke="none" /><text fill="#e1ed5e" style="font-size:6.75px; font-family:Arial;" text-anchor="middle"><textPath startOffset="22.145653131862474" xlink:href="#id32">August</textPath></text><path d="M 89.34428304082925 118.09573695890944 l -15.618463808262458 26.523566068759305 a51.7804478319248,51.7804478319248 0 0,0 -0.7620781083635686,-0.457606007789785 l 16.071474673183452 -26.251546060433604" fill="#d6ff1c" stroke="none" /><path d="M 88.72937992617639 117.7192867562869 l -24.506671121232717 38.52855745245784 a66.66209225179685,66.66209225179685 0 0,0 -0.960297175713201,-0.6224530273159721 l 25.164453929202924 -38.102190583437974" fill="#33ff4f" stroke="none" /><path d="M 88.1277618465304 117.32195027204791 l -13.662594895217486 19.934134263717553 a45.166841086801995,45.166841086801995 0 0,0 -0.6357876162587205,-0.44382913390321393 l 14.002777602649973 -19.696660314009208" fill="#ffc512" stroke="none" /><path d="M 87.83215693770417 117.11559508785305 l -19.359013324835225 27.230876637039238 a54.41095687544428,54.41095687544428 0 0,0 -0.7566206024454097,-0.5477349672534441 l 19.82361493765459 -26.89454089841273" fill="#b1ff20" stroke="none" /><path d="M 87.2517909369889 116.68781488649013 l -16.644685850622583 21.788428080058782 a48.41862807045257,48.41862807045257 0 0,0 -0.6561647639645898,-0.510237689235957 l 17.0162605592224 -21.499489339202032" fill="#fff617" stroke="none" /><path d="M 85.86807049272751 115.53346607816431 l -19.553086404951834 21.492267155623203 a50.055821025195485,50.055821025195485 0 0,0 -0.6306323817001475,-0.5837039177068671 l 19.919148557965947 -21.15344549178396" fill="#efff19" stroke="none" /><path d="M 85.34317274990678 115.03919595460226 l -13.952364503090777 14.31635511639701 a40.99066029539531,40.99066029539531 0 0,0 -0.4997114397537684,-0.4954404274713206 l 14.196067862974509 -14.07473467869703" fill="#ff820b" stroke="none" /><path d="M 84.58840730492382 114.26474011684316 l -11.508352570375429 10.65195932941166 a36.68140352262854,36.68140352262854 0 0,0 -0.4237615633779263,-0.4657881902519715 l 11.689511834595235 -10.452833563602015" fill="#ff3905" stroke="none" /><path d="M 84.1078160697243 113.72728997021213 l -15.48921744898545 13.37921712124331 a41.4675183634784,41.4675183634784 0 0,0 -0.46069511771753185,-0.5426976902698551 l 15.716607130210093 -13.1113526485239" fill="#ff8a0c" stroke="none" /><path d="M 83.4222238831116 112.89097897827486 l -9.926333217676051 7.718776748954616 a33.5742437406208,33.5742437406208 0 0,0 -0.34988842164094275,-0.45801517549721305 l 10.057373616671288 -7.5472406602165325" fill="#ff0200" stroke="none" /><path d="M 83.20337586046588 112.60449989151573 l -23.695640356255776 17.781650277976976 a50.625503514730276,50.625503514730276 0 0,0 -0.5156520456834525,-0.699581033812423 l 23.997394421523058 -17.372262934895673" fill="#e7ff1a" stroke="none" /><path d="M 82.78059297857968 112.02048342749411 l -15.556399563490238 10.859575066191038 a39.97187228496959,39.97187228496959 0 0,0 -0.387937038589708,-0.5660117329412413 l 15.740526338895272 -10.590928598179746" fill="#ff710a" stroke="none" /><path d="M 82.576782715395 111.72311816256416 l -22.14286128654746 14.89870527809057 a47.68853171155517,47.68853171155517 0 0,0 -0.4511688473733306,-0.6831271386334082 l 22.395354572841516 -14.516398261118102" fill="#ffeb16" stroke="none" /><path d="M 82.18462484594161 111.11811171558189 l -26.218489423195155 16.362276511167472 a51.90523062949214,51.90523062949214 0 0,0 -0.46524891508576105,-0.7599491379792203 l 26.49550630273632 -15.909790257063694" fill="#d4ff1c" stroke="none" /><line stroke="#e1ed5e" stroke-width="0.3" x1="26.387840678322732" x2="22.057713659400548" y1="142.50000000000003" y2="145.00000000000006" /><path d="M 25.521815274538298 143.00000000000003 a86.0,86.0 0 0,1 -11.493303480769221,-40.785679425670985" fill="none" id="id33" stroke="none" /><text fill="#e1ed5e" style="font-size:6.75px; font-family:Arial;" text-anchor="middle"><textPath startOffset="21.40746469413373" xlink:href="#id33">September</textPath></text><path d="M 81.4637452351635 109.86951160357371 l -21.680366613911175 11.54357407040181 a45.5620112945265,45.5620112945265 0 0,0 -0.36165807828903784,-0.693527051524308 l 21.875332761175162 -11.169700775772998" fill="#ffcb12" stroke="none" /><path d="M 81.29705330413844 109.54985784667822 l -27.50144257701394 14.042432535359842 a51.879107100544985,51.879107100544985 0 0,0 -0.39818471356968727,-0.7966361605045055 l 27.738447203795364 -13.568264518691585" fill="#d5ff1c" stroke="none" /><path d="M 80.9802524753101 108.90220220490708 l -26.345377317293195 12.330966840577988 a50.08834215306848,50.08834215306848 0 0,0 -0.3578109263150296,-0.7818814485893467 l 26.553172708463283 -11.876896409773952" fill="#efff19" stroke="none" /><path d="M 80.68587082218212 108.24405325689762 l -43.53129410741887 18.580920923703818 a68.33100663454704,68.33100663454704 0 0,0 -0.4512259350960769,-1.082777981196637 l 43.84384588705144 -17.8309104330659" fill="#35ff67" stroke="none" /><path d="M 80.28708602549918 107.23885506374661 l -24.23015555898566 8.89764874388505 a46.81217913276992,46.81217913276992 0 0,0 -0.2705294333059727,-0.7567189729147552 l 24.379325162335576 -8.480394814589374" fill="#ffde14" stroke="none" /><path d="M 80.16572619554312 106.89939002012753 l -18.21472580041294 6.336027154091696 a40.28526577679489,40.28526577679489 0 0,0 -0.22159692824055238,-0.6551119431494674 l 18.320808150225858 -6.0224135364680675" fill="#ff760a" stroke="none" /><path d="M 79.83685265289637 105.86919833188381 l -29.128379007061188 8.478846607411251 a51.337325250770085,51.337325250770085 0 0,0 -0.23904005123229968,-0.8482688128586607 l 29.269637550368063 -7.977569870649594" fill="#ddff1b" stroke="none" /><path d="M 79.64726062577567 105.17358676015961 l -20.32753584543151 5.167180121698103 a41.97399494510702,41.97399494510702 0 0,0 -0.17151868229677264,-0.6998547546646807 l 20.413242054244577 -4.817469542425323" fill="#ff920d" stroke="none" /><path d="M 79.22317932658666 103.0534771498775 l -12.502206333490944 1.837393793903149 a33.63650185609352,33.63650185609352 0 0,0 -0.07905456240471363,-0.5719994325743103 l 12.531905412450872 -1.6225060531287532" fill="#ff0300" stroke="none" /><path d="M 79.03789590574601 101.26102812881392 l -12.424363766630243 0.7474188717835751 a33.446824895347916,33.446824895347916 0 0,0 -0.029558090846761545,-0.573419065919744 l 12.435363446933577 -0.5340280124871003" fill="#ff0000" stroke="none" /><line stroke="#e1ed5e" stroke-width="0.3" x1="15.003131293944662" x2="10.003315487706104" y1="100.72959589197737" y2="100.7725132973878" /><path d="M 14.003168132696942 100.73817937305945 a86.0,86.0 0 0,1 10.791469493833604,-42.45332614584628" fill="none" id="id34" stroke="none" /><text fill="#e1ed5e" style="font-size:6.75px; font-family:Arial;" text-anchor="middle"><textPath startOffset="22.145653131862435" xlink:href="#id34">October</textPath></text><path d="M 79.00696218219943 99.45929381324524 l -34.35233252793763 -0.8847942298071249 a55.363725219177006,55.363725219177006 0 0,0 0.032625877552746624,-0.9498668269934234 l 34.332081963388035 1.4743673213646868" fill="#a4ff21" stroke="none" /><path d="M 79.03789590574601 98.7389718711861 l -33.44772667547135 -2.012132178763986 a54.50819445541426,54.50819445541426 0 0,0 0.06420556261292304,-0.9335347892078335 l 33.40825715169336 2.5860103921261444" fill="#b0ff20" stroke="none" /><path d="M 79.0935383218832 98.0201363427161 l -62.69644446998293 -5.9374184765549005 a83.97695679646158,83.97695679646158 0 0,0 0.14822975595788185,-1.4339884256978255 l 62.58528232154338 7.012811424535639" fill="#4dd2ff" stroke="none" /><path d="M 79.17382384314186 97.30363454192245 l -27.209446028804077 -3.522807540515927 a48.43654727114762,48.43654727114762 0 0,0 0.11383853366495321,-0.823678920997474 l 27.144962978583916 3.989374769713468" fill="#fff717" stroke="none" /><path d="M 79.22317932658666 96.9465228501225 l -37.65633180923945 -5.534184008954409 a59.06082655398468,59.06082655398468 0 0,0 0.1560288823950313,-1.0018173525441039 l 37.55578143470615 6.179789543429964" fill="#73ff27" stroke="none" /><path d="M 79.34024301695615 96.23510406497455 l -27.47840106488563 -5.007480027722225 a48.93093949924966,48.93093949924966 0 0,0 0.15768276657293195,-0.8250628651044942 l 27.388392006030543 5.478445457860034" fill="#fffe18" stroke="none" /><path d="M 79.48165901384962 95.52812308129327 l -48.46137563237147 -10.561931263617135 a70.59898507226917,70.59898507226917 0 0,0 0.26823962827713604,-1.1819132957220158 l 48.27292514253667 11.392278893278158" fill="#39ff86" stroke="none" /><path d="M 79.73907114497095 94.47779374421319 l -29.61095077072481 -8.070596306610316 a51.69108877655793,51.69108877655793 0 0,0 0.24068726699421344,-0.8541142004900711 l 29.468045011656013 8.577718431003401" fill="#d7ff1c" stroke="none" /><path d="M 79.83685265289637 94.1308016681162 l -28.790021160220153 -8.380355569475912 a50.98492417660532,50.98492417660532 0 0,0 0.25182590285397216,-0.8382465286647625 l 28.64191893736255 8.873339701731398" fill="#e2ff1b" stroke="none" /><path d="M 79.94057633289273 93.78553927170692 l -19.669080052386192 -6.093531278649825 a41.591353368612275,41.591353368612275 0 0,0 0.2171371356083971,-0.680178984641205 l 19.561578201000536 6.430279296982421" fill="#ff8c0c" stroke="none" /><path d="M 80.16572619554312 93.10060997987247 l -48.37713590730234 -16.828079110524012 a72.22042097780587,72.22042097780587 0 0,0 0.41736466710577885,-1.1674432551151945 l 48.081131070152615 17.65605732202013" fill="#3bff9c" stroke="none" /><path d="M 80.41425534168474 92.42381321644754 l -20.076951784126475 -7.76619625214714 a42.526676407866674,42.526676407866674 0 0,0 0.2692167957594454,-0.6786021907411071 l 19.9406763134009 8.109699460101831" fill="#ff9b0e" stroke="none" /><path d="M 80.5471966667186 92.08871423366112 l -40.027231641271236 -16.27872664541667 a64.21083445225496,64.21083445225496 0 0,0 0.42401824948925926,-1.017489440350444 l 39.7418875472455 16.963448595208376" fill="#33ff2f" stroke="none" /><path d="M 80.68587082218212 91.75594674310238 l -29.299090701229556 -12.506039588728674 a52.85651804754759,52.85651804754759 0 0,0 0.3633662057440011,-0.8314529890800672 l 29.080090613468577 13.007154647584608" fill="#c7ff1e" stroke="none" /><path d="M 81.46374523516351 90.13048839642627 l -23.390735433832205 -12.454249130102873 a47.499713687702396,47.499713687702396 0 0,0 0.3893950763465405,-0.7164430819961517 l 23.173495007870315 12.853947045573644" fill="#ffe915" stroke="none" /><line stroke="#e1ed5e" stroke-width="0.3" x1="26.387840678322718" x2="22.05771365940052" y1="57.49999999999999" y2="54.99999999999999" /><path d="M 25.521815274538284 56.99999999999999 a86.0,86.0 0 0,1 29.574782752854787,-30.34633250058573" fill="none" id="id35" stroke="none" /><text fill="#e1ed5e" style="font-size:6.75px; font-family:Arial;" text-anchor="middle"><textPath startOffset="21.40746469413373" xlink:href="#id35">November</textPath></text><path d="M 82.18462484594161 88.88188828441811 l -23.939429208442036 -14.939974378596819 a49.21877221388516,49.21877221388516 0 0,0 0.4534743649181909,-0.7129370217413911 l 23.679437151897954 15.348725075016882" fill="#fcff18" stroke="none" /><path d="M 82.576782715395 88.27688183743585 l -19.008202802054164 -12.78956715436014 a43.91036450517336,43.91036450517336 0 0,0 0.42616109268261454,-0.6217817702024867 l 18.785851972556237 13.113983659632662" fill="#ffb110" stroke="none" /><path d="M 82.98947788004972 87.6856937992154 l -25.617436149988496 -18.545048212249043 a52.62549364189243,52.62549364189243 0 0,0 0.536023181352637,-0.7272183917375586 l 25.29531094905204 18.982072913255465" fill="#caff1d" stroke="none" /><path d="M 83.2033758604659 87.39550010848427 l -19.01159638811264 -14.266656360279399 a44.76927177948029,44.76927177948029 0 0,0 0.46655555258223325,-0.6107361949645793 l 18.763888858176102 14.590913468484862" fill="#ffbe11" stroke="none" /><path d="M 84.10781606972428 86.27271002978789 l -17.463053877336872 -15.084170016617804 a44.07575428481162,44.07575428481162 0 0,0 0.49950199368880116,-0.5683415765015698 l 17.20154081968948 15.381723870930674" fill="#ffb410" stroke="none" /><path d="M 84.83555147118756 85.47280134310135 l -12.024451895501654 -11.519152911784365 a37.651676407866674,37.651676407866674 0 0,0 0.4511266068103903,-0.4628956406723794 l 11.824938487540463 11.723871244524474" fill="#ff4a06" stroke="none" /><path d="M 85.34317274990677 84.96080404539775 l -43.97048175027968 -45.11758786380673 a84.0,84.0 0 0,0 1.0413100565387983,-0.997551478777726 l 43.189499207875585 45.86575147289003" fill="#4dd2ff" stroke="none" /><path d="M 86.68645165197937 83.75963576809568 l -13.929788361906553 -16.99207684962047 a42.97202037753732,42.97202037753732 0 0,0 0.5744934103462996,-0.46277122512023305 l 13.636044181205008 17.228696368534102" fill="#ffa20f" stroke="none" /><path d="M 87.25179093698888 83.31218511350988 l -17.88204333098736 -23.408168741564968 a50.4569149356291,50.4569149356291 0 0,0 0.6928143147844319,-0.5199007778585232 l 17.477576027292177 23.71168854668749" fill="#e9ff1a" stroke="none" /><path d="M 87.83215693770416 82.88440491214696 l -15.738947183082898 -22.138800255361346 a48.163227628149436,48.163227628149436 0 0,0 0.6779660243712522,-0.4732729385060185 l 15.35658606753788 22.405718009672494" fill="#fff316" stroke="none" /><path d="M 88.12776184653039 82.6780497279521 l -17.916879429241714 -26.141262539692498 a52.691957586288595,52.691957586288595 0 0,0 0.7504933381664248,-0.5049654113718829 l 17.4654898029783 26.444977625121492" fill="#c9ff1d" stroke="none" /><path d="M 88.72937992617638 82.28071324371311 l -15.514206851904417 -24.39091001245894 a49.90686952057499,49.90686952057499 0 0,0 0.7268243294858996,-0.45359213729418946 l 15.093218393628819 24.653637946594664" fill="#f1ff19" stroke="none" /><line stroke="#e1ed5e" stroke-width="0.3" x1="56.869717070023135" x2="54.33264160355391" y1="26.7553504044142" y2="22.446841604673864" /><path d="M 56.362301976729285 25.89364864446614 a86.0,86.0 0 0,1 42.16139366436587,-11.88097634709845" fill="none" id="id36" stroke="none" /><text fill="#e1ed5e" style="font-size:6.75px; font-family:Arial;" text-anchor="middle"><textPath startOffset="22.145653131862474" xlink:href="#id36">December</textPath></text><path d="M 89.34428304082924 81.90426304109057 l -26.147517359933406 -44.40420087046821 a72.53082299976305,72.53082299976305 0 0,0 1.0783175834671515,-0.6225669470866633 l 25.381407308605855 44.846514714831045" fill="#3cffa0" stroke="none" /><path d="M 90.28995756902619 81.37971332152246 l -14.86925912650179 -28.51376496037253 a53.157886422873396,53.157886422873396 0 0,0 0.8127404896012287,-0.4149910849956531 l 14.377591415186979 28.764813997041017" fill="#c3ff1e" stroke="none" /><path d="M 91.26138138417902 80.90454125486306 l -7.885494790733093 -17.231229222982815 a39.94983611089172,39.94983611089172 0 0,0 0.6260455058194798,-0.28002219177569815 l 7.588535882057994 17.364055165668358" fill="#ff700a" stroke="none" /><path d="M 91.5904679813234 80.7573450057729 l -9.897926291809627 -22.648392368158817 a45.71676802780191,45.71676802780191 0 0,0 0.7218131787899513,-0.30809912436068704 l 9.507678037849244 22.814966142178907" fill="#ffcd13" stroke="none" /><path d="M 92.93061703081487 80.22567764915836 l -10.786887164266604 -30.17284321391787 a53.04305544585736,53.04305544585736 0 0,0 0.8600406767814872,-0.2991667918266075 l 10.267340715440113 30.35356843831306" fill="#c4ff1e" stroke="none" /><path d="M 93.27111125876988 80.10723608172694 l -10.241982203479076 -30.278600503612537 a52.963914777663696,52.963914777663696 0 0,0 0.8637588826910265,-0.28393470117194586 l 9.720700583140287 30.449956126186514" fill="#c5ff1e" stroke="none" /><path d="M 93.95794788825049 79.88797359093562 l -6.6648210878045635 -22.185021785719385 a44.164520969907585,44.164520969907585 0 0,0 0.7279574638902527,-0.21189780837270228 l 6.283003611532687 22.29616328839461" fill="#ffb510" stroke="none" /><path d="M 95.70440661134978 79.44403061299748 l -5.576796393224506 -26.686989564599084 a48.26345667798752,48.26345667798752 0 0,0 0.812442931242478,-0.16251134003981524 l 5.117856976451051 26.778790301301765" fill="#fff417" stroke="none" /><path d="M 96.41257539226777 79.30868818359171 l -10.71858311454163 -61.82193905205657 a83.74424413553433,83.74424413553433 0 0,0 1.41855769661073,-0.23342312915278488 l 9.655747914877828 61.99682817970503" fill="#4dd5ff" stroke="none" /></svg>