<?xml version="1.0" encoding="utf-8" ?>
<svg baseProfile="full" height="200mm" version="1.1" viewBox="0,0,200,200" width="200mm" xmlns="http://www.w3.org/2000/svg" xmlns:ev="http://www.w3.org/2001/xml-events" xmlns:xlink="http://www.w3.org/1999/xlink"><defs /><rect fill="#1a1a1a" height="200" width="200" x="0" y="0" /><text alignment-baseline="middle" fill="#e1ed5e" style="dominant-baseline: central; font-size:9.0px; font-family:Arial;" text-anchor="middle" x="100.0" y="100.0">2025</text><line stroke="#e1ed5e" stroke-width="0.3" x1="100.0" x2="100.0" y1="15.0" y2="10.0" /><path d="M 100.0 14.0 a86.0,86.0 0 0,1 42.46469731375804,11.215312516191453" fill="none" id="id37" stroke="none" /><text fill="#e1ed5e" style="font-size:6.75px; font-family:Arial;" text-anchor="middle"><textPath startOffset="22.20632615414155" xlink:href="#id37">January</textPath></text><path d="M 100.0 79.0 l 0.0 -24.383428287956406 a45.383428287956406,45.383428287956406 0 0,0 0.7812011146933764,0.006724044628159831 l -0.419720635420848 24.379815619936803" fill="#e8ff1a" stroke="none" /><path d="M 100.72285384407766 79.0124445844662 l 0.7749283996570607 -22.49950368822575 a43.51284478339153,43.51284478339153 0 0,0 0.748336323921043,0.032224936275312865 l -1.1621055559674351 22.482831025426243" fill="#fffe18" stroke="none" /><path d="M 102.16513564639614 79.11191278185805 l 2.8976710276994644 -27.955202371184583 a49.10497886493874,49.10497886493874 0 0,0 0.8400068300827244,0.0943845548442643 l -3.378444561291914 27.90118186286972" fill="#baff1f" stroke="none" /><path d="M 102.88285421437855 79.19881850522331 l 4.338158223696806 -31.301900773927105 a52.6010855641797,52.6010855641797 0 0,0 0.8957990409941476,0.13201749277871908 l -4.87632624511961 31.222588796987417" fill="#91ff24" stroke="none" /><path d="M 103.95276090670814 79.375362276772 l 8.975764113638045 -46.833564564648945 a68.68592152045312,68.68592152045312 0 0,0 1.1592665611215927,0.23253796634740748 l -9.780597084226763 46.67212264222433" fill="#39ff88" stroke="none" /><path d="M 106.40334571778207 80.00007090966166 l 6.466213054439403 -20.19628617156753 a42.20617566628298,42.20617566628298 0 0,0 0.6900050054137632,0.22748380175842953 l -6.812900882095584 20.081988645549863" fill="#ffed16" stroke="none" /><path d="M 107.08798089147638 80.2323363322302 l 7.033014879248632 -19.614369004661533 a41.837148791107666,41.837148791107666 0 0,0 0.6758047766298194,0.24890460258388403 l -7.369601981651027 19.490401134271323" fill="#ffe815" stroke="none" /><path d="M 108.09893153111575 80.62456947434976 l 13.054923120069358 -31.231867433229432 a54.85056219677509,54.85056219677509 0 0,0 0.8679872720152804,0.3716268514696886 l -13.590594149874955 31.00252105379695" fill="#77ff27" stroke="none" /><path d="M 108.43124777332544 80.76684994638697 l 12.805336416584497 -29.21121089174504 a52.89469364179423,52.89469364179423 0 0,0 0.8307436095850115,0.3727304420258117 l -13.306262144636289 28.986460119202697" fill="#8eff24" stroke="none" /><path d="M 109.73455568895987 81.39251694778311 l 7.479845029299887 -14.297631454690242 a37.13599537916673,37.13599537916673 0 0,0 0.5638569561309076,0.3011928583621263 l -7.724847031959105 14.166759869826361" fill="#ffa80f" stroke="none" /><line stroke="#e1ed5e" stroke-width="0.3" x1="143.23703022742887" x2="145.7803849466894" y1="26.81831364943548" y2="22.513508569990506" /><path d="M 143.74570117128098 25.957352633546492 a86.0,86.0 0 0,1 28.547481713284135,27.462654790039103" fill="none" id="id38" stroke="none" /><text fill="#e1ed5e" style="font-size:6.75px; font-family:Arial;" text-anchor="middle"><textPath startOffset="19.985693538727396" xlink:href="#id38">February</textPath></text><path d="M 110.68208982089419 81.91981866633111 l 13.563001822780915 -22.956325634437807 a47.66360637796592,47.66360637796592 0 0,0 0.7027838378804382,0.4234193988209307 l -13.956147726878992 22.71945962615826" fill="#ccff1d" stroke="none" /><path d="M 110.99172775467656 82.1063720568725 l 23.963330144761347 -39.010328808977015 a66.78260527112158,66.78260527112158 0 0,0 0.9743291052264187,0.6101247963076595 l -24.631278402360028 38.59205967134641" fill="#36ff71" stroke="none" /><path d="M 111.60114157652 82.49532879139004 l 10.159108452200694 -15.328823638210247 a39.38967967842096,39.38967967842096 0 0,0 0.5619506247849979,0.3794315703483672 l -10.421463771392235 15.151680155563211" fill="#ffc712" stroke="none" /><path d="M 113.06298171725822 83.55741782278167 l 22.336000337152477 -28.11467772084504 a56.90726965961428,56.90726965961428 0 0,0 0.7617352427757914,0.6159369245226817 l -22.816638978492758 27.72603469905823" fill="#60ff29" stroke="none" /><path d="M 113.6212207817346 84.01681056812373 l 12.889131855144825 -15.124153653647484 a40.8713296917556,40.8713296917556 0 0,0 0.5315339807795757,0.4609410303092249 l -13.147559634571165 14.900047629918589" fill="#ffdb14" stroke="none" /><path d="M 113.89432698308785 84.25364557470407 l 22.64844858292263 -25.66734603294434 a55.2310513362969,55.2310513362969 0 0,0 0.7074545691897942,0.6351596973537867 l -23.086914139708416 25.273687326821257" fill="#73ff27" stroke="none" /><path d="M 114.68862486808459 84.99185889309783 l 12.559453303534461 -12.832654458658915 a38.95597081026256,38.95597081026256 0 0,0 0.4751964329198119,0.4731557884199251 l -12.778485536621595 12.61456281958887" fill="#ffc112" stroke="none" /><path d="M 114.94478906791727 85.2469230424477 l 44.3452658421197 -43.7764037149493 a83.3127284334629,83.3127284334629 0 0,0 0.9987043350047954,1.0292526058119196 l -45.0922344408276 43.00658691358727" fill="#4cd9ff" stroke="none" /><path d="M 115.4437574822437 85.77008943001954 l 20.210782169803558 -18.622257125982642 a48.48207008908646,48.48207008908646 0 0,0 0.5602134582483769,0.6186016927510992 l -20.52833926866797 18.271602645961995" fill="#c2ff1e" stroke="none" /><path d="M 115.9244219780498 86.31012108654704 l 12.149210029354103 -10.444411384301597 a37.02151782765563,37.02151782765563 0 0,0 0.4112727229423588,0.4868171818692182 l -12.327193365783579 10.233735252803273" fill="#ffa70f" stroke="none" /><path d="M 116.60985879189232 87.15038557335679 l 21.022948848686976 -16.263641383184474 a47.5795110815707,47.5795110815707 0 0,0 0.49556113456728207,0.6521003640672913 l -21.29978592347837 15.899356243236149" fill="#cdff1d" stroke="none" /><line stroke="#e1ed5e" stroke-width="0.3" x1="172.23445277983987" x2="176.4835382374775" y1="55.19839476539836" y2="52.563006222186495" /><path d="M 173.08426987136738 54.67131705675599 a86.0,86.0 0 0,1 12.851231095245387,41.99856678651699" fill="none" id="id39" stroke="none" /><text fill="#e1ed5e" style="font-size:6.75px; font-family:Arial;" text-anchor="middle"><textPath startOffset="22.20632615414155" xlink:href="#id39">March</textPath></text><path d="M 120.67395015179393 96.31383870115 l 4.613907087487383 -0.8226587380501098 a25.68667323495638,25.68667323495638 0 0,0 0.0738652562093965,0.4359569234202688 l -4.627384205217003 0.7431160263140032" fill="#ff0000" stroke="none" /><path d="M 120.94382443527127 98.46500227214037 l 10.11028287889438 -0.7409946208766536 a31.137400698375938,31.137400698375938 0 0,0 0.03457646580689651,0.5348826221266824 l -10.121539935705691 0.566852934496936" fill="#ff5307" stroke="none" /><line stroke="#e1ed5e" stroke-width="0.3" x1="184.98032266829074" x2="189.97916517819016" y1="98.17113171792111" y2="98.06355123074" /><path d="M 185.9800911702706 98.14961562048488 a86.0,86.0 0 0,1 -9.607161424134198,41.387399972396054" fill="none" id="id40" stroke="none" /><text fill="#e1ed5e" style="font-size:6.75px; font-family:Arial;" text-anchor="middle"><textPath startOffset="21.466115282336823" xlink:href="#id40">April</textPath></text><path d="M 120.81339534386255 102.79330883721812 l 19.923544385165247 2.6738843749585652 a41.10217099017659,41.10217099017659 0 0,0 -0.10014436114239542,0.7004094285842931 l -19.874565973006252 -3.0164392755232674" fill="#ffde14" stroke="none" /><path d="M 120.32669344350535 105.2749913415812 l 20.33705791432826 5.277681031077576 a42.01070778618697,42.01070778618697 0 0,0 -0.18767168150788938,0.698396142470022 l -20.24319815647859 -5.6269681067231465" fill="#ffea16" stroke="none" /><path d="M 118.97047184881838 109.00673069616215 l 15.934977204538766 7.565549738274071 a38.639757406253324,38.639757406253324 0 0,0 -0.2904361843702172,0.5983845641588631 l -15.802387763553835 -7.838723258398209" fill="#ffbd11" stroke="none" /><line stroke="#e1ed5e" stroke-width="0.3" x1="174.80103733775053" x2="179.2010983576182" y1="140.37084112569926" y2="142.7455964860345" /><path d="M 175.68104954172406 140.8457921977663 a86.0,86.0 0 0,1 -30.038265399797805,32.042727171017184" fill="none" id="id41" stroke="none" /><text fill="#e1ed5e" style="font-size:6.75px; font-family:Arial;" text-anchor="middle"><textPath startOffset="22.206326154141568" xlink:href="#id41">May</textPath></text><path d="M 117.94076556474637 110.91462005526583 l 18.53537900809686 11.27636492008234 a42.69600610215303,42.69600610215303 0 0,0 -0.387385662257742,0.6245890338396228 l -18.338528706171157 -11.593750285287237" fill="#fff316" stroke="none" /><path d="M 117.75023020441432 111.22182372390056 l 9.053149902082168 5.723466748163545 a31.710629989263197,31.710629989263197 0 0,0 -0.29565653005464726,0.45886550031524254 l -8.95328850865047 -5.87845384840024" fill="#ff5b08" stroke="none" /><path d="M 117.14729908036423 112.12312394758627 l 20.149999830225934 14.246030487996968 a45.677355567869185,45.677355567869185 0 0,0 -0.4594276441323212,0.638104815022499 l -19.901792393718008 -14.590768908470599" fill="#e5ff1a" stroke="none" /><path d="M 116.27256486870786 113.27417163493432 l 21.268097181966557 17.349223961907906 a48.44681274432449,48.44681274432449 0 0,0 -0.5326934692891898,0.6416635996929037 l -20.966307712783824 -17.71274881871458" fill="#c2ff1e" stroke="none" /><path d="M 115.32070863581623 114.36230785411682 l 15.753901170221786 14.76840163783991 a42.59377431153868,42.59377431153868 0 0,0 -0.5060413163224694,0.5305822970375876 l -15.49735330252035 -15.037391051460004" fill="#fff216" stroke="none" /><path d="M 115.07121518719521 114.62390073753431 l 13.023890404511725 12.637340660753337 a39.14728906048124,39.14728906048124 0 0,0 -0.4734200505033374,0.47957201169978736 l -12.804429728952853 -12.859653166433787" fill="#ffc412" stroke="none" /><path d="M 114.29624159901734 115.38237550388516 l 12.744924978958398 13.713200104890445 a39.721243811137256,39.721243811137256 0 0,0 -0.5048389461394798,0.46115840768253274 l -12.506986483352055 -13.93055127915956" fill="#ffcc13" stroke="none" /><path d="M 112.63410532772338 116.77436683061366 l 11.343982061042844 15.061463512915228 a39.85559896031252,39.85559896031252 0 0,0 -0.5515540986112886,0.4080265363564189 l -11.083042992012992 -15.254499998011417" fill="#ffcd13" stroke="none" /><path d="M 112.34349029814194 116.9893568818739 l 11.123194186343385 15.309763375973096 a39.92390825213942,39.92390825213942 0 0,0 -0.5594531030510969,0.3991549346257903 l -10.858013755443404 -15.498962572443105" fill="#ffce13" stroke="none" /><path d="M 111.7513745106137 117.40417183066458 l 16.064548019878412 23.792123539880695 a49.70774887761011,49.70774887761011 0 0,0 -0.7132477335954321,0.4727017056168826 l -15.652625587543016 -24.065123266588895" fill="#b3ff20" stroke="none" /><path d="M 111.45004920935366 117.60387380957326 l 6.369573333693492 9.792898103491432 a32.682136693202374,32.682136693202374 0 0,0 -0.47423056182897705,0.30267638200170566 l -6.200060969817585 -9.901088914316945" fill="#ff6909" stroke="none" /><path d="M 111.1453310114006 117.79835938074945 l 18.504897343659724 29.55110197170738 a55.86687329603319,55.86687329603319 0 0,0 -0.8194361433297371,0.50336460713558 l -17.993482000397677 -29.865255045671336" fill="#6cff28" stroke="none" /><line stroke="#e1ed5e" stroke-width="0.3" x1="143.8653032363475" x2="146.44561519142675" y1="172.8068346515853" y2="177.08958963109032" /><path d="M 144.38136562736335 173.6633856474863 a86.0,86.0 0 0,1 -40.68145358897372,12.25698825130547" fill="none" id="id42" stroke="none" /><text fill="#e1ed5e" style="font-size:6.75px; font-family:Arial;" text-anchor="middle"><textPath startOffset="21.466115282336833" xlink:href="#id42">June</textPath></text><path d="M 110.5260780823613 118.17145234162733 l 10.723078688358566 18.51153979824138 a42.39302508432606,42.39302508432606 0 0,0 -0.6345857004380208,0.36033432237814794 l -10.402844220999347 -18.693377286414155" fill="#ffef16" stroke="none" /><path d="M 110.21172684928248 118.3499491758327 l 10.862829755791584 19.51994769018958 a43.33896658601397,43.33896658601397 0 0,0 -0.6549904453137001,0.3571530147990791 l -10.525216498609234 -19.70404135674843" fill="#fffb17" stroke="none" /><path d="M 109.57404056367764 118.69057910512821 l 11.121542526308167 21.711634599463487 a45.394339202878626,45.394339202878626 0 0,0 -0.6985239679396905,0.35025441864466356 l -10.746164650685715 -21.89985685901745" fill="#e8ff1a" stroke="none" /><path d="M 108.59647513512805 119.15986991738527 l 2.8140048111258635 6.271869025450832 a27.874224621690004,27.874224621690004 0 0,0 -0.4394561658184455,0.19264466866855678 l -2.705627970649664 -6.319378247413844" fill="#ff2203" stroke="none" /><path d="M 108.2653958097858 119.30500536409082 l 10.45498405359837 24.419099566561595 a47.56311569079661,47.56311569079661 0 0,0 -0.7554122170526095,0.3157623679937356 l -10.033100377048298 -24.595446977575303" fill="#cdff1d" stroke="none" /><path d="M 107.2578585660854 119.70592522655815 l 5.807187467228052 15.767185453370407 a37.8026058514894,37.8026058514894 0 0,0 -0.6125470156421796,0.21963756643035304 l -5.534920890956138 -15.86481056084072" fill="#ffb210" stroke="none" /><path d="M 106.57524785965236 119.94407469862006 l 6.278612622037443 19.044319212056894 a41.05260757877457,41.05260757877457 0 0,0 -0.6730255484633322,0.21548152717164173 l -5.94986572848317 -19.149573585888245" fill="#ffdd14" stroke="none" /><path d="M 105.88484417918355 120.15858648285463 l 3.9621349014312375 13.572328618277778 a35.13883365414777,35.13883365414777 0 0,0 -0.5820811913064262,0.16450195891506303 l -3.7279225420202056 -13.638519370531359" fill="#ff8c0c" stroke="none" /><path d="M 105.53697534728816 120.25689768951611 l 7.716756892062854 28.23157862422941 a50.26722345128158,50.26722345128158 0 0,0 -0.836613095692997,0.22095712243062113 l -7.229653353558359 -28.360227095963616" fill="#acff20" stroke="none" /><path d="M 104.83641907484287 120.43548508189849 l 4.335206629330435 18.317695185152644 a39.82370774887761,39.82370774887761 0 0,0 -0.6684311694260334,0.15213275793631628 l -4.019255310511539 -18.389604676666647" fill="#ffcd13" stroke="none" /><path d="M 104.13013068566511 120.58985236759428 l 6.007468522643647 29.948904622683425 a51.545483563845295,51.545483563845295 0 0,0 -0.8714436184631905,0.16701424353176292 l -5.491057289608753 -30.04787606456366" fill="#9dff22" stroke="none" /><path d="M 103.41894727170886 120.7198165907248 l 3.1742565510390373 19.23691953183072 a40.49705048785442,40.49705048785442 0 0,0 -0.6887663839950859,0.107571143983916 l -2.842654303435434 -19.28870898316174" fill="#ffd614" stroke="none" /><path d="M 102.70371172650421 120.8252237178851 l 4.247401447260741 32.71542764407069 a53.98999280067544,53.98999280067544 0 0,0 -0.9226441831340867,0.11171936148930768 l -3.6836298410752746 -32.78369253428535" fill="#81ff25" stroke="none" /><path d="M 101.98527174616119 120.90594882070398 l 2.5486284968426722 26.838389767551007 a47.959129669369986,47.959129669369986 0 0,0 -0.8225120507901817,0.07096980069239096 l -2.0862721283109487 -26.87828382052206" fill="#c8ff1d" stroke="none" /><path d="M 101.26447882468166 120.96189622390904 l 2.8313196119128303 46.93619752515561 a68.0215164458275,68.0215164458275 0 0,0 -1.1693609067405928,0.06044260196224776 l -2.022970636758758 -46.977979933880064" fill="#38ff80" stroke="none" /><line stroke="#e1ed5e" stroke-width="0.3" x1="102.19456741930631" x2="102.32365962044197" y1="184.97166512339345" y2="189.96999836594603" /><path d="M 102.22038585953345 185.97133177190398 a86.0,86.0 0 0,1 -42.740103519485714,-10.115201625700543" fill="none" id="id43" stroke="none" /><text fill="#e1ed5e" style="font-size:6.75px; font-family:Arial;" text-anchor="middle"><textPath startOffset="22.20632615414155" xlink:href="#id43">July</textPath></text><path d="M 100.54218724476979 120.99299961872073 l 0.5257053830635815 20.354836844048215 a41.36162442187766,41.36162442187766 0 0,0 -0.7118932551231647,0.012255887987428497 l -0.1752524380477488 -20.3608702093148" fill="#ffe215" stroke="none" /><path d="M 100.18074693466247 120.99922214144158 l 0.2854880398413108 33.16806881703344 a54.16929743712337,54.16929743712337 0 0,0 -0.9324699490075098,0.0 l 0.285488039841288 -33.16806881703344" fill="#7fff26" stroke="none" /><path d="M 99.45781275523022 120.99299961872073 l -0.5992597834849116 23.202796686143298 a44.210533952208095,44.210533952208095 0 0,0 -0.7605888646919045,-0.02619621836463571 l 0.9985689998514592 -23.189043669352568" fill="#f7ff18" stroke="none" /><path d="M 98.73552117531835 120.96189622390904 l -1.191536355693105 19.752692530333142 a40.78859825972565,40.78859825972565 0 0,0 -0.7004708318135617,-0.04830856969426415 l 1.5313699482855967 -19.729255616122593" fill="#ffda14" stroke="none" /><path d="M 97.2962882734958 120.8252237178851 l -2.4910586472233356 19.18727248702403 a40.34830221686687,40.34830221686687 0 0,0 -0.687979686572049,-0.09534771567370053 l 2.8209669249822156 -19.141550205857722" fill="#ffd413" stroke="none" /><path d="M 96.58105272829116 120.7198165907248 l -2.5798942724433 15.63491095367754 a36.84633380269429,36.84633380269429 0 0,0 -0.6248980800625592,-0.10864654120725382 l 2.848641323977909 -15.58818583394928" fill="#ffa40f" stroke="none" /><path d="M 96.22490169976321 120.6578951692458 l -3.951526799077178 21.62333795882387 a42.981430993575884,42.981430993575884 0 0,0 -0.7266571416557774,-0.13926557065689943 l 4.3231515553046505 -21.552115189818505" fill="#fff717" stroke="none" /><path d="M 95.86986931433489 120.58985236759428 l -2.805562706165885 13.986511886531602 a35.26512169069436,35.26512169069436 0 0,0 -0.5941476746618763,-0.12450942201503395 l 3.045901842257148 -13.936146483790028" fill="#ff8e0d" stroke="none" /><path d="M 95.51606077576429 120.51570834832081 l -3.9218722542292355 17.944040568670484 a39.36762570145051,39.36762570145051 0 0,0 -0.660775944095475,-0.150390453574351 l 4.230168347717573 -17.873873381518447" fill="#ffc712" stroke="none" /><path d="M 94.81253420990036 120.34920634021253 l -3.487215042714552 13.679523167617543 a35.11701182430332,35.11701182430332 0 0,0 -0.5844633929759976,-0.1543620941900766 l 3.7221688785020386 -13.617469724123884" fill="#ff8c0c" stroke="none" /><path d="M 94.11515582081647 120.15858648285463 l -3.9439439681184836 13.51001541316592 a35.073919514038685,35.073919514038685 0 0,0 -0.5780933946798762,-0.17417479764461968 l 4.175912337238606 -13.440125246415574" fill="#ff8b0c" stroke="none" /><path d="M 93.08242187328487 119.8279376855182 l -6.119170665625497 17.539452742355675 a39.57623891255653,39.57623891255653 0 0,0 -0.641286665037507,-0.22994258219576807 l 6.420176891292731 -17.43152261911995" fill="#ffca12" stroke="none" /><path d="M 92.7421414339146 119.70592522655815 l -9.923727216449523 26.94406686428303 a49.71346550058797,49.71346550058797 0 0,0 -0.8004572911883381,-0.3026644551196996 l 10.386054728398145 -26.769254159056697" fill="#b3ff20" stroke="none" /><path d="M 92.06813273071674 119.44442032107085 l -8.213255603619766 20.134224229852027 a42.744989145740035,42.744989145740035 0 0,0 -0.6788892306464519,-0.28377575346976475 l 8.55861629376368 -19.989863433362288" fill="#fff417" stroke="none" /><path d="M 91.40352486487194 119.15986991738527 l -14.24890767538324 31.758041899007807 a55.80811105476324,55.80811105476324 0 0,0 -0.8730833608217048,-0.40078974891857977 l 14.793459031972365 -31.508065079755152" fill="#6dff28" stroke="none" /><path d="M 91.07499286063937 119.00905698771935 l -10.162791214263912 21.64536950276048 a44.91243078768349,44.91243078768349 0 0,0 -0.6969710591915219,-0.3345884632734511 l 10.533874941455675 -21.46722676298747" fill="#eeff19" stroke="none" /><path d="M 90.42595943632237 118.69057910512821 l -15.693150566700037 30.636393289201333 a55.421847255482064,55.421847255482064 0 0,0 -0.8453391368913274,-0.4422414832265849 l 16.218180606117862 -30.36172238703003" fill="#71ff27" stroke="none" /><line stroke="#e1ed5e" stroke-width="0.3" x1="58.666819895761336" x2="56.23545636021788" y1="174.27360380694188" y2="178.64263932499728" /><path d="M 58.180547188652646 175.14741091055294 a86.0,86.0 0 0,1 -31.652253787137756,-30.449443065178592" fill="none" id="id44" stroke="none" /><text fill="#e1ed5e" style="font-size:6.75px; font-family:Arial;" text-anchor="middle"><textPath startOffset="22.20632615414155" xlink:href="#id44">August</textPath></text><path d="M 89.7882731507175 118.34994917583269 l -13.232225151324098 23.777629640282914 a48.211531632118664,48.211531632118664 0 0,0 -0.7216835436749393,-0.40979075088214695 l 13.639557461920244 -23.546335723606134" fill="#c5ff1e" stroke="none" /><path d="M 89.1626897886671 117.98757091392108 l -20.06104681066255 33.296961614786255 a59.87329741501412,59.87329741501412 0 0,0 -0.8782009986887372,-0.5394627809493012 l 20.631227009283595 -32.94671036700858" fill="#41ff2d" stroke="none" /><path d="M 88.8546689885994 117.79835938074946 l -14.172122364560762 22.63194576943399 a47.703071389386736,47.703071389386736 0 0,0 -0.6921901881238518,-0.4417885279058916 l 14.559594354731537 -22.384642812704296" fill="#cbff1d" stroke="none" /><path d="M 88.24862548938628 117.40417183066458 l -22.176820350795296 32.84459972698661 a60.630532321650904,60.630532321650904 0 0,0 -0.8599231730310977,-0.5914629996089108 l 22.738900408449286 -32.457995938012594" fill="#39ff2e" stroke="none" /><path d="M 87.65650970185807 116.9893568818739 l -17.91561983077795 24.658735229117603 a51.4798729823582,51.4798729823582 0 0,0 -0.712420229029361,-0.52703145387369 l 18.337425030225873 -24.346693826504143" fill="#9eff22" stroke="none" /><path d="M 87.07902340077011 116.55440617244103 l -26.421173269590223 33.85091138415246 a63.941385614340064,63.941385614340064 0 0,0 -0.8618157192099554,-0.6846785293421569 l 26.999946481517537 -33.39109894080517" fill="#33ff4e" stroke="none" /><path d="M 86.79598089348748 116.32954008644616 l -12.085412647872616 14.946148494842921 a40.22094049986251,40.22094049986251 0 0,0 -0.5346126643589687,-0.4399498265225392 l 12.340895440776274 -14.735903549463202" fill="#ffd213" stroke="none" /><path d="M 86.24171649860922 115.8653595955263 l -16.577397101094835 19.116219413571343 a46.302963054061266,46.302963054061266 0 0,0 -0.5976558199470022,-0.527361772852579 l 16.903995273948425 -18.828034498946476" fill="#ddff1b" stroke="none" /><path d="M 85.70375840098266 115.38237550388516 l -13.294962018642345 14.305025321809378 a40.52920286480608,40.52920286480608 0 0,0 -0.5069318692042667,-0.47933572342454406 l 13.539229722237428 -14.074054961638904" fill="#ffd614" stroke="none" /><path d="M 85.18274418774928 114.88116024355367 l -20.478770661576807 20.56709229207935 a50.02387522644709,50.02387522644709 0 0,0 -0.6049539088004047,-0.6128151157108879 l 20.829765195432746 -20.211536682387802" fill="#afff20" stroke="none" /><path d="M 84.67929136418377 114.36230785411682 l -17.040310668834753 15.97433862709558 a44.35704780710785,44.35704780710785 0 0,0 -0.5174008662407733,-0.5615364523922101 l 17.312757943071258 -15.678650919902026" fill="#f5ff19" stroke="none" /><path d="M 84.19399662182784 113.82643327865904 l -21.095041711542063 18.453063671867614 a49.02706448577339,49.02706448577339 0 0,0 -0.5501711895156645,-0.6399733874492818 l 21.409555410628506 -18.0872131852568" fill="#bbff1f" stroke="none" /><path d="M 83.28015986056508 112.70617746262583 l -22.114703817831856 16.8059831254031 a48.77591031382699,48.77591031382699 0 0,0 -0.502249574383623,-0.6728453813392755 l 22.400714658910566 -16.422824864554514" fill="#beff1e" stroke="none" /><path d="M 82.24976979558568 111.22182372390057 l -39.50062041533336 24.97257749228187 a67.73252229234234,67.73252229234234 0 0,0 -0.6145447876747456,-0.9908418730519806 l 39.92462984267606 -24.288939287864626" fill="#38ff7c" stroke="none" /><line stroke="#e1ed5e" stroke-width="0.3" x1="26.63291911575756" x2="22.317208475507996" y1="142.92168965132927" y2="145.44649492493687" /><path d="M 25.769776987707644 143.4266507060508 a86.0,86.0 0 0,1 -11.730757126820373,-40.83630448921669" fill="none" id="id45" stroke="none" /><text fill="#e1ed5e" style="font-size:6.75px; font-family:Arial;" text-anchor="middle"><textPath startOffset="21.46611528233685" xlink:href="#id45">September</textPath></text><path d="M 81.87401531095188 110.60418214915194 l -16.367560366807712 9.575457247944067 a39.96276387735446,39.96276387735446 0 0,0 -0.34224872912267074,-0.5967395074566141 l 16.52996109208276 -9.292297894629147" fill="#ffcf13" stroke="none" /><path d="M 81.51974371655577 109.97397251340807 l -19.984103006275813 10.78561309067313 a43.70889303130255,43.70889303130255 0 0,0 -0.3516432307573963,-0.6651764723814738 l 20.166798745258095 -10.44002160320553" fill="#feff18" stroke="none" /><path d="M 81.35079622478065 109.6543875284942 l -23.59864043909405 12.216629872817649 a47.57333016434082,47.57333016434082 0 0,0 -0.370214138007319,-0.7304676165128242 l 23.805433246887638 -11.808608044602138" fill="#cdff1d" stroke="none" /><path d="M 80.73074385275274 108.34839909993369 l -20.56797832736025 8.911070071592764 a43.41537200886029,43.41537200886029 0 0,0 -0.2911910737437604,-0.6882896818776182 l 20.71832038229632 -8.555705864048987" fill="#fffc17" stroke="none" /><path d="M 79.4281124754447 104.21870165774334 l -19.35578846917234 3.9693147653252097 a40.75859324368953,40.75859324368953 0 0,0 -0.13502752684671568,-0.6885024503437934 l 19.421245928994722 -3.6355485879134615" fill="#ffda14" stroke="none" /><path d="M 79.23777060512086 103.15116336523772 l -18.63662838443501 2.8285527290756987 a39.85005644767915,39.85005644767915 0 0,0 -0.0970936169136953,-0.6790725305542199 l 18.682556052365307 -2.507334726541078" fill="#ffcd13" stroke="none" /><path d="M 79.18660465613746 102.79330883721812 l -30.39143009570765 4.078750672800254 a51.66390761649848,51.66390761649848 0 0,0 -0.11070466043584283,-0.8824250669606442 l 30.457136265390343 -3.555007851552201" fill="#9cff22" stroke="none" /><path d="M 79.1416061653843 102.43462659150553 l -26.8645577310929 3.1356760803226704 a48.04693931978129,48.04693931978129 0 0,0 -0.08881293353869169,-0.8222974625575277 l 26.914552966132643 -2.6727822958803604" fill="#c7ff1e" stroke="none" /><path d="M 79.04373962182676 101.35467743843564 l -35.986334182088555 2.326267861190329 a57.061444369672195,57.061444369672195 0 0,0 -0.05492476258758036,-0.9807185323698425 l 36.021045295563674 -1.7064776124850487" fill="#5fff29" stroke="none" /><path d="M 79.0095281055655 100.63252640178507 l -24.485920509732438 0.7378581707123502 a45.49703528774498,45.49703528774498 0 0,0 -0.016851099451718296,-0.7830043763974724 l 24.494993671869164 -0.31626397852474886" fill="#e7ff1a" stroke="none" /><line stroke="#e1ed5e" stroke-width="0.3" x1="15.007084014347285" x2="10.007500721073583" y1="101.09737516637583" y2="101.16192664675087" /><path d="M 14.007167355692545 101.11028546245083 a86.0,86.0 0 0,1 10.666146001902534,-42.60595125391555" fill="none" id="id46" stroke="none" /><text fill="#e1ed5e" style="font-size:6.75px; font-family:Arial;" text-anchor="middle"><textPath startOffset="22.20632615414155" xlink:href="#id46">October</textPath></text><path d="M 79.00019446554 99.90962569577889 l -38.18256729674632 -0.16432166227239703 a59.18292088066671,59.18292088066671 0 0,0 0.01315267954775596,-1.0186895257350865 l 38.17408161008085 0.8215474460679554" fill="#48ff2c" stroke="none" /><path d="M 79.01574976396665 99.18683210126434 l -25.39884175683871 -0.9842392532215649 a46.41790489982437,46.41790489982437 0 0,0 0.03781156505698053,-0.7981423768169518 l 25.37813658354823 1.4212927366615258" fill="#dbff1b" stroke="none" /><path d="M 79.08570108090925 98.10471618934814 l -56.25595245741427 -5.097995221250905 a77.48647397533989,77.48647397533989 0 0,0 0.13181140814992026,-1.3273228918268627 l 56.159863923582115 6.065593643782198" fill="#44ffea" stroke="none" /><path d="M 79.16333360222342 97.38593545837743 l -29.65693322090629 -3.7206113524144064 a50.88940676736509,50.88940676736509 0 0,0 0.11652220394991708,-0.8682257632360717 l 29.588495017898538 4.230555457715138" fill="#a5ff21" stroke="none" /><path d="M 79.21141760316559 97.0276538004421 l -19.16353854978493 -2.7399978455100578 a40.35842963523883,40.35842963523883 0 0,0 0.10424795036934849,-0.6868637416236025 l 19.11353470597628 3.0694606995257523" fill="#ffd413" stroke="none" /><path d="M 79.32604984820605 96.31383870115002 l -34.61051666263826 -6.171048402375545 a56.15636076216113,56.15636076216113 0 0,0 0.17786665161675233,-0.9501707651769733 l 34.49916428711165 6.765897245015091" fill="#69ff28" stroke="none" /><path d="M 79.46518482838121 95.60439243477599 l -19.743703854329322 -4.226265164907784 a41.19096726587341,41.19096726587341 0 0,0 0.154379063268551,-0.692051069940627 l 19.668030404058733 4.56549440439837" fill="#ffdf14" stroke="none" /><path d="M 79.62865764111835 94.90015583598534 l -10.156775518614143 -2.542688225512442 a31.470212621894515,31.470212621894515 0 0,0 0.13607670204235114,-0.5243590421494358 l 10.111502484701484 2.717143693210742" fill="#ff5708" stroke="none" /><path d="M 80.14247586403 93.16781622104843 l -24.75740132936103 -8.51803651921846 a47.18178501794304,47.18178501794304 0 0,0 0.27083899170509135,-0.7656983011211596 l 24.60710925684613 8.942932446766232" fill="#d2ff1c" stroke="none" /><path d="M 80.65960295795068 91.81776055985345 l -23.807551742368986 -10.072134942018748 a46.850482050743494,46.850482050743494 0 0,0 0.32061188185907497,-0.7400164272743711 l 23.630649150667228 10.480450513879719" fill="#d6ff1c" stroke="none" /><path d="M 80.803312248108 91.48605970444005 l -39.794559509994556 -17.649320973239675 a64.53280943622794,64.53280943622794 0 0,0 0.4590977242675243,-1.0115609797140457 l 39.48485946876368 18.331703961795792" fill="#33ff55" stroke="none" /><path d="M 81.10775173730289 90.83032412892265 l -18.3960545597859 -8.92883976932288 a41.44844744700344,41.44844744700344 0 0,0 0.3170608600470373,-0.6391753465388934 l 18.23963368678545 9.244174704360734" fill="#ffe315" stroke="none" /><path d="M 81.43458229118936 90.18545643968196 l -24.97425144634377 -13.202551246135116 a49.2492583037507,49.2492583037507 0 0,0 0.4026523223929247,-0.7460536011044869 l 24.743291024732375 13.630485830572075" fill="#b9ff1f" stroke="none" /><line stroke="#e1ed5e" stroke-width="0.3" x1="26.266209847984243" x2="21.928928074336255" y1="57.711370442889674" y2="55.22380399835377" /><path d="M 25.398753493254645 57.213857153982495 a86.0,86.0 0 0,1 29.58750427330803,-30.492523968695096" fill="none" id="id47" stroke="none" /><text fill="#e1ed5e" style="font-size:6.75px; font-family:Arial;" text-anchor="middle"><textPath startOffset="21.46611528233685" xlink:href="#id47">November</textPath></text><path d="M 82.54541684631803 88.32363383020206 l -10.897697028648762 -7.290091077722474 a34.11126341927844,34.11126341927844 0 0,0 0.33067707987114087,-0.4852278113024005 l 10.770595483108881 7.476596912295291" fill="#ff7e0b" stroke="none" /><path d="M 84.31358615837235 86.03803664274999 l -13.747545440988825 -12.23624007610009 a39.40436298414076,39.40436298414076 0 0,0 0.4553199650274036,-0.5027756776675808 l 13.534881835345375 12.471068541037228" fill="#ffc712" stroke="none" /><path d="M 85.57189188830299 84.74124197986013 l -3.5971232408798803 -3.804215540685435 a26.23558511439464,26.23558511439464 0 0,0 0.3308083858247966,-0.307450341823846 l 3.5311069712602277 3.8655704685839285" fill="#ff0901" stroke="none" /><path d="M 86.65592168130627 83.78471172551755 l -24.911260931997468 -30.271350905315565 a60.20364277531889,60.20364277531889 0 0,0 0.805859018008524,-0.6516152821580065 l 24.386498515424442 30.695672284737707" fill="#3dff2e" stroke="none" /><path d="M 86.93701828274178 83.55741782278169 l -12.774963222482823 -16.080048731837564 a41.53698255718351,41.53698255718351 0 0,0 0.5636517993194329,-0.4399391698655094 l 12.496278868003966 16.297566290926298" fill="#ffe415" stroke="none" /><path d="M 87.80319425747018 82.90503203632743 l -18.397385317573743 -25.78566218551825 a52.67592399392548,52.67592399392548 0 0,0 0.7426524184885354,-0.5202754789406983 l 17.950801759501548 26.098522507222892" fill="#90ff24" stroke="none" /><path d="M 89.00827224532344 82.1063720568725 l -32.97518326402967 -53.68088382938249 a84.0,84.0 0 0,0 1.2385517351294033,-0.746213562165523 l 32.046269462682616 54.240544001006626" fill="#4dd2ff" stroke="none" /><line stroke="#e1ed5e" stroke-width="0.3" x1="56.762969772571076" x2="54.21961505331055" y1="26.818313649435495" y2="22.513508569990535" /><path d="M 56.25429882871897 25.957352633546506 a86.0,86.0 0 0,1 42.265352541879196,-11.944610805530505" fill="none" id="id48" stroke="none" /><text fill="#e1ed5e" style="font-size:6.75px; font-family:Arial;" text-anchor="middle"><textPath startOffset="22.20632615414155" xlink:href="#id48">December</textPath></text></svg>